<svg width="1200" height="1200" viewBox="0 0 1200 1200" fill="none" xmlns="http://www.w3.org/2000/svg">
<rect width="1200" height="1200" fill="#16562B"/>
<g clip-path="url(#clip0_1_182)">
<path d="M615.631 161.73C617.628 162.664 618.852 163.491 616.92 166.025C613.999 169.686 612.926 174.228 611.68 178.652C610.059 184.493 606.634 187.392 600.385 187.972C591.072 188.812 581.713 189.009 572.373 188.562C567.67 188.358 567.659 187.993 569.871 183.816C571.514 180.703 571.782 177.202 572.319 173.809C573.693 165.22 574.649 164.221 583.281 162.664C583.971 162.478 584.645 162.241 585.3 161.955L615.631 161.73Z" fill="white"/>
<path d="M166.272 577.56C167.142 577.228 167.861 576.487 168.978 577.335C173.144 580.631 178.223 581.941 183.14 583.53C188.852 585.356 192.245 588.437 192.696 595.137C193.34 604.801 192.696 614.464 192.631 624.128C192.631 625.921 191.998 626.425 190.312 625.899C183.312 623.698 176.354 621.465 169.289 619.382C167.335 618.802 167.572 617.428 167.475 616.021C167.142 610.728 167.786 605.359 166.401 600.141L166.272 577.56Z" fill="white"/>
<path d="M1033.07 596.393C1031.57 600.549 1032.6 604.983 1031.73 609.214C1031.24 611.576 1030.65 611.823 1028.41 610.846C1024.21 608.999 1019.82 607.571 1015.53 606.025C1011.46 604.564 1008.46 602.052 1007.66 597.65C1005.51 586 1006.46 574.232 1005.81 561.712C1011.33 564.752 1017.32 566.825 1023.54 567.843C1028.55 568.799 1031.76 572.224 1032.96 577.324L1033.07 596.393Z" fill="white"/>
<path d="M761.556 1160C760.794 1156.35 758.099 1153.78 756.188 1150.78C754.942 1148.79 754.566 1147.56 756.531 1145.69C761.363 1141.15 765.647 1136.02 770.768 1131.73C773.989 1129.08 776.502 1129.58 779.433 1132.31C782.364 1135.04 782.031 1137.68 779.562 1140.47C773.836 1146.91 768.109 1153.4 762.383 1159.95L761.556 1160Z" fill="white"/>
<path d="M627.356 980.345C628.537 990.009 633.991 996.515 639.736 1002.89C640.756 1003.97 642.839 1005.04 640.509 1007.02C629.353 1016.44 618.09 1025.68 603.649 1029.81C595.83 1031.94 587.649 1032.4 579.641 1031.15C577.086 1030.81 575.744 1029.67 576.023 1026.86C576.345 1022.4 577.244 1018 578.697 1013.77C579.77 1010.8 581.735 1008.21 584.881 1007.56C600.514 1004.34 611.723 994.067 623.051 984.017C624.232 983.008 625.434 981.977 627.356 980.345Z" fill="white"/>
<path d="M680.181 960.481C691.133 960.707 700.485 962.629 708.752 968.287C713.047 971.208 713.047 972.893 708.452 975.202C698.788 980.066 688.825 983.985 677.948 985.585C669.81 986.777 661.929 989.354 655.927 995.581C654.434 997.138 652.996 997.095 651.299 996.129C644.395 992.156 639.768 986.24 636.547 979.089C635.559 976.866 636.3 975.202 638.415 974.053C651.858 966.795 665.74 961.018 680.181 960.481Z" fill="white"/>
<path d="M565.877 1071.19C574.155 1065.32 581.435 1060.15 588.725 1055.02C589.227 1054.72 589.791 1054.54 590.374 1054.5C590.957 1054.45 591.542 1054.54 592.085 1054.75C605.947 1058.66 620.001 1062.07 632.327 1070.05C641.539 1076.02 641.754 1078.4 633.723 1085.95C633.09 1086.54 632.467 1087.14 631.79 1087.67C618.799 1097.87 620.946 1096.37 609.758 1088.99C601.502 1083.55 592.204 1080.41 582.916 1077.18L565.877 1071.19Z" fill="white"/>
<path d="M529.801 967.16C526.119 974.636 524.195 982.856 524.175 991.19C524.121 993.001 523.665 994.777 522.838 996.389C522.012 998.001 520.836 999.409 519.397 1000.51C511.41 1007.16 504.29 1014.78 498.202 1023.21C496.624 1025.41 495.593 1025.36 493.489 1023.77C486.66 1018.73 483.3 1011.44 479.971 1004.06C479.757 1003.61 479.667 1003.1 479.71 1002.6C479.754 1002.1 479.929 1001.62 480.218 1001.21C491.427 982.815 508.027 972.292 529.801 967.16Z" fill="white"/>
<path d="M734.252 978.616C730.838 985.456 731.579 993.069 731.031 1000.48C730.763 1004.12 729.55 1006.67 726.318 1008.56C713.27 1016.27 699.396 1022.48 684.959 1027.08C684.057 1027.36 683.037 1028.27 682.157 1027.41C681.277 1026.55 682.093 1025.55 682.393 1024.61C684.283 1018.79 684.476 1012.7 685.153 1006.69C685.7 1001.91 687.654 998.104 691.992 995.839C704.846 989.318 718.043 983.497 731.525 978.402C731.942 978.139 732.433 978.018 732.924 978.056C733.416 978.095 733.882 978.291 734.252 978.616V978.616Z" fill="white"/>
<path d="M472.659 1018.93C475.472 1022.99 477.91 1027.25 481.507 1030.58C483.944 1032.84 486.252 1035.53 489.409 1036.5C493.704 1037.81 495.336 1040.89 496.141 1044.62C498.074 1054.28 502.683 1063.21 509.444 1070.39C512.955 1074.11 512.074 1076.26 506.974 1077.48C501.49 1078.71 495.905 1079.43 490.289 1079.63C484.685 1079.94 480.959 1077.63 478.371 1072.85C470.49 1058.29 467.484 1042.92 470.652 1026.53C471.092 1024.27 471.553 1022.01 472.026 1019.76C472.069 1019.5 472.327 1019.34 472.659 1018.93Z" fill="white"/>
<path d="M562.527 966.859C577.43 965.785 589.852 971.669 601.18 980.592C605.034 983.62 605.023 984.253 601.104 987.26C596.845 990.491 592.177 993.145 587.222 995.152C584.42 996.362 581.259 996.446 578.396 995.388C571.503 993.004 564.223 992.95 557.04 992.392C553.154 992.092 549.245 991.963 545.391 991.426C540.753 990.792 539.496 988.752 541.397 984.608C543.866 979.239 546.765 974.085 549.449 968.803C549.763 968.153 550.276 967.619 550.913 967.279C551.55 966.94 552.278 966.811 552.993 966.913C556.181 966.934 559.349 966.881 562.527 966.859Z" fill="white"/>
<path d="M622.857 1052.74C650.365 1040.41 676.381 1041.43 703.105 1056.44C690.22 1058.97 681.416 1068.25 669.541 1070.68C662.423 1072.12 655.862 1071.65 649.646 1066.61C642.699 1060.96 633.991 1058.11 625.939 1054.27C625.166 1053.91 624.403 1053.51 622.857 1052.74Z" fill="white"/>
<path d="M747.137 1095.56C743.239 1096.01 739.964 1096.29 736.722 1096.77C731.933 1097.49 727.252 1099.08 723.752 1102.29C718.652 1106.95 717.642 1106.89 711.769 1100.97C704.178 1093.3 697.35 1084.86 687.88 1079.2C684.959 1077.46 686.538 1075.53 688.417 1074.08C696.222 1068.05 704.898 1066.16 714.475 1068.89C719.872 1070.52 724.914 1073.14 729.335 1076.64C736.174 1081.84 741.607 1088.35 747.137 1095.56Z" fill="white"/>
<path d="M632.993 1104.12C639.273 1096.86 645.955 1089.94 653.006 1083.42C654.083 1082.45 655.387 1081.78 656.797 1081.45C658.207 1081.12 659.676 1081.15 661.07 1081.54C666.009 1082.62 671.001 1083.37 676.101 1082.13C676.782 1081.89 677.533 1081.92 678.19 1082.22C678.848 1082.53 679.359 1083.08 679.612 1083.76C682.683 1089.68 686.956 1094.79 691.122 1099.95C692.754 1101.97 692.443 1102.99 690.317 1104.17C678.163 1110.93 665.45 1113.77 651.664 1110.14C645.448 1108.5 639.102 1107.27 632.993 1104.12Z" fill="white"/>
<path d="M787.035 967.632C786.669 971.217 786.49 974.819 786.498 978.423C786.831 984.415 783.932 987.571 778.596 989.654C769.351 993.283 760.236 997.256 751.131 1001.25C747.459 1002.86 746.6 1001.47 746.6 998.029C746.465 990.519 747.591 983.039 749.928 975.9C750.331 974.689 751.01 973.589 751.912 972.687C752.814 971.785 753.914 971.106 755.125 970.703C764.681 966.698 774.065 962.264 783.459 957.818C785.886 956.67 787.099 956.476 786.852 959.794C786.648 962.371 786.852 964.991 786.852 967.579L787.035 967.632Z" fill="white"/>
<path d="M538.294 1003.82C547.957 1004.22 557.416 1006.16 566.961 1007.52C570.064 1007.96 571.138 1009.1 569.86 1012.34C567.659 1017.95 565.565 1023.62 565.469 1029.82C565.469 1032.99 562.838 1032.45 560.97 1032.24C552.983 1031.19 545.074 1029.62 537.295 1027.52C530.879 1025.94 524.579 1023.91 518.441 1021.46C514.866 1020.01 514.952 1018.39 517.217 1015.8C520.353 1012.22 523.822 1008.95 527.578 1006.03C530.789 1003.52 534.547 1003.61 538.294 1003.82Z" fill="white"/>
<path d="M742.488 1037.39C742.96 1046.44 739.664 1053.62 736.045 1060.72C735.025 1062.75 733.608 1062.87 731.804 1061.92C724.997 1058.47 718.179 1055.09 711.404 1051.6C708.462 1050.07 707.238 1048 708.924 1044.56C710.384 1041.58 710.567 1038.19 710.481 1034.9C710.361 1033.45 710.687 1031.99 711.417 1030.73C712.146 1029.47 713.243 1028.46 714.561 1027.84C721.658 1024.35 728.83 1021.01 735.981 1017.62C738.429 1016.45 739.009 1018.28 739.503 1019.98C741.228 1025.63 742.231 1031.48 742.488 1037.39V1037.39Z" fill="white"/>
<path d="M207.448 412.862C210.454 418.145 215.297 421.807 219.892 425.747C221.606 427.099 222.878 428.932 223.543 431.012C224.209 433.091 224.239 435.322 223.629 437.418C221.17 447.544 217.101 457.089 213.353 466.752C212.473 469.018 211.389 469.233 209.531 467.826C203.089 462.898 197.57 456.971 191.686 451.441C191.317 451.109 191.074 450.658 191 450.167C190.926 449.675 191.024 449.173 191.278 448.746C195.777 437.526 199.76 426.091 205.064 415.192C205.271 414.655 205.59 414.169 206.002 413.767C206.413 413.365 206.906 413.056 207.448 412.862V412.862Z" fill="white"/>
<path d="M655.519 192.299C644.664 191.161 634.399 189.98 624.06 188.938C621.462 188.67 621.129 187.864 622.278 185.513C624.597 180.735 626.572 175.785 628.72 170.9C630.685 166.411 633.659 163.942 639.027 164.189C649.812 164.713 660.563 165.788 671.238 167.41C674.459 167.882 675.414 168.817 672.73 171.522C669.412 174.872 667.92 179.307 666.138 183.559C664.022 188.487 660.834 192.106 655.519 192.299Z" fill="white"/>
<path d="M326.498 293.819C326.155 287.022 323.514 282.008 320.969 277.026C317.243 269.65 317.662 266.643 323.782 261.049C331.77 253.726 340.693 247.606 349.669 240.648C352.278 247.789 355.241 254.435 356.315 261.693C356.639 263.265 356.55 264.894 356.055 266.421C355.56 267.947 354.676 269.319 353.491 270.401C344.773 278.132 335.915 285.648 326.498 293.819Z" fill="white"/>
<path d="M783.975 202.478C776.695 206.944 771.788 212.882 765.969 217.778C762.92 220.344 759.967 221.225 756.113 219.625C746.943 215.845 737.699 212.259 728.433 208.716C726.447 207.954 726.393 207.234 727.595 205.688C730.817 201.479 733.952 197.098 737.259 192.932C740.566 188.766 744.989 187.478 749.982 188.917C761.46 192.234 772.315 197.173 783.975 202.478Z" fill="white"/>
<path d="M289.746 329.853C287.384 324.195 283.938 319.76 280.942 315.036C277.946 310.311 277.903 305.834 281.361 301.41C288.396 292.631 296.185 284.483 304.638 277.058C305.916 275.899 307.548 274.825 307.859 277.703C308.654 284.456 312.025 290.222 314.613 296.299C315.373 297.76 315.654 299.422 315.415 301.051C315.176 302.68 314.429 304.192 313.281 305.372C306.077 314.126 298.209 322.31 289.746 329.853V329.853Z" fill="white"/>
<path d="M990.434 777.541C989.36 772.172 985.345 768.865 981.769 765.333C974.415 758.074 973.749 755.669 977.711 746.22C981.501 737.201 985.624 728.321 989.886 718.744C996.124 725.014 1002.59 730.233 1007.38 737.126C1007.94 737.775 1008.31 738.567 1008.45 739.414C1008.59 740.261 1008.49 741.13 1008.17 741.925C1003.48 753.871 997.935 765.465 991.583 776.617C991.389 776.961 990.928 777.154 990.434 777.541Z" fill="white"/>
<path d="M932.337 872.125C929.749 865.575 925.465 860.958 922.309 855.632C920.161 852.068 919.979 848.89 922.072 845.121C927.978 834.523 935.912 825.321 942.247 814.488C944.308 820.833 948.249 825.225 951.91 829.842C957.59 836.95 957.74 839.645 952.544 847.15C946.574 855.794 940.4 864.276 932.337 872.125Z" fill="white"/>
<path d="M168.022 632.75C174.475 635.713 181.364 637.616 188.422 638.387C191.847 638.838 193.49 641.951 194.542 645.076C198.032 655.513 198.773 666.55 201.35 677.18C201.833 679.188 200.684 679.8 198.902 679.553C192.459 678.683 186.017 678.286 179.726 676.461C174.862 675.033 173.283 670.953 172.339 666.636C170.47 658.326 169.611 649.843 168.645 641.404C168.291 638.72 167.239 636.067 168.022 632.75Z" fill="white"/>
<path d="M821.693 252.642C828.973 249.27 834.223 244.202 840.279 240.294C843.156 238.437 845.583 238.34 848.568 240.219C858.821 246.661 868.109 254.371 878.18 261.822C871.276 266.321 864.931 270.852 857.726 273.837C856.105 274.514 854.376 275.126 852.701 274.32C841.299 268.877 831.539 261.146 821.693 252.642Z" fill="white"/>
<path d="M214.202 794.463C221.975 795.816 228.159 794.624 234.258 792.777C239.251 791.284 242.847 793.904 245.94 797.469C250.75 803.074 254.529 809.398 258.276 815.722C260.209 818.943 264.718 822.401 263.269 825.493C262.099 828.027 256.451 827.168 252.822 827.984C250.299 828.553 247.561 828.371 245.167 829.208C237.35 831.946 233.292 828.585 229.877 821.692C225.432 812.694 219.956 804.255 214.202 794.463Z" fill="white"/>
<path d="M965.181 827.598C963.731 822.229 959.877 818.514 956.269 814.713C951.513 809.656 950.138 804.577 953.542 797.952C957.676 789.889 961.251 781.524 965.685 773.6C967.006 771.26 968.155 770.851 970.227 772.773C975.371 777.412 980.076 782.516 984.282 788.02C985.269 789.341 985.892 790.619 985.108 792.38C979.861 804.558 973.499 816.225 966.104 827.233C965.975 827.394 965.61 827.415 965.181 827.598Z" fill="white"/>
<path d="M403.557 978.874C400.899 978.84 398.284 978.197 395.912 976.995C387.145 972.922 378.721 968.146 370.724 962.715C368.415 961.201 368.072 960.009 370.477 958.291C376.468 953.996 382.577 949.916 388.128 945.052C389.32 943.978 390.447 944.257 391.693 944.923C401.356 950.098 411.083 955.145 420.682 960.449C424.58 962.596 424.451 963.069 420.736 965.882C417.581 968.42 414.766 971.354 412.361 974.611C410.096 977.478 407.261 979.271 403.557 978.874Z" fill="white"/>
<path d="M831.829 929.343C831.582 936.859 834.148 942.572 835.512 948.595C836.875 954.619 835.061 959.332 829.982 962.382C821.489 967.536 812.803 972.324 804.214 977.285C802.227 978.434 801.229 978.219 800.896 975.61C799.94 968.33 798.749 961.083 797.675 953.824C797.512 953.272 797.535 952.682 797.74 952.144C797.946 951.607 798.323 951.152 798.813 950.85C809.464 943.892 820.147 936.913 831.829 929.343Z" fill="white"/>
<path d="M215.125 732.23C209.756 729.707 204.034 730.748 198.483 730.673C190.312 730.576 188.562 729.535 185.674 721.868C182.185 712.726 179.354 703.347 177.202 693.801C176.494 690.645 177.6 689.915 180.423 690.183C187.712 690.966 194.955 692.128 202.123 693.662C202.998 693.78 203.817 694.16 204.472 694.753C205.127 695.345 205.588 696.121 205.795 696.98C207.942 708.05 212.58 718.357 215.211 729.277C215.426 729.742 215.529 730.251 215.515 730.764C215.5 731.276 215.366 731.778 215.125 732.23Z" fill="white"/>
<path d="M997.875 509.1C1003.87 512.01 1009.55 512.643 1015.36 512.6C1020.93 512.6 1024.61 515.285 1026.35 520.632C1029.01 528.781 1029.77 537.274 1030.8 545.714C1031.29 549.633 1032.42 553.552 1031.61 558.019C1026.46 554.153 1020.57 553.327 1014.82 552.231C1008.62 551.061 1004.93 548.055 1003.91 541.398C1002.3 530.886 1000.03 520.471 997.875 509.1Z" fill="white"/>
<path d="M672.795 193.587C677.444 191.547 678.721 188.111 680.31 184.998C681.384 182.85 682.372 180.542 683.531 178.383C685.915 173.927 689.737 171.941 694.666 172.682C706.476 174.529 717.986 177.932 729.453 181.325C729.976 181.585 730.466 181.906 730.913 182.281C725.362 184.901 722.764 189.475 720.531 194.382C718.093 199.75 713.605 202.027 707.904 201.629C696.179 200.824 685.002 197.603 672.795 193.587Z" fill="white"/>
<path d="M1008.15 447.436C998.637 446.448 989.897 445.579 981.243 444.645C980.525 444.573 979.84 444.309 979.26 443.88C978.679 443.451 978.226 442.873 977.947 442.207C973.352 432.92 968.681 423.675 964.762 414.076C963.581 411.187 963.774 409.706 967.586 409.555C972.89 409.351 978.162 408.374 983.444 407.816C988.34 407.301 992.034 409.459 993.945 413.797C998.755 424.695 1003.23 435.733 1008.15 447.436Z" fill="white"/>
<path d="M439.45 970.091L441.909 970.725C452.195 973.505 461.998 977.693 472.047 981.183C473.98 981.859 474.732 982.557 472.874 984.296C468.45 988.452 464.821 993.305 460.967 997.965C457.939 1001.62 454.664 1003.02 449.65 1001.19C439.923 997.643 430.292 993.86 420.757 989.837C418.943 989.074 417.053 988.441 419.19 985.982C424.068 980.288 429.636 975.223 435.767 970.907C436.839 970.16 438.163 969.866 439.45 970.091V970.091Z" fill="white"/>
<path d="M930.855 351.854C928.396 352.176 926.657 350.962 925.197 349.266C918.347 341.288 911.539 333.278 904.668 325.333C903.304 323.744 903.229 322.82 905.366 321.918C910.262 319.846 915.029 317.559 919.936 315.476C925.401 313.092 930.05 314.402 933.894 318.783C940.905 326.632 946.885 335.286 953.295 343.607C954.143 344.681 954.605 345.68 952.866 346.131C945.554 348.02 938.403 350.715 930.855 351.854Z" fill="white"/>
<path d="M243.739 842.909C250.438 844.316 255.238 842.168 259.973 840.128C267.134 837.036 273.05 838.378 278.225 844.154C284.12 850.693 289.531 857.608 294.846 864.62C297.09 867.583 296.564 868.764 292.828 869.677C286.869 871.116 281.049 873.284 275.155 875.121C273.276 875.711 271.45 875.883 269.904 874.337C260.285 864.642 251.529 854.126 243.739 842.909V842.909Z" fill="white"/>
<path d="M1022.95 685.008C1021.67 693.928 1019.92 702.773 1017.71 711.507C1016.86 714.997 1015.78 718.443 1014.89 721.933C1014.39 723.93 1013.44 724.145 1011.81 723.007C1005.25 718.281 998.989 713.161 993.054 707.674C991.636 706.428 991.98 705.14 992.334 703.766C994.847 693.1 997.377 682.445 999.925 671.801C1000.27 670.373 1000.55 668.505 1002.59 670.19C1007.65 674.378 1013.92 676.514 1019.26 680.176C1021.06 681.421 1022.92 682.678 1022.95 685.008Z" fill="white"/>
<path d="M192.438 574.758C187.907 570.377 183.204 569.314 178.716 567.822C170.599 565.127 168.591 562.507 168.72 553.863C168.892 542.332 170.975 530.982 172.231 518.495C177.814 524.379 184.482 527.085 190.913 530.22C192.1 530.784 193.12 531.646 193.873 532.723C194.626 533.8 195.086 535.054 195.208 536.362C196.518 549.042 193.834 561.337 192.438 574.758Z" fill="white"/>
<path d="M206.428 485.994C206.503 490.192 205.354 494.24 204.41 498.298C202.66 504.99 201.341 511.786 200.458 518.645C200.34 519.816 200.297 521.147 199.063 521.577C197.527 522.114 197.388 520.503 196.679 519.665C193.834 516.444 189.84 514.952 186.125 513.084C177.17 508.563 175.925 506.158 177.814 496.301C179.575 487.089 182.41 478.166 184.868 469.136C185.545 466.656 186.586 465.539 188.906 467.783C192.459 471.241 196.765 473.603 201.049 475.997C204.925 478.166 206.901 481.419 206.428 485.994Z" fill="white"/>
<path d="M266.189 317.28C270.699 323.958 275.273 329.885 278.344 336.779C279.138 338.572 279.578 340.386 278.666 342.147C272.879 353.636 265.148 363.815 256.945 374.885C256.558 369.151 253.724 365.876 250.503 362.73C248.967 361.209 247.602 359.524 246.434 357.705C242.504 351.532 242.579 349.116 246.885 343.296C253.166 334.76 259.543 326.245 266.189 317.28Z" fill="white"/>
<path d="M919.087 300.551C912.925 303.826 907.277 307.273 900.835 309.141C898.606 309.807 896.251 309.936 893.963 309.516C891.675 309.096 889.519 308.139 887.671 306.725C880.252 301.357 873.939 294.85 867.712 288.225C865.51 285.874 865.972 284.639 868.914 283.178C874.186 280.559 879.189 277.38 884.311 274.438C886.845 272.978 889.067 273.268 891.461 275.072C901.447 282.545 909.832 291.693 919.087 300.551Z" fill="white"/>
<path d="M934.473 363.246C942.709 363.439 949.602 361.217 956.505 359.273C960.049 358.275 962.658 358.844 964.869 361.764C971.763 370.901 977.271 380.855 982.381 391.044C983.605 393.493 983.165 394.609 980.116 394.813C974.951 395.157 969.787 395.79 964.665 396.617C959.168 397.498 955.239 395.661 952.211 391.001C946.402 382.068 941.399 372.619 934.473 363.246Z" fill="white"/>
<path d="M775.6 227.893C781.376 222.148 786.466 216.64 792.253 211.787C794.776 209.693 797.074 209.307 800.112 210.842C809.699 215.513 819.019 220.714 828.028 226.422C831.861 228.923 831.7 229.407 828.2 232.069C824.077 235.226 820.051 238.512 816.099 241.883C814.908 243.034 813.392 243.792 811.756 244.055C810.121 244.318 808.444 244.073 806.952 243.354C796.236 239.113 786.251 233.347 775.6 227.893Z" fill="white"/>
<path d="M1024.15 502.056C1018.58 498.91 1013.57 498.61 1008.5 498.502C998.111 498.288 996.404 497.268 992.989 487.669C990.101 479.551 987.825 471.208 985.119 463.027C984.4 460.879 985.119 460.149 987.084 459.805C994.362 458.696 1001.79 459.036 1008.93 460.804C1009.66 460.882 1010.35 461.143 1010.94 461.561C1011.54 461.98 1012.02 462.544 1012.34 463.198C1017.13 475.874 1021.08 488.856 1024.15 502.056V502.056Z" fill="white"/>
<path d="M843.189 929.172C843.135 924.243 844.66 921.086 847.29 918.724C854.913 911.895 862.708 905.249 870.46 898.56C871.738 897.486 872.812 896.928 873.316 899.419C874.283 904.122 876.602 908.331 878.76 912.561C881.669 918.263 881.133 923.374 876.537 927.958C869.15 935.324 860.733 941.401 852.358 947.543C850.082 949.207 848.514 949.261 848.428 945.642C848.332 941.852 846.871 938.352 845.293 934.905C844.273 932.715 843.178 930.492 843.189 929.172Z" fill="white"/>
<path d="M920.838 881.864C921.009 885.911 919.002 889.079 916.597 891.999C910.487 899.387 902.821 905.185 895.703 911.423C894.296 912.658 893.555 912.325 892.857 910.747C890.474 905.378 887.693 900.117 885.9 894.469C885.312 892.677 885.185 890.766 885.53 888.912C885.875 887.058 886.682 885.321 887.875 883.861C894.178 875.378 901.629 867.927 909.113 860.518C910.272 859.358 911.507 858.37 911.872 861.141C912.431 865.307 914.879 868.56 917.123 871.878C919.13 874.938 920.956 878.041 920.838 881.864Z" fill="white"/>
<path d="M368.286 260.233C368.78 253.383 366.139 248.036 364.604 242.409C362.66 235.087 363.229 233.326 369.199 228.741C377.584 222.374 386.872 217.413 395.848 211.959C397.802 210.767 398.736 211.153 398.951 213.365C399.681 220.806 401.195 228.172 401.098 235.688C401.188 236.537 401.068 237.396 400.748 238.188C400.427 238.98 399.917 239.681 399.262 240.23C389.663 247.638 378.862 253.071 368.286 260.233Z" fill="white"/>
<path d="M237.705 780.902C231.874 779.269 227.225 780.311 222.576 781.234C212.043 783.382 209.091 782.061 204.431 772.376C201.21 765.644 198.279 758.729 195.509 751.793C192.943 745.351 193.909 743.966 200.662 743.976C206.428 743.976 212.183 744.341 217.938 744.524C219.291 744.524 220.461 744.749 221.159 746.145C226.86 757.29 232.229 768.564 237.705 780.902Z" fill="white"/>
<path d="M232.24 419.477C226.152 413.453 220.128 407.902 215.114 401.341C213.643 399.409 213.933 397.734 214.878 395.758C220.311 384.42 227.011 373.811 233.582 362.269C237.189 368.775 241.978 373.672 246.466 378.868C249.3 382.176 248.259 386.299 246.906 390.035C243.17 400.257 237.34 409.427 232.24 419.477Z" fill="white"/>
<path d="M463.533 208.34C464.166 200.717 464.693 194.382 465.197 188.079C465.466 184.729 466.937 182.807 470.415 181.766C480.755 178.652 491.052 175.452 501.552 172.993C504.634 172.274 506.534 172.349 504.698 176.376C502.358 181.519 503.109 187.113 502.551 192.567C502.121 196.862 500.468 199.632 496.023 200.996C486.682 203.884 477.448 207.148 468.225 210.391C464.832 211.561 462.867 211.357 463.533 208.34Z" fill="white"/>
<path d="M513.642 197.281C516.766 192.084 516.949 186.919 517.024 181.723C517.142 173.305 519.472 170.298 527.568 168.409C537.961 165.971 548.612 165.187 559.123 163.523C561.357 163.169 561.829 164.06 560.906 165.864C558.733 170.425 557.498 175.376 557.277 180.423C556.847 186.028 552.842 188.895 547.936 190.602C540.549 193.169 532.754 193.824 525.13 195.23C521.491 195.885 517.84 196.529 513.642 197.281Z" fill="white"/>
<path d="M1007.2 614.582C1012.26 619.296 1017.67 621.347 1023.68 622.786C1029.68 624.224 1031.31 629.979 1031.26 635.52C1031.16 645.6 1029.79 655.628 1027.2 665.369C1026.6 667.667 1025.92 669.106 1023.28 666.883C1019.73 663.888 1015.32 662.309 1011.1 660.441C1006.22 658.293 1003.8 654.782 1003.98 649.306C1004.36 637.968 1006.08 626.737 1007.2 614.582Z" fill="white"/>
<path d="M450.906 199.75C450.971 215.191 451.003 215.255 437.292 221.869C430.947 224.929 424.462 227.721 417.966 230.523C415.818 231.447 414.272 231.49 414.53 228.097C414.841 224.07 413.639 220.119 412.769 216.178C411.169 208.899 412.093 206.676 418.352 202.972C426.869 197.825 435.818 193.431 445.098 189.84C449.725 188.079 450.048 188.305 450.67 193.308C450.756 194.017 450.842 194.736 450.864 195.456C450.906 196.841 450.896 198.29 450.906 199.75Z" fill="white"/>
<path d="M343.656 915.986C346.126 915.884 348.57 916.52 350.678 917.812C359.199 922.665 367.257 928.289 374.75 934.615C376.897 936.376 378.078 937.837 374.084 939.082C370.702 940.102 368.469 943.012 365.978 945.406C360.083 951.086 356.014 951.795 348.938 947.725C340.145 942.679 332.35 936.258 324.802 929.472C322.966 927.829 322.15 926.434 325.446 925.295C329.43 923.921 332.704 921.215 336.183 918.853C338.384 917.285 340.746 915.922 343.656 915.986Z" fill="white"/>
<path d="M312.798 915.31C310.576 915.374 307.934 913.86 305.551 911.992C297.58 905.582 290.249 898.415 283.658 890.593C281.887 888.553 281.447 887.372 284.818 886.298C290.133 884.569 295.233 882.196 300.386 880.017C301.62 879.427 302.996 879.201 304.354 879.365C305.711 879.528 306.994 880.075 308.053 880.94C316.788 887.296 324.915 894.449 332.329 902.307C334.175 904.294 334.701 905.442 331.491 906.785C327.937 908.266 324.748 910.596 321.398 912.55C318.854 914.272 315.869 915.229 312.798 915.31V915.31Z" fill="white"/>
<path d="M571.846 1049.22C565.05 1055.27 558.812 1060.81 552.585 1066.4C551.986 1067.03 551.211 1067.45 550.365 1067.62C549.519 1067.79 548.641 1067.69 547.85 1067.35C541.681 1065.2 535.07 1064.65 528.631 1065.74C527.348 1066.01 526.016 1065.9 524.79 1065.44C523.565 1064.98 522.498 1064.17 521.716 1063.12C518.066 1058.28 514.587 1053.32 510.979 1048.47C509.659 1046.73 510.238 1045.96 512.053 1045.46C513.526 1044.87 515.06 1044.45 516.627 1044.2C533.956 1043.57 551.264 1043.46 568.228 1048.01C569.141 1048.25 570.075 1048.62 571.846 1049.22Z" fill="white"/>
<path d="M493.747 1092.86C500.189 1092.46 505.31 1092.24 510.292 1090.9C514.094 1090.03 517.741 1088.58 521.104 1086.6C529.232 1081.39 537.671 1083.28 546.121 1085.4C548.15 1085.91 548.655 1087.43 548.14 1089.47C546.841 1095.27 543.991 1100.62 539.894 1104.93C538.436 1106.45 536.633 1107.6 534.638 1108.29C532.642 1108.97 530.512 1109.16 528.427 1108.85C515.639 1107.27 505.063 1100.83 493.747 1092.86Z" fill="white"/>
<path d="M435.478 1092.92C441.154 1083.87 448.631 1076.08 457.445 1070.04C460.548 1067.9 462.384 1068.65 463.962 1071.64C464.961 1073.54 465.992 1075.44 466.98 1077.37C468.852 1080.76 471.007 1083.99 473.422 1087.03C475.193 1089.38 479.391 1090.94 478.683 1093.68C478.06 1096.08 474.474 1097.73 472.176 1099.69C465.798 1105.06 465.594 1105.34 459.12 1099.97C452.184 1094.29 444.754 1091.12 435.478 1092.92Z" fill="white"/>
<path d="M551.253 1112.85C553.401 1110.03 555.151 1107.95 556.697 1105.72C560.992 1099.57 563.225 1092.89 561.292 1085.32C560.766 1083.24 561.12 1082.1 563.44 1082.57C574.983 1084.98 586.339 1088.21 597.422 1092.24C599.354 1092.94 598.979 1094.01 597.669 1094.99C584.108 1105.14 570.086 1114.01 551.253 1112.85Z" fill="white"/>
<path d="M651.342 1031.98C643.622 1032.64 638.018 1031.98 632.402 1031.62C629.461 1031.42 628.602 1029.99 630.889 1027.9C642.098 1017.69 654.316 1009.24 669.541 1006.21C672.322 1005.65 672.956 1006.67 672.601 1009.09C671.761 1015.23 670.274 1021.27 668.167 1027.09C667.86 1028.04 667.296 1028.88 666.537 1029.53C665.779 1030.17 664.856 1030.6 663.872 1030.75C659.094 1031.78 654.112 1031.57 651.342 1031.98Z" fill="white"/>
<path d="M745.483 1108.12C749.809 1108.44 754.001 1109.77 757.723 1111.99C759.667 1113.07 759.398 1114.25 757.938 1115.67C752.884 1120.58 747.631 1125.27 742.176 1129.73C740.512 1131.1 739.202 1131.12 737.753 1129.58C734.596 1126.24 731.31 1122.97 728.25 1119.59C727.349 1118.6 726.103 1117.37 727.95 1116.03C733.214 1112.26 739.173 1109.57 745.483 1108.12V1108.12Z" fill="white"/>
<path d="M435.188 1105.18C442.897 1105 448.405 1108.4 453.279 1113.19C454.493 1114.4 454.439 1115.26 453.279 1116.41C450.058 1119.53 446.945 1122.69 443.842 1125.89C442.349 1127.43 441.018 1127.49 439.45 1126.01C434.211 1121.07 428.946 1116.16 423.656 1111.3C422.078 1109.85 422.529 1108.97 424.225 1108.16C427.887 1106.41 431.559 1104.77 435.188 1105.18Z" fill="white"/>
<path d="M425.031 1145.7C423.889 1148.72 422.075 1151.44 419.727 1153.65C418.739 1154.64 417.901 1153.89 417.139 1153.21C410.364 1147.14 405.06 1139.75 399.198 1132.88C398.285 1131.8 398.693 1131.16 399.627 1130.44C401.678 1128.88 403.729 1127.31 405.726 1125.66C405.902 1125.44 406.128 1125.27 406.384 1125.15C406.641 1125.04 406.921 1124.98 407.202 1125C407.484 1125.01 407.758 1125.09 408.003 1125.22C408.248 1125.36 408.458 1125.56 408.614 1125.79C413.542 1130.82 418.567 1135.74 423.506 1140.76C424.173 1141.38 424.665 1142.16 424.932 1143.02C425.2 1143.89 425.234 1144.81 425.031 1145.7V1145.7Z" fill="white"/>
<path d="M765.078 1124.22C760.657 1130.63 754.93 1136.02 748.275 1140.05C752.72 1133.53 757.959 1127.9 765.078 1124.22Z" fill="white"/>
<path d="M432.375 1135.36C426.025 1131.04 420.531 1125.58 416.173 1119.25C422.576 1123.51 428.08 1128.98 432.375 1135.36V1135.36Z" fill="white"/>
<path d="M266.469 544.619C265.11 545.065 263.885 545.844 262.904 546.884C261.456 548.461 260.645 550.52 260.628 552.661C260.349 557.729 263.237 560.51 266.748 560.703C268.391 560.789 271.279 560.37 273.684 555.163L276.185 549.794C280.813 539.959 286.686 537.489 292.903 537.822C303.285 538.38 309.996 546.111 309.448 556.333C309.115 562.625 306.539 566.265 303.285 568.874C300.219 571.396 296.389 572.807 292.42 572.879L291.056 564.525C293.552 564.671 296.029 564.02 298.132 562.668C299.243 561.881 300.153 560.842 300.787 559.637C301.421 558.432 301.762 557.094 301.782 555.732C301.88 554.53 301.728 553.32 301.337 552.179C300.946 551.039 300.324 549.99 299.51 549.101C298.696 548.211 297.707 547.499 296.606 547.008C295.504 546.518 294.313 546.26 293.107 546.251C287.545 545.95 285.033 550.073 283.368 553.595L280.877 558.663C278.73 563.065 274.639 569.486 266.469 569.046C259.114 568.649 252.393 562.55 252.929 552.328C253.252 546.444 255.635 543.212 257.224 541.591C258.857 539.95 260.784 538.632 262.904 537.704L266.469 544.619Z" fill="white"/>
<path d="M278.558 478.488C271.912 483.213 270.141 488.581 269.475 491.663C266.941 503.259 273.77 512.965 285.58 515.542C296.854 518.001 307.365 511.752 309.846 500.403C310.889 494.961 309.814 489.326 306.839 484.651L316.502 486.799C318.135 491.806 318.409 497.156 317.297 502.303C315.886 509.345 311.759 515.548 305.809 519.569C302.65 521.811 299.042 523.341 295.235 524.053C291.427 524.764 287.51 524.641 283.755 523.692C273.92 521.544 268.015 515.983 264.761 510.571C260.767 503.925 260.402 497.139 262.013 489.784C262.956 484.728 265.378 480.064 268.97 476.384L278.558 478.488Z" fill="white"/>
<path d="M318.521 418.059C333.177 424.566 339.522 440.607 332.876 455.511C326.23 470.414 310.146 476.491 295.458 469.984C280.77 463.478 274.457 447.49 281.157 432.522C287.856 417.555 303.854 411.542 318.521 418.059ZM315.128 425.693C304.058 420.776 292.881 424.953 288.136 435.647C283.39 446.341 287.771 457.433 298.872 462.35C309.974 467.268 321.108 463.091 325.865 452.397C330.621 441.703 326.251 430.6 315.128 425.693Z" fill="white"/>
<path d="M308.933 381.596L336.044 400.246C338.47 401.91 341.487 403.886 344.773 404.165C346.807 404.27 348.834 403.852 350.661 402.952C352.488 402.051 354.055 400.699 355.212 399.022C356.369 397.345 357.077 395.401 357.27 393.373C357.463 391.345 357.134 389.302 356.315 387.437C354.887 384.463 352.02 382.358 349.54 380.683L322.386 362.033L327.121 355.15L356.046 375.057C360.44 377.842 363.59 382.215 364.84 387.265C365.386 390.035 365.373 392.886 364.801 395.65C364.229 398.414 363.109 401.036 361.508 403.362C359.908 405.687 357.858 407.668 355.48 409.189C353.101 410.71 350.443 411.74 347.661 412.218C342.501 412.856 337.294 411.479 333.123 408.374L304.198 388.468L308.933 381.596Z" fill="white"/>
<path d="M358.312 332.033L392.272 364.158L386.528 370.225L352.568 338.099L343.978 347.204L338.266 341.836L361.211 317.57L366.923 322.938L358.312 332.033Z" fill="white"/>
<path d="M399.681 300.916C398.44 300.204 397.042 299.81 395.612 299.767C393.472 299.75 391.399 300.514 389.782 301.915C385.82 305.136 385.68 309.098 387.881 311.836C388.901 313.114 391.102 314.993 396.621 313.329L402.29 311.621C412.705 308.508 418.46 311.235 422.357 316.088C428.864 324.205 427.565 334.341 419.587 340.784C414.67 344.724 410.246 345.229 406.134 344.542C402.205 343.936 398.596 342.021 395.891 339.109L401.259 332.537C402.831 334.486 404.982 335.885 407.401 336.532C408.729 336.839 410.11 336.826 411.432 336.494C412.754 336.161 413.978 335.519 415.002 334.62C415.964 333.893 416.764 332.975 417.355 331.924C417.945 330.873 418.312 329.712 418.433 328.513C418.554 327.313 418.426 326.102 418.057 324.955C417.689 323.807 417.087 322.748 416.291 321.843C412.812 317.548 408.056 318.375 404.319 319.481L398.811 321.081C394.119 322.434 386.593 323.647 381.471 317.258C376.854 311.514 376.919 302.43 384.907 296.031C389.502 292.337 393.496 291.962 395.762 292.037C398.083 292.149 400.363 292.696 402.483 293.647L399.681 300.916Z" fill="white"/>
<path d="M452.828 254.306L468.934 285.809C470.909 289.664 472.735 293.604 472.767 297.813C472.87 300.497 472.178 303.152 470.778 305.444C469.377 307.737 467.332 309.564 464.897 310.698C461.865 312.295 458.428 312.96 455.019 312.609L455.47 304.47C457.503 304.944 459.639 304.642 461.461 303.622C462.56 303.149 463.471 302.327 464.054 301.282C464.637 300.237 464.857 299.029 464.682 297.846C464.564 296.525 464.038 294.624 461.461 289.632L445.431 258.096L452.828 254.306Z" fill="white"/>
<path d="M516.466 273.837L494.391 281.353L492.995 295.752L484.47 298.662L491.503 235.183L534.665 281.504L526.15 284.424L516.466 273.837ZM510.743 267.395L497.096 252.545L495.099 272.763L510.743 267.395Z" fill="white"/>
<path d="M541.987 279.99L534.096 222.299L578.976 258.064L573.854 220.591L582.122 219.453L589.97 276.886L545.101 241.067L550.265 278.862L541.987 279.99Z" fill="white"/>
<path d="M641.035 221.117C648.025 221.955 652.309 223.383 655.487 227.141C656.767 228.693 657.699 230.502 658.219 232.445C658.74 234.388 658.837 236.42 658.504 238.404C658.31 240.663 657.475 242.82 656.099 244.621C654.97 246.141 653.393 247.268 651.589 247.842C654.153 248.801 656.407 250.442 658.106 252.588C659.175 254.112 659.932 255.831 660.336 257.648C660.739 259.464 660.781 261.342 660.458 263.175C660.338 264.969 659.856 266.719 659.04 268.321C658.224 269.923 657.092 271.343 655.712 272.495C650.859 276.554 644.063 276.468 639.875 275.985L626.304 274.353L632.832 220.151L641.035 221.117ZM635.538 267.534L640.573 268.136C642.935 268.426 646.715 268.469 649.034 267.062C649.984 266.421 650.781 265.579 651.369 264.595C651.957 263.612 652.322 262.511 652.437 261.371C652.731 259.265 652.192 257.127 650.934 255.412C648.916 252.943 645.619 252.298 642.688 251.944L637.492 251.289L635.538 267.534ZM638.308 244.449L640.831 244.761C642.86 244.997 645.652 245.094 647.831 243.451C650.011 241.808 650.462 239.403 650.687 237.535C650.867 236.587 650.842 235.612 650.615 234.675C650.387 233.738 649.961 232.861 649.367 232.102C647.713 230.083 645.383 229.557 643.021 229.267L640.176 228.934L638.308 244.449Z" fill="white"/>
<path d="M712.016 243.773L691.015 237.975L687.354 251.289L707.754 256.872L705.671 264.453L685.271 258.869L680.729 275.448L701.73 281.203L699.669 288.869L670.604 280.902L685.035 228.236L714.088 236.203L712.016 243.773Z" fill="white"/>
<path d="M742.466 246.994C748.522 249.689 752.129 252.169 754.341 255.766C758.174 261.854 755.994 267.964 755.028 270.133C753.699 273.449 751.233 276.183 748.071 277.846C744.909 279.508 741.259 279.99 737.774 279.206L743.873 307.445L734.671 303.354L729.453 276.586L728.1 275.985L719.027 296.385L711.404 293.003L733.565 243.096L742.466 246.994ZM731.031 269.36L733.415 270.433C735.562 271.368 744.152 274.922 747.663 266.998C750.787 259.965 744.442 256.335 740.684 254.671L738.075 253.512L731.031 269.36Z" fill="white"/>
<path d="M809.077 298.919C806.984 291.027 802.56 287.473 799.951 285.777C789.998 279.335 778.477 282.298 771.949 292.391C765.668 302.054 767.805 314.102 777.565 320.426C782.283 323.32 787.93 324.3 793.348 323.164L787.98 331.474C782.718 331.231 777.613 329.601 773.184 326.75C767.101 322.942 762.759 316.895 761.094 309.914C760.096 306.169 759.922 302.251 760.586 298.432C761.249 294.613 762.734 290.984 764.938 287.795C770.425 279.356 777.715 275.791 783.921 274.642C791.555 273.257 798.029 275.308 804.321 279.41C808.723 282.068 812.233 285.978 814.403 290.641L809.077 298.919Z" fill="white"/>
<path d="M823.766 322.745L840.826 338.786L855.633 323.046L861.71 328.758L824.302 368.55L818.225 362.827L835.404 344.509L818.354 328.479L801.175 346.732L795.098 341.009L832.495 301.228L838.582 306.951L823.766 322.745Z" fill="white"/>
<path d="M832.709 376.71L887.414 352.562L863.492 392.387L909.231 383.861L866.971 425.876L862.107 418.897L885.921 395.511L847.762 402.748L867.926 369.538L837.584 383.7L832.709 376.71Z" fill="white"/>
<path d="M896.454 460.987L887.328 439.512L872.855 439.19L869.333 430.912L933.153 433.306L890.087 479.723L886.565 471.402L896.454 460.987ZM902.37 454.823L916.221 440.124L895.896 439.609L902.37 454.823Z" fill="white"/>
<path d="M892.084 486.906L949.097 474.827L916.779 522.189L953.778 514.35L955.507 522.521L898.816 534.526L931.199 487.164L893.834 495.024L892.084 486.906Z" fill="white"/>
<path d="M946.134 570.12C947.45 569.558 948.605 568.675 949.494 567.553C950.803 565.859 951.438 563.74 951.277 561.605C951.105 556.526 948.055 554.014 944.48 554.089C942.848 554.089 939.992 554.808 938.038 560.198L936.009 565.749C932.24 575.939 926.603 578.903 920.387 579.107C909.993 579.439 902.639 572.299 902.306 562.077C902.102 555.775 904.356 551.931 907.384 549.053C910.227 546.278 913.923 544.545 917.874 544.135L919.936 552.339C917.433 552.425 915.023 553.305 913.053 554.851C912.012 555.731 911.193 556.843 910.663 558.099C910.133 559.355 909.907 560.718 910.004 562.077C910.011 563.284 910.266 564.476 910.754 565.579C911.241 566.682 911.951 567.673 912.838 568.49C913.726 569.307 914.772 569.933 915.912 570.328C917.052 570.722 918.261 570.878 919.463 570.785C925.025 570.603 927.183 566.276 928.536 562.625L930.576 557.321C932.315 552.757 935.869 546.015 944.051 545.746C951.416 545.51 958.631 551.018 958.964 561.24C959.147 567.135 957.042 570.56 955.625 572.321C954.126 574.096 952.304 575.571 950.257 576.669L946.134 570.12Z" fill="white"/>
<path d="M602.629 797.448C603.102 799.004 603.585 800.218 603.821 801.463C604.368 804.362 602.94 805.694 600.149 804.62C595.102 802.763 589.809 801.66 584.441 801.345C583.91 801.252 583.365 801.268 582.84 801.394C582.316 801.52 581.823 801.751 581.392 802.075C577.247 805.361 574.316 804.384 570.44 800.218C568.497 798.07 566.768 798.07 564.846 800.314C563.332 802.065 563.139 804.287 562.699 806.359C562.13 808.915 560.551 810.171 558.307 809.527C556.278 808.947 556.729 806.735 557.04 805.007C557.189 804.391 557.375 803.785 557.599 803.192C559.134 798.554 559.134 798.564 554.71 796.127C553.465 795.45 552.273 794.645 550.974 794.065C547.753 792.648 545.788 793.282 544.349 796.449C543.04 799.294 542.342 799.52 540.173 796.868C536.447 792.315 530.821 790.425 525.646 787.902C524.669 787.43 523.649 787.043 522.65 786.603C521.652 786.163 520.718 785.991 521.963 784.219C523.38 782.19 521.491 780.214 519.676 779.119C518.151 778.196 516.101 777.992 515.027 779.796C513.792 781.889 512.676 781.009 511.377 780.15C505.557 776.252 501.026 770.97 496.688 765.601C495.849 764.348 494.751 763.29 493.467 762.498C485.286 758.203 484.878 749.388 487.605 742.892C489.548 738.167 488.754 736.009 484.277 733.336C481.571 731.725 478.908 729.954 476.321 728.203C475.653 727.804 475.09 727.252 474.678 726.593C470.725 719.673 468.701 711.82 468.816 703.851C468.816 702.305 470.276 702.005 471.414 701.779C477.226 700.749 483.163 700.629 489.012 701.425C492.641 701.854 495.507 701.854 498.235 698.204C503.603 690.956 509.959 684.406 515.865 677.535C519.213 673.669 521.352 668.905 522.017 663.834C522.758 658.616 526.086 654.557 529.329 650.573C530.126 649.413 531.036 648.334 532.045 647.352C534.976 644.904 536.683 642.714 534.332 638.505C532.292 634.854 535.191 631.88 539.572 632.331C540.538 632.438 541.934 633.158 542.181 631.579C542.233 631.048 542.098 630.516 541.8 630.073C541.503 629.63 541.06 629.305 540.549 629.153C539.142 628.605 537.886 627.628 536.447 627.145C528.931 624.643 526.966 618.555 527.213 611.705C527.374 607.227 527.213 602.578 528.878 598.219C529.779 595.803 530.424 593.258 531.54 590.96C533.033 587.922 534.01 584.991 532.711 581.619C532.528 580.98 532.517 580.304 532.679 579.659C532.841 579.014 533.171 578.424 533.634 577.947C536.651 574.296 540.162 571.505 545.251 571.601C545.84 571.638 546.429 571.553 546.984 571.351C547.538 571.15 548.045 570.837 548.472 570.431C552.112 567.21 553.433 567.113 557.137 570.163C559.177 571.848 559.778 571.376 560.487 569.089C562.173 563.634 564.17 561.691 567.359 562.206C569.678 562.582 572.061 562.829 574.327 563.344C582.025 565.095 589.552 564.418 597.239 563.205C602.2 562.453 607.364 561.916 611.562 559.522C616.222 556.87 618.724 557.686 622.471 561.154C627.786 566.082 634.421 569.454 640.638 573.255C641.003 573.48 641.4 573.953 641.711 573.899C645.501 573.394 647.896 574.973 649.227 578.538C649.528 579.321 650.462 579.354 651.203 578.795C652.018 578.146 652.689 577.333 653.174 576.41C653.659 575.487 653.946 574.473 654.018 573.433C654.089 572.393 653.944 571.35 653.591 570.369C653.237 569.388 652.684 568.491 651.965 567.736C651.128 566.915 650.53 565.881 650.237 564.746C649.944 563.611 649.966 562.417 650.301 561.294C650.795 558.953 651.321 557.213 654.445 556.87C657.001 556.591 656.002 553.455 656.593 551.641C656.705 551.32 656.739 550.976 656.693 550.639C656.646 550.302 656.52 549.98 656.325 549.701C656.13 549.422 655.872 549.194 655.571 549.034C655.27 548.875 654.936 548.789 654.596 548.785C646.768 548.302 643.053 543.073 640.294 536.716C636.311 527.504 633.852 518.13 637.674 508.187C639.038 504.655 641.325 501.584 642.323 497.847C644.716 489.104 644.804 479.889 642.581 471.101C640.863 464.358 641.582 458.506 646.242 453.213C650.29 448.596 650.537 443.238 649.109 437.569C647.939 432.887 646.564 428.227 645.791 423.471C645.314 420.555 645.475 417.569 646.265 414.722C647.055 411.874 648.454 409.232 650.365 406.978C652.802 403.908 655.605 401.116 658.246 398.195C664.108 391.753 669.563 393.793 673.815 398.668C679.867 405.31 683.094 414.049 682.812 423.031C682.584 425.96 681.892 428.834 680.761 431.545C678.82 436.457 678.732 441.907 680.514 446.878C684.895 458.549 683.134 469.984 679.548 481.419C676.971 489.623 677.508 498.008 678.474 506.373C679.058 512.369 678.534 518.422 676.928 524.229C675.275 530.768 673.256 537.049 669.477 542.686C669.294 542.954 669.241 543.384 668.994 543.534C665.214 545.875 664.269 549.397 664.076 553.638C663.883 557.879 661.564 561.562 659.674 565.32C659.008 566.641 658.203 568.165 659.277 569.926C662.122 574.608 663.174 579.944 663.98 585.227C664.624 589.522 665.826 593.72 665.472 598.111C665.322 600.001 664.828 601.096 662.777 601.494C660.05 602.02 657.827 605.789 658.482 608.419C658.826 609.858 659.76 610.91 661.338 610.18C662.362 609.775 663.459 609.585 664.559 609.622C669.692 609.611 674.638 607.699 678.442 604.253C683.886 599.454 690.102 601.214 695.782 604.833C697.715 606.078 699.551 607.474 702.085 606.98C706.283 606.154 709.332 608.054 711.64 611.275C712.026 611.857 712.562 612.322 713.192 612.621C713.822 612.92 714.522 613.041 715.216 612.972C717.718 612.907 718.705 611.511 717.363 609.386C716.941 608.915 716.708 608.305 716.708 607.673C716.708 607.041 716.941 606.431 717.363 605.96C717.873 605.33 718.182 604.562 718.251 603.754C718.32 602.946 718.145 602.137 717.75 601.429C717.214 600.545 716.959 599.519 717.021 598.487C717.082 597.455 717.456 596.467 718.093 595.653C719.231 595.803 719.167 596.941 719.607 597.596C720.509 598.788 721.078 598.82 721.486 597.252C723.805 588.437 729.861 582.467 736.915 577.26C734.521 575.349 734.081 575.295 731.804 577.571C730.847 578.447 729.711 579.107 728.476 579.504C728.369 579.203 728.089 578.817 728.186 578.623C728.713 577.51 729.63 576.628 730.763 576.143C736.035 573.996 736.013 568.799 737.334 564.483C739.502 556.94 741.117 549.25 742.165 541.473C742.659 538.252 744.023 538.176 746.353 539.454C747.308 539.969 748.232 540.528 749.391 541.226C750.918 535.872 751.911 530.38 752.355 524.83C752.804 520.192 752.034 515.518 750.121 511.269C748.307 507.028 750.293 503.463 752.537 500.306C754.851 497.193 757.62 494.446 760.751 492.157C761.869 491.221 763.214 490.596 764.65 490.346C766.086 490.095 767.563 490.227 768.932 490.729C773.077 491.953 777.296 492.962 781.376 494.379C783.459 495.099 784.157 497.6 785.779 498.986C786.498 499.619 786.852 500.736 787.625 501.23C794.067 505.406 793.541 511.301 791.995 517.658C790.095 525.463 785.714 531.82 780.797 537.886C777.25 542.322 773.184 546.316 768.685 549.783C766.366 551.555 766.807 555.313 765.561 558.051C762.104 565.631 759.538 573.695 753.289 579.697C749.821 583.015 746.385 583.595 742.004 581.458C741.059 580.996 740.319 580.631 739.427 581.641C739.198 581.837 739.012 582.078 738.879 582.349C738.746 582.62 738.67 582.915 738.655 583.217C738.64 583.518 738.686 583.819 738.791 584.102C738.896 584.385 739.058 584.643 739.266 584.862C744.431 590.853 742.004 597.21 737.999 601.955C734.405 606.223 730.158 609.894 725.416 612.832C721.336 615.366 718.018 618.619 718.394 624.063C718.523 626.459 719.479 628.736 721.1 630.506C722.785 632.363 723.891 634.403 722.657 637.002C722.345 637.657 721.819 638.365 722.388 639.149C723.773 641.103 723.58 643.369 723.376 645.505C723.036 650.157 722.223 654.762 720.949 659.249C719.75 662.834 719.645 666.696 720.649 670.341C720.962 671.57 720.795 672.872 720.183 673.983C719.571 675.093 718.559 675.929 717.353 676.321C712.102 678.522 708.452 682.871 703.835 685.92C700.914 687.853 697.736 689.141 694.73 690.892C693.109 691.804 692.84 692.223 693.989 693.715C696.641 697.162 697.586 701.328 698.627 705.441C698.703 705.65 698.721 705.876 698.681 706.095C696.405 712.291 698.853 718.776 697.607 725.025C697.513 725.891 697.223 726.725 696.759 727.463C694.268 730.555 695.685 732.949 698.069 735.086C699.916 736.782 701.483 738.21 700.56 741.217C699.873 743.439 700.85 745.802 701.634 748.056C704.619 757.108 702.643 765.665 698.144 773.59C694.605 780.157 691.686 787.041 689.426 794.151C688.36 797.093 687.492 800.102 686.828 803.16C685.829 808.11 682.329 810.354 677.315 809.097C676.12 808.732 674.846 808.71 673.639 809.033C672.432 809.355 671.34 810.01 670.486 810.923C668.736 812.566 666.836 814.026 665.032 815.615C662.573 817.762 660.05 819.341 656.786 817.064C656.088 816.571 655.165 815.894 654.445 815.991C644.879 817.397 638.458 810.622 630.824 807.025C625.842 804.727 621.043 802.022 615.717 800.518C614.461 800.164 613.291 799.831 612.078 800.798C610.145 802.344 608.481 801.474 606.988 799.96C605.807 798.972 604.83 797.748 602.629 797.448ZM658.214 622.206C654.767 620.005 654.499 618.512 656.979 615.398C657.892 614.239 658.729 613.358 656.485 612.607C654.241 611.855 654.553 609.879 655.014 608.14C655.25 607.249 655.648 606.444 654.81 605.756C653.973 605.069 653.189 605.466 652.384 605.917C649.123 607.693 646.248 610.098 643.923 612.993C640.917 616.74 640.122 620.907 640.38 625.577C640.605 629.657 639.199 630.484 635.387 629.002C634.99 628.852 634.614 628.541 634.249 629.002C632.317 631.279 630.073 630.012 628.065 629.357C625.856 628.729 623.828 627.584 622.149 626.017C621.983 625.802 621.772 625.626 621.531 625.5C621.29 625.374 621.024 625.302 620.753 625.289C620.481 625.275 620.21 625.321 619.958 625.423C619.706 625.525 619.479 625.68 619.293 625.878C618.359 626.952 619.701 627.381 620.216 627.875C622.363 629.915 624.178 632.266 627.098 633.308C628.269 633.727 629.407 634.468 628.913 635.96C628.419 637.453 627.088 637.603 625.692 637.549C618.82 637.281 611.916 636.722 605.496 640.083C605.143 640.253 604.75 640.322 604.36 640.284C603.97 640.246 603.598 640.103 603.284 639.868C601.362 638.419 599.913 639.45 598.85 640.942C597.261 643.09 594.984 644.292 592.848 645.634C586.943 649.371 585.15 649.07 580.662 643.798C580.384 643.346 579.967 642.996 579.473 642.802C578.979 642.608 578.435 642.581 577.924 642.725C574.703 643.1 573.951 644.646 573.919 647.47C573.867 648.886 573.5 650.273 572.845 651.529C571.632 653.913 572.609 655.641 574.123 657.338C575.948 659.378 577.687 661.504 579.641 663.415C580.208 663.849 580.618 664.455 580.812 665.142C581.005 665.829 580.971 666.561 580.715 667.227C579.341 670.631 580.715 672.799 583.517 674.614C587.275 677.073 587.404 679.575 583.668 681.851C582.606 682.411 581.77 683.321 581.3 684.426C580.831 685.531 580.757 686.764 581.091 687.917C581.626 690.269 582.683 692.471 584.183 694.36C586.331 697.42 586.041 698.268 582.347 699.03C580.307 699.449 580.823 700.244 581.349 701.468C581.778 702.466 582.702 702.821 583.378 703.497C585.955 706.042 588.843 708.608 588.156 712.645C587.823 714.664 588.156 715.866 589.616 717.144C591.076 718.422 592.118 719.742 590.024 721.439C588.95 722.276 589.573 723.114 590.228 723.994C591.796 726.088 593.352 728.289 593.546 730.974C593.756 733.637 594.758 736.176 596.423 738.264C598.86 741.485 600.492 745.157 602.35 748.701C602.747 749.442 603.252 749.989 604.154 749.774C605.056 749.56 604.723 748.701 604.766 748.121C604.814 747.463 604.814 746.803 604.766 746.145C604.132 739.316 607.697 734.635 613.119 731.543C617.414 729.138 622.202 727.774 626.766 725.895C627.779 725.445 628.879 725.225 629.987 725.251C630.354 725.307 630.73 725.249 631.063 725.086C631.397 724.923 631.673 724.662 631.855 724.338C633.638 721.988 635.249 719.512 636.676 716.929C637.578 715.061 637.545 712.774 639.113 711.217C639.57 710.812 639.899 710.282 640.061 709.694C640.223 709.105 640.211 708.481 640.026 707.899C638.78 701.242 640.766 698.526 647.541 696.647C648.179 696.495 648.764 696.172 649.231 695.712C649.698 695.252 650.031 694.673 650.193 694.038C651.267 689.474 655.122 686.403 656.636 682.033C656.959 681.331 657.434 680.709 658.026 680.212C658.618 679.714 659.313 679.354 660.061 679.156C663.776 677.728 665.612 671.232 662.992 668.161C661.252 666.121 659.878 663.587 658.16 661.869C653.533 657.252 650.065 651.293 643.859 648.329C643.118 647.975 642.087 647.546 643.3 646.515C645.05 645.012 650.666 645.441 652.298 647.03C653.498 648.145 654.756 649.195 656.066 650.176C656.7 650.681 657.376 651.057 658.096 650.337C658.263 650.19 658.396 650.009 658.488 649.806C658.579 649.604 658.626 649.384 658.626 649.161C658.626 648.939 658.579 648.719 658.488 648.516C658.396 648.314 658.263 648.133 658.096 647.986C656.711 646.44 655.293 644.904 653.801 643.465C652.996 642.703 652.083 641.629 650.773 642.274C648.561 643.347 647.294 641.876 646.478 640.448C645.991 639.696 645.806 638.788 645.961 637.905C646.117 637.023 646.601 636.232 647.316 635.692C648.387 634.615 649.218 633.323 649.753 631.901C649.916 631.679 650.032 631.426 650.094 631.157C650.156 630.889 650.163 630.61 650.114 630.339C650.064 630.067 649.96 629.809 649.808 629.579C649.656 629.35 649.458 629.153 649.227 629.002C647.767 628.015 647.66 627.725 649.098 626.962C651.997 625.191 655.1 623.752 658.214 622.206V622.206Z" fill="white"/>
<path d="M580.994 517.765C581.145 509.884 583.281 503.527 584.795 497.031C587.232 486.616 586.019 476.437 582.83 466.269C580.125 457.626 577.999 448.8 577.945 439.609C577.945 434.648 577.655 429.709 578.46 424.781C578.61 424.004 578.591 423.205 578.406 422.437C578.221 421.668 577.873 420.948 577.387 420.325C574.166 415.944 574.627 414.151 579.062 411.112C579.749 410.629 580.876 410.286 580.672 409.308C580.468 408.331 579.233 408.653 578.417 408.525C576.334 408.17 575.196 407.247 575.196 404.81C575.422 398.743 577.397 393.106 579.437 387.555C581.121 382.507 583.553 377.74 586.653 373.414C590.003 369.001 593.986 365.898 599.966 366.209C603.907 366.446 606.945 368.776 609.791 370.88C616.533 375.884 619.014 383.281 619.808 391.367C619.963 392.562 619.705 393.774 619.078 394.802C616.254 398.872 616.931 403.618 616.834 408.02C616.716 412.744 617.263 417.49 617.167 422.29C617.081 424.956 617.527 427.613 618.477 430.106C619.797 433.263 618.337 436.946 617.79 440.371C617.478 442.347 617.21 444.108 618.938 445.793C619.738 446.488 620.246 447.46 620.359 448.513C620.473 449.567 620.184 450.624 619.55 451.473C615.728 456.906 615.47 463.488 613.527 469.512C611.38 476.105 611.831 483.073 611.38 489.913C611.154 493.005 612.69 496.215 613.366 499.383C615.223 508.155 616.866 517.035 616.2 525.968C615.449 536.083 612.432 545.37 602.243 550.385C599.419 551.791 597.185 552.124 594.899 549.311C592.88 546.798 590.808 544.286 590.314 541.161C589.933 539.256 588.937 537.529 587.479 536.244C584.102 532.798 582.082 528.25 581.789 523.434C581.628 521.179 580.769 518.978 580.994 517.765Z" fill="white"/>
<path d="M535.234 439.534C535.728 443.431 534.858 448.123 533.967 452.665C533.676 453.924 533.832 455.245 534.407 456.402C538.262 463.993 539.883 472.261 541.794 480.442C542.252 482.346 542.375 484.316 542.159 486.262C541.354 492.124 547.205 495.378 547.313 500.596C547.528 510.474 552.617 519.365 552.821 529.2C552.896 529.637 552.896 530.084 552.821 530.521C550.942 535.492 553.282 539.787 554.71 544.35C555.999 548.463 557.073 552.94 552.563 556.107C552.35 556.292 552.218 556.554 552.196 556.835C552.174 557.116 552.263 557.395 552.445 557.611C554.152 560.392 552.316 561.53 550.201 562.625C547.238 564.15 544.457 565.846 540.924 566.2C538.802 566.47 536.646 566.252 534.62 565.564C532.594 564.875 530.751 563.734 529.232 562.228C528.771 561.832 528.404 561.337 528.16 560.78C527.916 560.223 527.801 559.619 527.822 559.011C527.844 558.404 528.002 557.809 528.285 557.271C528.568 556.733 528.969 556.265 529.457 555.903C530.864 554.679 530.531 553.82 529.908 552.682C524.357 542.793 522.178 531.906 520.245 520.9C519.794 518.302 518.312 515.854 517.11 513.438C513.479 505.828 510.602 497.88 508.52 489.709C507.554 486.133 505.901 482.848 504.677 479.39C503.053 474.246 502.058 468.925 501.713 463.542C501.489 461.07 500.455 458.741 498.771 456.917C494.928 452.367 491.73 447.309 489.269 441.885C487.176 437.247 488.786 433.811 493.983 431.406C494.872 431.032 495.737 430.602 496.57 430.117C497.708 429.419 498.127 429.14 497.215 427.733C496.95 427.411 496.766 427.03 496.677 426.623C496.587 426.215 496.595 425.792 496.7 425.389C496.804 424.985 497.003 424.611 497.279 424.299C497.555 423.986 497.901 423.743 498.288 423.589C499.974 422.719 499.362 421.968 498.052 421.033C492.2 416.857 491.825 415.547 495.497 409.33C499.738 402.179 507.801 399.441 515.768 402.544C521.426 404.745 525.313 408.568 528.545 414.022C533.173 421.709 535.495 430.564 535.234 439.534V439.534Z" fill="white"/>
<path d="M421.122 654.16C412.415 654.224 406.617 649.671 402.644 642.349C397.684 633.233 392.981 623.988 386.893 615.506C386.047 614.252 385.502 612.82 385.299 611.321C385.096 609.822 385.241 608.296 385.723 606.862C387.43 600.678 389.846 594.944 396.234 592.099C401.506 589.747 406.875 590.52 411.953 592.388C422.25 596.179 429.894 603.19 435.402 612.682C436.798 615.087 436.605 617.503 436.594 619.983C436.55 621.698 437.117 623.372 438.194 624.707C440.341 627.531 442.693 630.312 443.058 634.156C443.541 639.246 440.782 642.971 437.797 646.354C435.756 648.793 433.205 650.756 430.325 652.105C427.444 653.453 424.303 654.155 421.122 654.16Z" fill="white"/>
<path d="M438.806 653.365C439.751 653.365 440.664 653.193 441.426 654.224C443.537 657.008 446.174 659.35 449.189 661.117C449.621 661.348 449.981 661.694 450.229 662.117C450.477 662.539 450.604 663.022 450.595 663.512C450.466 664.317 449.285 664.424 448.448 664.585C445.709 665.341 442.784 665.008 440.286 663.654C437.789 662.301 435.911 660.034 435.048 657.327C434.436 655.502 436.465 653.354 438.806 653.365Z" fill="white"/>
<path d="M288.071 698.204L294.707 720.14L314.956 714.062L317.318 721.89L266.125 737.309L263.752 729.492L287.298 722.373L280.716 700.437L257.171 707.556L254.798 699.728L305.959 684.256L308.321 692.083L288.071 698.204Z" fill="white"/>
<path d="M326.38 760.232L317.415 740.905L305.132 746.596L313.829 765.354L306.85 768.575L298.153 749.828L282.885 756.882L291.851 776.209L284.872 779.431L272.471 752.716L320.958 730.233L333.359 757.011L326.38 760.232Z" fill="white"/>
<path d="M341.702 770.97L295.533 797.877L291.41 790.812L337.579 763.915L341.702 770.97Z" fill="white"/>
<path d="M352.406 787.516C356.207 792.777 357.99 796.621 358.129 800.776C358.376 807.82 353.523 811.911 351.687 813.274C348.931 815.418 345.5 816.507 342.012 816.346C338.524 816.184 335.208 814.783 332.661 812.394L323.911 839.237L318.134 831.248L326.906 806.027L326.058 804.867L308.289 817.719L303.5 811.095L346.813 779.785L352.406 787.516ZM331.727 800.776L333.23 802.848C334.551 804.674 340.091 811.932 346.974 806.961C353.083 802.548 349.486 796.342 347.145 793.099L345.503 790.823L331.727 800.776Z" fill="white"/>
<path d="M375.909 817.14C380.634 822.154 382.964 825.901 382.996 830.722C382.99 832.689 382.56 834.632 381.735 836.419C380.911 838.205 379.711 839.792 378.218 841.073C376.665 842.671 374.686 843.789 372.517 844.294C370.731 844.732 368.853 844.596 367.148 843.907C368.474 846.237 369.142 848.883 369.081 851.563C368.766 855.227 367.018 858.619 364.217 861.001C363 862.273 361.539 863.286 359.921 863.98C358.303 864.674 356.561 865.034 354.801 865.038C348.627 865.038 343.538 860.69 340.735 857.715L331.545 847.988L370.412 811.299L375.909 817.14ZM342.7 848.6L346.104 852.218C347.704 853.904 350.517 856.309 353.18 856.674C354.294 856.783 355.42 856.647 356.477 856.276C357.534 855.905 358.497 855.308 359.3 854.527C360.837 853.125 361.769 851.181 361.898 849.104C361.898 845.98 359.847 843.435 357.872 841.331L354.35 837.605L342.7 848.6ZM359.246 832.988L360.942 834.792C362.327 836.252 364.367 838.013 367.03 838.195C368.136 838.176 369.226 837.929 370.232 837.471C371.239 837.013 372.141 836.353 372.882 835.532C373.613 834.934 374.208 834.185 374.625 833.337C375.041 832.488 375.271 831.56 375.297 830.615C375.297 828.07 373.891 826.213 372.291 824.516L370.369 822.508L359.246 832.988Z" fill="white"/>
<path d="M404.727 845.056C409.763 849.169 412.479 852.422 413.682 856.395C415.732 863.138 412.103 868.345 410.632 870.149C408.521 872.929 405.487 874.865 402.076 875.607C398.665 876.349 395.101 875.849 392.025 874.197L390.501 902.425L382.867 896.198L384.832 869.569L383.758 868.657L369.886 885.589L363.551 880.425L397.34 839.011L404.727 845.056ZM388.171 863.202L390.157 864.813C391.897 866.241 399.133 871.824 404.502 865.242C409.258 859.412 404.19 854.344 401.087 851.81L398.94 850.038L388.171 863.202Z" fill="white"/>
<path d="M434.758 867.604L418.17 895.21C416.688 897.69 414.949 900.75 414.863 903.982C414.894 905.971 415.431 907.919 416.425 909.643C417.418 911.367 418.834 912.809 420.54 913.833C422.245 914.857 424.183 915.429 426.171 915.496C428.16 915.563 430.132 915.122 431.902 914.215C434.726 912.636 436.605 909.651 438.087 907.182L454.675 879.566L461.686 883.775L443.981 913.238C441.521 917.717 437.424 921.072 432.546 922.6C429.877 923.298 427.095 923.455 424.364 923.062C421.633 922.669 419.009 921.734 416.645 920.311C414.281 918.888 412.225 917.007 410.599 914.778C408.973 912.549 407.809 910.018 407.175 907.332C406.239 902.327 407.269 897.154 410.053 892.891L427.747 863.428L434.758 867.604Z" fill="white"/>
<path d="M485.554 921.666L506.115 929.612L505.965 929.988C502.669 938.502 497.44 944.472 490.762 947.307C483.665 950.313 477.019 949.293 471.339 947.092C464.091 944.29 459.743 940.199 457.005 933.724C454.389 927.48 454.087 920.507 456.153 914.06C458.219 907.613 462.517 902.115 468.275 898.555C474.033 894.994 480.872 893.605 487.563 894.637C494.254 895.67 500.356 899.056 504.773 904.186C507.347 907.234 509.128 910.871 509.959 914.773L502.261 916.695C501.521 913.766 500.179 911.023 498.32 908.642C496.225 906.086 493.464 904.158 490.343 903.069C487.945 902.061 485.368 901.546 482.767 901.557C480.166 901.569 477.593 902.105 475.204 903.134C470.641 905.152 466.615 909.673 464.467 915.063C462.509 920.045 462.483 925.578 464.392 930.578C466.411 935.571 470.147 938.567 474.936 940.413C476.974 941.285 479.171 941.726 481.388 941.71C483.605 941.693 485.795 941.219 487.82 940.317C491.05 939.021 493.699 936.593 495.271 933.488L482.859 928.688L485.554 921.666Z" fill="white"/>
<path d="M732.502 885.31C739.095 881.831 745.204 879.501 752.505 880.629C760.525 881.917 767.537 887.071 771.649 894.898C775.761 902.726 776.137 911.283 772.218 918.971C768.75 925.779 763.918 929.15 757.326 932.64L747.555 937.804L722.592 890.561L732.502 885.31ZM751.184 927.185L754.298 925.532C757.841 923.663 762.587 920.797 765.035 915.578C766.247 912.917 766.823 910.01 766.716 907.088C766.61 904.166 765.825 901.308 764.423 898.742C763.105 896.104 761.194 893.807 758.84 892.031C756.485 890.256 753.751 889.05 750.852 888.51C745.172 887.704 739.997 890.077 736.529 891.914L733.404 893.567L751.184 927.185Z" fill="white"/>
<path d="M773.517 857.307L780.829 855.407L784.329 877.268L778.767 878.599L773.517 857.307Z" fill="white"/>
<path d="M810.259 858.864L826.997 843.21L812.546 827.759L818.515 822.175L855.021 861.205L849.051 866.788L832.248 848.825L815.509 864.48L832.312 882.443L826.353 888.027L789.848 848.997L795.817 843.414L810.259 858.864Z" fill="white"/>
<path d="M878.04 812.405L864.276 830.658L871.04 843.102L865.725 850.135L836.628 794.817L897.023 808.7L891.655 815.744L878.04 812.405ZM869.913 810.397L850.694 805.812L860.164 823.303L869.913 810.397Z" fill="white"/>
<path d="M905.14 795.203L854.151 769.627L907.835 753.178L874.755 736.611L878.416 729.309L929.126 754.735L875.442 771.195L908.823 787.934L905.14 795.203Z" fill="white"/>
<path d="M885.642 707.148C887.704 699.986 890.28 693.973 896.164 689.506C902.606 684.632 911.196 683.172 919.71 685.641C928.225 688.111 934.624 693.791 937.437 701.94C939.938 709.166 939.004 714.986 936.932 722.148L933.861 732.767L882.421 717.928L885.642 707.148ZM928.74 722.781L929.663 719.431C930.737 715.576 932.015 710.176 929.985 704.753C928.903 702.031 927.202 699.599 925.016 697.649C922.829 695.699 920.219 694.286 917.391 693.522C914.579 692.637 911.6 692.416 908.689 692.876C905.777 693.336 903.011 694.465 900.609 696.174C896.089 699.707 894.167 705.086 893.094 708.855L892.117 712.248L928.74 722.781Z" fill="white"/>
</g>
<defs>
<clipPath id="clip0_1_182">
<rect width="866.83" height="998.27" fill="white" transform="translate(166.24 161.73)"/>
</clipPath>
</defs>
</svg>
