<svg width="808" height="930" viewBox="0 0 808 930" fill="none" xmlns="http://www.w3.org/2000/svg">
<g clip-path="url(#clip0_1_2)">
<path d="M418.55 0C420.41 0.87 421.55 1.64 419.75 4C417.03 7.41 416.03 11.64 414.87 15.76C413.36 21.2 410.17 23.9 404.35 24.44C395.676 25.2228 386.959 25.4065 378.26 24.99C373.88 24.8 373.87 24.46 375.93 20.57C377.46 17.67 377.71 14.41 378.21 11.25C379.49 3.25 380.38 2.32 388.42 0.869999C389.062 0.696365 389.69 0.475771 390.3 0.209999L418.55 0Z" fill="white"/>
<path d="M0.0299988 387.28C0.839999 386.97 1.51 386.28 2.55 387.07C6.43 390.14 11.16 391.36 15.74 392.84C21.06 394.54 24.22 397.41 24.64 403.65C25.24 412.65 24.64 421.65 24.58 430.65C24.58 432.32 23.99 432.79 22.42 432.3C15.9 430.25 9.42 428.17 2.84 426.23C1.02 425.69 1.24 424.41 1.15 423.1C0.840002 418.17 1.44 413.17 0.150002 408.31L0.0299988 387.28Z" fill="white"/>
<path d="M807.34 404.82C805.94 408.69 806.9 412.82 806.09 416.76C805.64 418.96 805.09 419.19 803 418.28C799.09 416.56 795 415.23 791 413.79C787.21 412.43 784.42 410.09 783.67 405.99C781.67 395.14 782.56 384.18 781.95 372.52C787.088 375.351 792.671 377.282 798.46 378.23C803.13 379.12 806.12 382.31 807.24 387.06L807.34 404.82Z" fill="white"/>
<path d="M554.46 929.73C553.75 926.33 551.24 923.94 549.46 921.14C548.3 919.29 547.95 918.14 549.78 916.4C554.28 912.17 558.27 907.4 563.04 903.4C566.04 900.93 568.38 901.4 571.11 903.94C573.84 906.48 573.53 908.94 571.23 911.54C565.897 917.54 560.563 923.587 555.23 929.68L554.46 929.73Z" fill="white"/>
<path d="M429.47 762.41C430.57 771.41 435.65 777.47 441 783.41C441.95 784.41 443.89 785.41 441.72 787.25C431.33 796.03 420.84 804.63 407.39 808.48C400.108 810.467 392.488 810.893 385.03 809.73C382.65 809.41 381.4 808.35 381.66 805.73C381.96 801.576 382.797 797.479 384.15 793.54C385.15 790.77 386.98 788.36 389.91 787.76C404.47 784.76 414.91 775.19 425.46 765.83C426.56 764.89 427.68 763.93 429.47 762.41Z" fill="white"/>
<path d="M478.67 743.91C488.87 744.12 497.58 745.91 505.28 751.18C509.28 753.9 509.28 755.47 505 757.62C496 762.15 486.72 765.8 476.59 767.29C469.01 768.4 461.67 770.8 456.08 776.6C454.69 778.05 453.35 778.01 451.77 777.11C445.34 773.41 441.03 767.9 438.03 761.24C437.11 759.17 437.8 757.62 439.77 756.55C452.29 749.79 465.22 744.41 478.67 743.91Z" fill="white"/>
<path d="M372.21 847.02C379.92 841.55 386.7 836.74 393.49 831.96C393.958 831.682 394.483 831.515 395.026 831.471C395.569 831.428 396.114 831.51 396.62 831.71C409.53 835.35 422.62 838.52 434.1 845.96C442.68 851.52 442.88 853.73 435.4 860.76C434.81 861.31 434.23 861.87 433.6 862.37C421.5 871.87 423.5 870.47 413.08 863.6C405.39 858.53 396.73 855.6 388.08 852.6L372.21 847.02Z" fill="white"/>
<path d="M338.61 750.13C335.181 757.093 333.388 764.748 333.37 772.51C333.32 774.197 332.895 775.851 332.125 777.352C331.355 778.854 330.26 780.165 328.92 781.19C321.481 787.383 314.85 794.485 309.18 802.33C307.71 804.38 306.75 804.33 304.79 802.85C298.43 798.16 295.3 791.37 292.2 784.5C292 784.076 291.917 783.606 291.957 783.139C291.997 782.672 292.161 782.224 292.43 781.84C302.87 764.71 318.33 754.91 338.61 750.13Z" fill="white"/>
<path d="M529.03 760.8C525.85 767.17 526.54 774.26 526.03 781.16C525.78 784.55 524.65 786.93 521.64 788.69C509.487 795.866 496.566 801.652 483.12 805.94C482.28 806.2 481.33 807.04 480.51 806.24C479.69 805.44 480.45 804.51 480.73 803.64C482.49 798.22 482.67 792.54 483.3 786.95C483.81 782.49 485.63 778.95 489.67 776.84C501.642 770.767 513.933 765.346 526.49 760.6C526.878 760.355 527.335 760.242 527.793 760.278C528.251 760.314 528.685 760.497 529.03 760.8V760.8Z" fill="white"/>
<path d="M285.39 798.35C288.01 802.13 290.28 806.09 293.63 809.2C295.9 811.3 298.05 813.81 300.99 814.71C304.99 815.93 306.51 818.8 307.26 822.27C309.06 831.273 313.353 839.589 319.65 846.27C322.92 849.74 322.1 851.74 317.35 852.88C312.242 854.023 307.04 854.692 301.81 854.88C296.59 855.17 293.12 853.02 290.71 848.56C283.37 835 280.57 820.69 283.52 805.42C283.93 803.32 284.36 801.21 284.8 799.12C284.84 798.88 285.08 798.73 285.39 798.35Z" fill="white"/>
<path d="M369.09 749.85C382.97 748.85 394.54 754.33 405.09 762.64C408.68 765.46 408.67 766.05 405.02 768.85C401.053 771.86 396.705 774.331 392.09 776.2C389.48 777.327 386.536 777.406 383.87 776.42C377.45 774.2 370.67 774.15 363.98 773.63C360.36 773.35 356.72 773.23 353.13 772.73C348.81 772.14 347.64 770.24 349.41 766.38C351.71 761.38 354.41 756.58 356.91 751.66C357.202 751.055 357.68 750.558 358.273 750.241C358.866 749.925 359.544 749.805 360.21 749.9C363.18 749.92 366.13 749.87 369.09 749.85Z" fill="white"/>
<path d="M425.28 829.83C450.9 818.35 475.13 819.3 500.02 833.28C488.02 835.64 479.82 844.28 468.76 846.54C462.13 847.88 456.02 847.45 450.23 842.75C443.76 837.49 435.65 834.84 428.15 831.26C427.43 830.92 426.72 830.55 425.28 829.83Z" fill="white"/>
<path d="M541.03 869.71C537.4 870.13 534.35 870.39 531.33 870.84C526.87 871.51 522.51 872.99 519.25 875.98C514.5 880.32 513.56 880.27 508.09 874.75C501.02 867.61 494.66 859.75 485.84 854.48C483.12 852.86 484.59 851.06 486.34 849.71C493.61 844.09 501.69 842.33 510.61 844.88C515.637 846.389 520.333 848.836 524.45 852.09C530.82 856.94 535.88 863 541.03 869.71Z" fill="white"/>
<path d="M434.72 877.69C440.569 870.921 446.792 864.484 453.36 858.41C454.363 857.509 455.577 856.876 456.89 856.57C458.203 856.264 459.572 856.295 460.87 856.66C465.47 857.66 470.12 858.36 474.87 857.21C475.504 856.98 476.203 857.01 476.815 857.293C477.428 857.575 477.904 858.088 478.14 858.72C481 864.24 484.98 869 488.86 873.8C490.38 875.68 490.09 876.63 488.11 877.73C476.79 884.03 464.95 886.67 452.11 883.29C446.32 881.77 440.41 880.62 434.72 877.69Z" fill="white"/>
<path d="M578.19 750.57C577.849 753.909 577.683 757.264 577.69 760.62C578 766.2 575.3 769.14 570.33 771.08C561.72 774.46 553.23 778.16 544.75 781.88C541.33 783.38 540.53 782.08 540.53 778.88C540.405 771.885 541.453 764.919 543.63 758.27C544.005 757.142 544.637 756.118 545.478 755.278C546.318 754.437 547.342 753.805 548.47 753.43C557.37 749.7 566.11 745.57 574.86 741.43C577.12 740.36 578.25 740.18 578.02 743.27C577.83 745.67 578.02 748.11 578.02 750.52L578.19 750.57Z" fill="white"/>
<path d="M346.52 784.27C355.52 784.65 364.33 786.45 373.22 787.72C376.11 788.13 377.11 789.19 375.92 792.21C373.87 797.43 371.92 802.71 371.83 808.49C371.83 811.44 369.38 810.94 367.64 810.74C360.201 809.768 352.834 808.301 345.59 806.35C339.614 804.871 333.747 802.984 328.03 800.7C324.7 799.35 324.78 797.84 326.89 795.43C329.811 792.097 333.042 789.05 336.54 786.33C339.53 783.99 343.03 784.08 346.52 784.27Z" fill="white"/>
<path d="M536.7 815.54C537.14 823.97 534.07 830.65 530.7 837.27C529.75 839.16 528.43 839.27 526.75 838.38C520.41 835.17 514.06 832.02 507.75 828.77C505.01 827.35 503.87 825.42 505.44 822.22C506.8 819.44 506.97 816.28 506.89 813.22C506.778 811.867 507.082 810.512 507.761 809.336C508.44 808.16 509.462 807.22 510.69 806.64C517.3 803.39 523.98 800.28 530.64 797.13C532.92 796.04 533.46 797.74 533.92 799.32C535.527 804.588 536.461 810.038 536.7 815.54V815.54Z" fill="white"/>
<path d="M38.38 233.89C41.18 238.81 45.69 242.22 49.97 245.89C51.5666 247.149 52.7507 248.857 53.3707 250.793C53.9907 252.73 54.0183 254.808 53.45 256.76C51.16 266.19 47.37 275.08 43.88 284.08C43.06 286.19 42.05 286.39 40.32 285.08C34.32 280.49 29.18 274.97 23.7 269.82C23.3559 269.51 23.13 269.091 23.0607 268.633C22.9914 268.175 23.0831 267.708 23.32 267.31C27.51 256.86 31.22 246.21 36.16 236.06C36.3519 235.56 36.6497 235.107 37.0328 234.732C37.416 234.358 37.8755 234.071 38.38 233.89V233.89Z" fill="white"/>
<path d="M455.7 28.47C445.59 27.41 436.03 26.31 426.4 25.34C423.98 25.09 423.67 24.34 424.74 22.15C426.9 17.7 428.74 13.09 430.74 8.53997C432.57 4.35997 435.34 2.05997 440.34 2.28997C450.385 2.77853 460.398 3.77984 470.34 5.28997C473.34 5.72997 474.23 6.59997 471.73 9.11997C468.64 12.24 467.25 16.37 465.59 20.33C463.62 24.92 460.65 28.29 455.7 28.47Z" fill="white"/>
<path d="M149.26 123.02C148.94 116.69 146.48 112.02 144.11 107.38C140.64 100.51 141.03 97.71 146.73 92.5C154.17 85.68 162.48 79.98 170.84 73.5C173.27 80.15 176.03 86.34 177.03 93.1C177.332 94.5638 177.249 96.0811 176.788 97.5029C176.327 98.9247 175.504 100.202 174.4 101.21C166.28 108.41 158.03 115.41 149.26 123.02Z" fill="white"/>
<path d="M575.34 37.95C568.56 42.11 563.99 47.64 558.57 52.2C555.73 54.59 552.98 55.41 549.39 53.92C540.85 50.4 532.24 47.06 523.61 43.76C521.76 43.05 521.71 42.38 522.83 40.94C525.83 37.02 528.75 32.94 531.83 29.06C534.91 25.18 539.03 23.98 543.68 25.32C554.37 28.41 564.48 33.01 575.34 37.95Z" fill="white"/>
<path d="M115.03 156.58C112.83 151.31 109.62 147.18 106.83 142.78C104.04 138.38 104 134.21 107.22 130.09C113.773 121.913 121.027 114.325 128.9 107.41C130.09 106.33 131.61 105.33 131.9 108.01C132.64 114.3 135.78 119.67 138.19 125.33C138.898 126.69 139.16 128.239 138.937 129.756C138.714 131.273 138.019 132.681 136.95 133.78C130.24 141.932 122.912 149.555 115.03 156.58V156.58Z" fill="white"/>
<path d="M767.63 573.53C766.63 568.53 762.89 565.45 759.56 562.16C752.71 555.4 752.09 553.16 755.78 544.36C759.31 535.96 763.15 527.69 767.12 518.77C772.93 524.61 778.95 529.47 783.41 535.89C783.933 536.495 784.279 537.232 784.41 538.021C784.54 538.81 784.45 539.619 784.15 540.36C779.779 551.486 774.616 562.283 768.7 572.67C768.52 572.99 768.09 573.17 767.63 573.53Z" fill="white"/>
<path d="M713.52 661.62C711.11 655.52 707.12 651.22 704.18 646.26C702.18 642.94 702.01 639.98 703.96 636.47C709.46 626.6 716.85 618.03 722.75 607.94C724.67 613.85 728.34 617.94 731.75 622.24C737.04 628.86 737.18 631.37 732.34 638.36C726.78 646.41 721.03 654.31 713.52 661.62Z" fill="white"/>
<path d="M1.66 438.68C7.67009 441.44 14.0857 443.212 20.66 443.93C23.85 444.35 25.38 447.25 26.36 450.16C29.61 459.88 30.3 470.16 32.7 480.06C33.15 481.93 32.08 482.5 30.42 482.27C24.42 481.46 18.42 481.09 12.56 479.39C8.03 478.06 6.56 474.26 5.68 470.24C3.94 462.5 3.14 454.6 2.24 446.74C1.91 444.24 0.929996 441.77 1.66 438.68Z" fill="white"/>
<path d="M610.47 84.67C617.25 81.53 622.14 76.81 627.78 73.17C630.46 71.44 632.72 71.35 635.5 73.1C645.05 79.1 653.7 86.28 663.08 93.22C656.65 97.41 650.74 101.63 644.03 104.41C642.52 105.04 640.91 105.61 639.35 104.86C628.73 99.79 619.64 92.59 610.47 84.67Z" fill="white"/>
<path d="M44.67 589.29C51.91 590.55 57.67 589.44 63.35 587.72C68 586.33 71.35 588.77 74.23 592.09C78.71 597.31 82.23 603.2 85.72 609.09C87.52 612.09 91.72 615.31 90.37 618.19C89.28 620.55 84.02 619.75 80.64 620.51C78.29 621.04 75.74 620.87 73.51 621.65C66.23 624.2 62.45 621.07 59.27 614.65C55.13 606.27 50.03 598.41 44.67 589.29Z" fill="white"/>
<path d="M744.11 620.15C742.76 615.15 739.17 611.69 735.81 608.15C731.38 603.44 730.1 598.71 733.27 592.54C737.12 585.03 740.45 577.24 744.58 569.86C745.81 567.68 746.88 567.3 748.81 569.09C753.601 573.41 757.983 578.164 761.9 583.29C762.82 584.52 763.4 585.71 762.67 587.35C757.783 598.692 751.857 609.558 744.97 619.81C744.85 619.96 744.51 619.98 744.11 620.15Z" fill="white"/>
<path d="M221.03 761.04C218.554 761.008 216.119 760.409 213.91 759.29C205.744 755.497 197.898 751.049 190.45 745.99C188.3 744.58 187.98 743.47 190.22 741.87C195.8 737.87 201.49 734.07 206.66 729.54C207.77 728.54 208.82 728.8 209.98 729.42C218.98 734.24 228.04 738.94 236.98 743.88C240.61 745.88 240.49 746.32 237.03 748.94C234.091 751.303 231.47 754.036 229.23 757.07C227.12 759.74 224.48 761.41 221.03 761.04Z" fill="white"/>
<path d="M619.91 714.91C619.68 721.91 622.07 727.23 623.34 732.84C624.61 738.45 622.92 742.84 618.19 745.68C610.28 750.48 602.19 754.94 594.19 759.56C592.34 760.63 591.41 760.43 591.1 758C590.21 751.22 589.1 744.47 588.1 737.71C587.948 737.196 587.969 736.646 588.161 736.145C588.352 735.645 588.704 735.221 589.16 734.94C599.08 728.46 609.03 721.96 619.91 714.91Z" fill="white"/>
<path d="M45.53 531.33C40.53 528.98 35.2 529.95 30.03 529.88C22.42 529.79 20.79 528.82 18.1 521.68C14.8512 513.166 12.2145 504.43 10.21 495.54C9.55001 492.6 10.58 491.92 13.21 492.17C19.9982 492.9 26.7439 493.981 33.42 495.41C34.2351 495.52 34.9978 495.874 35.6082 496.426C36.2185 496.977 36.6479 497.7 36.84 498.5C38.84 508.81 43.16 518.41 45.61 528.58C45.81 529.013 45.9068 529.487 45.8929 529.964C45.8791 530.441 45.7548 530.909 45.53 531.33Z" fill="white"/>
<path d="M774.56 323.52C780.14 326.23 785.43 326.82 790.85 326.78C796.03 326.78 799.46 329.28 801.08 334.26C803.56 341.85 804.27 349.76 805.23 357.62C805.68 361.27 806.73 364.92 805.98 369.08C801.18 365.48 795.7 364.71 790.34 363.69C784.57 362.6 781.13 359.8 780.18 353.6C778.68 343.81 776.57 334.11 774.56 323.52Z" fill="white"/>
<path d="M471.79 29.67C476.12 27.77 477.31 24.57 478.79 21.67C479.79 19.67 480.71 17.52 481.79 15.51C484.01 11.36 487.57 9.51003 492.16 10.2C503.16 11.92 513.88 15.09 524.56 18.25C525.047 18.4922 525.503 18.7909 525.92 19.14C520.75 21.58 518.33 25.84 516.25 30.41C513.98 35.41 509.8 37.53 504.49 37.16C493.57 36.41 483.16 33.41 471.79 29.67Z" fill="white"/>
<path d="M784.13 266.09C775.27 265.17 767.13 264.36 759.07 263.49C758.401 263.423 757.763 263.177 757.223 262.778C756.682 262.378 756.26 261.84 756 261.22C751.72 252.57 747.37 243.96 743.72 235.02C742.62 232.33 742.8 230.95 746.35 230.81C751.29 230.62 756.2 229.71 761.12 229.19C765.68 228.71 769.12 230.72 770.9 234.76C775.38 244.91 779.55 255.19 784.13 266.09Z" fill="white"/>
<path d="M254.46 752.86L256.75 753.45C266.33 756.04 275.46 759.94 284.82 763.19C286.62 763.82 287.32 764.47 285.59 766.09C281.47 769.96 278.09 774.48 274.5 778.82C271.68 782.22 268.63 783.53 263.96 781.82C254.9 778.52 245.93 774.997 237.05 771.25C235.36 770.54 233.6 769.95 235.59 767.66C240.133 762.356 245.32 757.64 251.03 753.62C252.028 752.924 253.261 752.651 254.46 752.86V752.86Z" fill="white"/>
<path d="M712.14 177.07C709.85 177.37 708.23 176.24 706.87 174.66C700.49 167.23 694.15 159.77 687.75 152.37C686.48 150.89 686.41 150.03 688.4 149.19C692.96 147.26 697.4 145.13 701.97 143.19C707.06 140.97 711.39 142.19 714.97 146.27C721.5 153.58 727.07 161.64 733.04 169.39C733.83 170.39 734.26 171.32 732.64 171.74C725.83 173.5 719.17 176.01 712.14 177.07Z" fill="white"/>
<path d="M72.18 634.41C78.42 635.72 82.89 633.72 87.3 631.82C93.97 628.94 99.48 630.19 104.3 635.57C109.79 641.66 114.83 648.1 119.78 654.63C121.87 657.39 121.38 658.49 117.9 659.34C112.35 660.68 106.93 662.7 101.44 664.41C99.69 664.96 97.99 665.12 96.55 663.68C87.5904 654.651 79.4362 644.857 72.18 634.41V634.41Z" fill="white"/>
<path d="M797.91 487.35C796.723 495.658 795.094 503.896 793.03 512.03C792.24 515.28 791.24 518.49 790.41 521.74C789.94 523.6 789.06 523.8 787.54 522.74C781.432 518.339 775.598 513.57 770.07 508.46C768.75 507.3 769.07 506.1 769.4 504.82C771.74 494.887 774.097 484.963 776.47 475.05C776.79 473.72 777.05 471.98 778.95 473.55C783.66 477.45 789.5 479.44 794.48 482.85C796.15 484.01 797.89 485.18 797.91 487.35Z" fill="white"/>
<path d="M24.4 384.67C20.18 380.59 15.8 379.6 11.62 378.21C4.05998 375.7 2.18999 373.26 2.30999 365.21C2.46999 354.47 4.40999 343.9 5.57999 332.27C10.78 337.75 16.99 340.27 22.98 343.19C24.0852 343.715 25.0351 344.518 25.7363 345.521C26.4375 346.524 26.8661 347.692 26.98 348.91C28.2 360.72 25.7 372.17 24.4 384.67Z" fill="white"/>
<path d="M37.43 302C37.5 305.91 36.43 309.68 35.55 313.46C33.9208 319.692 32.6916 326.021 31.87 332.41C31.76 333.5 31.72 334.74 30.57 335.14C29.14 335.64 29.01 334.14 28.35 333.36C25.7 330.36 21.98 328.97 18.52 327.23C10.18 323.02 9.02 320.78 10.78 311.6C12.42 303.02 15.06 294.71 17.35 286.3C17.98 283.99 18.95 282.95 21.11 285.04C24.42 288.26 28.43 290.46 32.42 292.69C36.03 294.71 37.87 297.74 37.43 302Z" fill="white"/>
<path d="M93.09 144.87C97.29 151.09 101.55 156.61 104.41 163.03C105.15 164.7 105.56 166.39 104.71 168.03C99.32 178.73 92.12 188.21 84.48 198.52C84.12 193.18 81.48 190.13 78.48 187.2C77.0493 185.783 75.7784 184.214 74.69 182.52C71.03 176.77 71.1 174.52 75.11 169.1C80.96 161.15 86.9 153.22 93.09 144.87Z" fill="white"/>
<path d="M701.18 129.29C695.44 132.34 690.18 135.55 684.18 137.29C682.104 137.91 679.911 138.03 677.78 137.639C675.648 137.248 673.64 136.357 671.92 135.04C665.01 130.04 659.13 123.98 653.33 117.81C651.28 115.62 651.71 114.47 654.45 113.11C659.36 110.67 664.02 107.71 668.79 104.97C671.15 103.61 673.22 103.88 675.45 105.56C684.75 112.52 692.56 121.04 701.18 129.29Z" fill="white"/>
<path d="M715.51 187.68C723.18 187.86 729.6 185.79 736.03 183.98C739.33 183.05 741.76 183.58 743.82 186.3C750.24 194.81 755.37 204.08 760.13 213.57C761.27 215.85 760.86 216.89 758.02 217.08C753.21 217.4 748.4 217.99 743.63 218.76C738.51 219.58 734.85 217.87 732.03 213.53C726.62 205.21 721.96 196.41 715.51 187.68Z" fill="white"/>
<path d="M567.54 61.62C572.92 56.27 577.66 51.14 583.05 46.62C585.4 44.67 587.54 44.31 590.37 45.74C599.299 50.0905 607.979 54.9346 616.37 60.25C619.94 62.58 619.79 63.03 616.53 65.51C612.69 68.45 608.94 71.51 605.26 74.65C604.15 75.7215 602.738 76.4273 601.215 76.6722C599.692 76.9171 598.13 76.6895 596.74 76.02C586.76 72.07 577.46 66.7 567.54 61.62Z" fill="white"/>
<path d="M799.03 316.96C793.84 314.03 789.18 313.75 784.46 313.65C774.78 313.45 773.19 312.5 770.01 303.56C767.32 296 765.2 288.23 762.68 280.61C762.01 278.61 762.68 277.93 764.51 277.61C771.288 276.577 778.204 276.893 784.86 278.54C785.534 278.613 786.179 278.855 786.733 279.245C787.288 279.635 787.734 280.16 788.03 280.77C792.497 292.576 796.171 304.666 799.03 316.96V316.96Z" fill="white"/>
<path d="M630.49 714.75C630.44 710.16 631.86 707.22 634.31 705.02C641.41 698.66 648.67 692.47 655.89 686.24C657.08 685.24 658.08 684.72 658.55 687.04C659.45 691.42 661.61 695.34 663.62 699.28C666.33 704.59 665.83 709.35 661.55 713.62C654.67 720.48 646.83 726.14 639.03 731.86C636.91 733.41 635.45 733.46 635.37 730.09C635.28 726.56 633.92 723.3 632.45 720.09C631.5 718.05 630.48 715.98 630.49 714.75Z" fill="white"/>
<path d="M702.81 670.69C702.97 674.46 701.1 677.41 698.86 680.13C693.17 687.01 686.03 692.41 679.4 698.22C678.09 699.37 677.4 699.06 676.75 697.59C674.53 692.59 671.94 687.69 670.27 682.43C669.723 680.761 669.604 678.981 669.926 677.255C670.247 675.528 670.999 673.91 672.11 672.55C677.98 664.65 684.92 657.71 691.89 650.81C692.97 649.73 694.12 648.81 694.46 651.39C694.98 655.27 697.26 658.3 699.35 661.39C701.22 664.24 702.92 667.13 702.81 670.69Z" fill="white"/>
<path d="M188.18 91.74C188.64 85.36 186.18 80.38 184.75 75.14C182.94 68.32 183.47 66.68 189.03 62.41C196.84 56.48 205.49 51.86 213.85 46.78C215.67 45.67 216.54 46.03 216.74 48.09C217.42 55.02 218.83 61.88 218.74 68.88C218.824 69.6712 218.712 70.4709 218.413 71.2086C218.115 71.9463 217.64 72.5993 217.03 73.11C208.09 80.01 198.03 85.07 188.18 91.74Z" fill="white"/>
<path d="M66.56 576.66C61.13 575.14 56.8 576.11 52.47 576.97C42.66 578.97 39.91 577.74 35.57 568.72C32.57 562.45 29.84 556.01 27.26 549.55C24.87 543.55 25.77 542.26 32.06 542.27C37.43 542.27 42.79 542.61 48.15 542.78C49.41 542.78 50.5 542.99 51.15 544.29C56.46 554.67 61.46 565.17 66.56 576.66Z" fill="white"/>
<path d="M61.47 240.05C55.8 234.44 50.19 229.27 45.52 223.16C44.15 221.36 44.42 219.8 45.3 217.96C50.36 207.4 56.6 197.52 62.72 186.77C66.08 192.83 70.54 197.39 74.72 202.23C77.36 205.31 76.39 209.15 75.13 212.63C71.65 222.15 66.22 230.69 61.47 240.05Z" fill="white"/>
<path d="M276.89 43.41C277.48 36.31 277.97 30.41 278.44 24.54C278.69 21.42 280.06 19.63 283.3 18.66C292.93 15.76 302.52 12.78 312.3 10.49C315.17 9.81998 316.94 9.88998 315.23 13.64C313.05 18.43 313.75 23.64 313.23 28.72C312.83 32.72 311.29 35.3 307.15 36.57C298.45 39.26 289.85 42.3 281.26 45.32C278.1 46.41 276.27 46.22 276.89 43.41Z" fill="white"/>
<path d="M323.56 33.11C326.47 28.27 326.64 23.46 326.71 18.62C326.82 10.78 328.99 7.98002 336.53 6.22002C346.21 3.95002 356.13 3.22002 365.92 1.67002C368 1.34002 368.44 2.17002 367.58 3.85002C365.556 8.09787 364.407 12.7092 364.2 17.41C363.8 22.63 360.07 25.3 355.5 26.89C348.62 29.28 341.36 29.89 334.26 31.2C330.87 31.81 327.47 32.41 323.56 33.11Z" fill="white"/>
<path d="M783.25 421.76C787.96 426.15 793 428.06 798.59 429.4C804.18 430.74 805.7 436.1 805.65 441.26C805.558 450.648 804.288 459.988 801.87 469.06C801.31 471.2 800.68 472.54 798.22 470.47C794.92 467.68 790.81 466.21 786.88 464.47C782.33 462.47 780.08 459.2 780.25 454.1C780.6 443.54 782.2 433.08 783.25 421.76Z" fill="white"/>
<path d="M265.13 35.41C265.19 49.79 265.22 49.85 252.45 56.01C246.54 58.86 240.5 61.46 234.45 64.07C232.45 64.93 231.01 64.97 231.25 61.81C231.54 58.06 230.42 54.38 229.61 50.71C228.12 43.93 228.98 41.86 234.81 38.41C242.742 33.6167 251.077 29.5245 259.72 26.18C264.03 24.54 264.33 24.75 264.91 29.41C264.99 30.07 265.07 30.74 265.09 31.41C265.13 32.7 265.12 34.05 265.13 35.41Z" fill="white"/>
<path d="M165.24 702.47C167.54 702.375 169.817 702.967 171.78 704.17C179.716 708.69 187.221 713.928 194.2 719.82C196.2 721.46 197.3 722.82 193.58 723.98C190.43 724.93 188.35 727.64 186.03 729.87C180.54 735.16 176.75 735.82 170.16 732.03C161.97 727.33 154.71 721.35 147.68 715.03C145.97 713.5 145.21 712.2 148.28 711.14C151.99 709.86 155.04 707.34 158.28 705.14C160.33 703.68 162.53 702.41 165.24 702.47Z" fill="white"/>
<path d="M136.5 701.84C134.43 701.9 131.97 700.49 129.75 698.75C122.327 692.78 115.498 686.105 109.36 678.82C107.71 676.92 107.3 675.82 110.44 674.82C115.39 673.21 120.14 671 124.94 668.97C126.089 668.421 127.371 668.21 128.635 668.363C129.899 668.515 131.094 669.024 132.08 669.83C140.216 675.75 147.785 682.412 154.69 689.73C156.41 691.58 156.9 692.65 153.91 693.9C150.6 695.28 147.63 697.45 144.51 699.27C142.14 700.873 139.36 701.765 136.5 701.84V701.84Z" fill="white"/>
<path d="M377.77 826.56C371.44 832.19 365.63 837.35 359.83 842.56C359.272 843.139 358.551 843.534 357.763 843.691C356.975 843.848 356.157 843.761 355.42 843.44C349.674 841.442 343.518 840.926 337.52 841.94C336.326 842.191 335.084 842.094 333.943 841.662C332.802 841.229 331.808 840.479 331.08 839.5C327.68 834.99 324.44 830.37 321.08 825.86C319.85 824.24 320.39 823.52 322.08 823.05C323.452 822.502 324.881 822.109 326.34 821.88C342.48 821.29 358.6 821.19 374.4 825.43C375.25 825.65 376.12 826 377.77 826.56Z" fill="white"/>
<path d="M305.03 867.2C311.03 866.83 315.8 866.62 320.44 865.37C323.981 864.559 327.378 863.21 330.51 861.37C338.08 856.52 345.94 858.28 353.81 860.25C355.7 860.73 356.17 862.14 355.69 864.04C354.48 869.447 351.826 874.423 348.01 878.44C346.652 879.859 344.974 880.932 343.115 881.567C341.256 882.202 339.272 882.382 337.33 882.09C325.42 880.62 315.57 874.62 305.03 867.2Z" fill="white"/>
<path d="M250.76 867.26C256.047 858.829 263.011 851.575 271.22 845.95C274.11 843.95 275.82 844.65 277.29 847.44C278.22 849.21 279.18 850.98 280.1 852.77C281.844 855.933 283.851 858.943 286.1 861.77C287.75 863.96 291.66 865.41 291 867.96C290.42 870.2 287.08 871.74 284.94 873.56C279 878.56 278.81 878.82 272.78 873.82C266.32 868.53 259.4 865.58 250.76 867.26Z" fill="white"/>
<path d="M358.59 885.82C360.59 883.19 362.22 881.25 363.66 879.18C367.66 873.45 369.74 867.23 367.94 860.18C367.45 858.24 367.78 857.18 369.94 857.62C380.691 859.862 391.268 862.869 401.59 866.62C403.39 867.27 403.04 868.27 401.82 869.18C389.19 878.64 376.13 886.9 358.59 885.82Z" fill="white"/>
<path d="M451.81 810.5C444.62 811.11 439.4 810.5 434.17 810.16C431.43 809.98 430.63 808.65 432.76 806.7C443.2 797.19 454.58 789.32 468.76 786.5C471.35 785.98 471.94 786.93 471.61 789.18C470.827 794.9 469.443 800.521 467.48 805.95C467.194 806.832 466.668 807.617 465.962 808.217C465.256 808.818 464.396 809.21 463.48 809.35C459.03 810.31 454.39 810.12 451.81 810.5Z" fill="white"/>
<path d="M539.49 881.41C543.519 881.708 547.423 882.945 550.89 885.02C552.7 886.02 552.45 887.12 551.09 888.44C546.383 893.013 541.49 897.38 536.41 901.54C534.86 902.81 533.64 902.83 532.29 901.4C529.35 898.29 526.29 895.24 523.44 892.09C522.6 891.17 521.44 890.03 523.16 888.78C528.063 885.269 533.613 882.764 539.49 881.41V881.41Z" fill="white"/>
<path d="M250.49 878.67C257.67 878.51 262.8 881.67 267.34 886.13C268.47 887.26 268.42 888.06 267.34 889.13C264.34 892.04 261.44 894.98 258.55 897.96C257.16 899.4 255.92 899.45 254.46 898.07C249.58 893.47 244.677 888.903 239.75 884.37C238.28 883.02 238.7 882.2 240.28 881.45C243.69 879.82 247.11 878.29 250.49 878.67Z" fill="white"/>
<path d="M241.03 916.41C239.967 919.223 238.277 921.757 236.09 923.82C235.17 924.74 234.39 924.04 233.68 923.41C227.37 917.75 222.43 910.87 216.97 904.47C216.12 903.47 216.5 902.87 217.37 902.2C219.28 900.75 221.19 899.28 223.05 897.75C223.214 897.546 223.425 897.383 223.664 897.275C223.902 897.167 224.163 897.117 224.425 897.129C224.687 897.14 224.943 897.214 225.171 897.342C225.4 897.471 225.594 897.652 225.74 897.87C230.33 902.55 235.01 907.14 239.61 911.81C240.231 912.384 240.689 913.111 240.938 913.919C241.188 914.727 241.219 915.586 241.03 916.41V916.41Z" fill="white"/>
<path d="M557.74 896.41C553.622 902.373 548.288 907.396 542.09 911.15C546.23 905.08 551.11 899.83 557.74 896.41Z" fill="white"/>
<path d="M247.87 906.78C241.956 902.756 236.84 897.67 232.78 891.78C238.743 895.744 243.87 900.84 247.87 906.78V906.78Z" fill="white"/>
<path d="M93.35 356.6C92.085 357.016 90.9438 357.741 90.03 358.71C88.6814 360.179 87.9259 362.096 87.91 364.09C87.65 368.81 90.34 371.4 93.61 371.58C95.14 371.66 97.83 371.27 100.07 366.42L102.4 361.42C106.71 352.26 112.18 349.96 117.97 350.27C127.64 350.79 133.89 357.99 133.38 367.51C133.07 373.37 130.67 376.76 127.64 379.19C124.784 381.539 121.217 382.853 117.52 382.92L116.25 375.14C118.574 375.275 120.882 374.67 122.84 373.41C123.875 372.677 124.722 371.71 125.313 370.587C125.904 369.464 126.222 368.218 126.24 366.95C126.331 365.83 126.19 364.704 125.826 363.642C125.462 362.579 124.882 361.603 124.124 360.774C123.366 359.946 122.445 359.282 121.419 358.826C120.393 358.369 119.283 358.129 118.16 358.12C112.98 357.84 110.64 361.68 109.09 364.96L106.77 369.68C104.77 373.78 100.96 379.76 93.35 379.35C86.5 378.98 80.24 373.3 80.74 363.78C81.04 358.3 83.26 355.29 84.74 353.78C86.2606 352.252 88.0552 351.024 90.03 350.16L93.35 356.6Z" fill="white"/>
<path d="M104.61 295.01C98.42 299.41 96.77 304.41 96.15 307.28C93.79 318.08 100.15 327.12 111.15 329.52C121.65 331.81 131.44 325.99 133.75 315.42C134.722 310.352 133.72 305.104 130.95 300.75L139.95 302.75C141.471 307.413 141.726 312.396 140.69 317.19C139.376 323.748 135.532 329.525 129.99 333.27C127.048 335.358 123.688 336.783 120.142 337.446C116.596 338.109 112.948 337.994 109.45 337.11C100.29 335.11 94.79 329.93 91.76 324.89C88.04 318.7 87.7 312.38 89.2 305.53C90.0788 300.821 92.3338 296.478 95.68 293.05L104.61 295.01Z" fill="white"/>
<path d="M141.83 238.73C155.48 244.79 161.39 259.73 155.2 273.61C149.01 287.49 134.03 293.15 120.35 287.09C106.67 281.03 100.79 266.14 107.03 252.2C113.27 238.26 128.17 232.66 141.83 238.73ZM138.67 245.84C128.36 241.26 117.95 245.15 113.53 255.11C109.11 265.07 113.19 275.4 123.53 279.98C133.87 284.56 144.24 280.67 148.67 270.71C153.1 260.75 149.03 250.41 138.67 245.84Z" fill="white"/>
<path d="M132.9 204.77L158.15 222.14C160.41 223.69 163.22 225.53 166.28 225.79C168.175 225.887 170.063 225.498 171.764 224.66C173.466 223.821 174.925 222.561 176.003 221C177.08 219.438 177.74 217.627 177.92 215.739C178.1 213.85 177.793 211.947 177.03 210.21C175.7 207.44 173.03 205.48 170.72 203.92L145.43 186.55L149.84 180.14L176.78 198.68C180.872 201.274 183.806 205.347 184.97 210.05C185.479 212.63 185.466 215.285 184.934 217.859C184.401 220.434 183.358 222.876 181.867 225.042C180.376 227.207 178.467 229.053 176.252 230.469C174.037 231.886 171.561 232.845 168.97 233.29C164.164 233.884 159.314 232.602 155.43 229.71L128.49 211.17L132.9 204.77Z" fill="white"/>
<path d="M178.89 158.61L210.52 188.53L205.17 194.18L173.54 164.26L165.54 172.74L160.22 167.74L181.59 145.14L186.91 150.14L178.89 158.61Z" fill="white"/>
<path d="M217.42 129.63C216.264 128.967 214.962 128.599 213.63 128.56C211.637 128.544 209.706 129.255 208.2 130.56C204.51 133.56 204.38 137.25 206.43 139.8C207.38 140.99 209.43 142.74 214.57 141.19L219.85 139.6C229.55 136.7 234.91 139.24 238.54 143.76C244.6 151.32 243.39 160.76 235.96 166.76C231.38 170.43 227.26 170.9 223.43 170.26C219.771 169.696 216.41 167.913 213.89 165.2L218.89 159.08C220.354 160.895 222.357 162.198 224.61 162.8C225.847 163.086 227.134 163.074 228.365 162.765C229.596 162.455 230.736 161.857 231.69 161.02C232.585 160.343 233.331 159.488 233.881 158.509C234.43 157.53 234.772 156.449 234.885 155.332C234.998 154.215 234.879 153.087 234.535 152.018C234.192 150.949 233.632 149.963 232.89 149.12C229.65 145.12 225.22 145.89 221.74 146.92L216.61 148.41C212.24 149.67 205.23 150.8 200.46 144.85C196.16 139.5 196.22 131.04 203.66 125.08C207.94 121.64 211.66 121.29 213.77 121.36C215.932 121.465 218.055 121.974 220.03 122.86L217.42 129.63Z" fill="white"/>
<path d="M266.92 86.22L281.92 115.56C283.76 119.15 285.46 122.82 285.49 126.74C285.586 129.24 284.941 131.712 283.637 133.847C282.333 135.982 280.428 137.684 278.16 138.74C275.336 140.228 272.135 140.847 268.96 140.52L269.38 132.94C271.273 133.381 273.263 133.1 274.96 132.15C275.983 131.71 276.833 130.943 277.375 129.97C277.918 128.997 278.123 127.872 277.96 126.77C277.85 125.54 277.36 123.77 274.96 119.12L260.03 89.75L266.92 86.22Z" fill="white"/>
<path d="M326.19 104.41L305.63 111.41L304.33 124.82L296.39 127.53L302.94 68.41L343.14 111.55L335.21 114.27L326.19 104.41ZM320.86 98.41L308.15 84.58L306.29 103.41L320.86 98.41Z" fill="white"/>
<path d="M349.96 110.14L342.61 56.41L384.41 89.72L379.64 54.82L387.34 53.76L394.65 107.25L352.86 73.89L357.67 109.09L349.96 110.14Z" fill="white"/>
<path d="M442.21 55.31C448.72 56.09 452.71 57.42 455.67 60.92C456.862 62.3652 457.73 64.0497 458.215 65.8596C458.7 67.6694 458.79 69.5622 458.48 71.41C458.299 73.5137 457.522 75.5223 456.24 77.2C455.189 78.6155 453.72 79.6649 452.04 80.2C454.428 81.0931 456.527 82.6214 458.11 84.62C459.105 86.039 459.81 87.6402 460.186 89.332C460.562 91.0239 460.601 92.7732 460.3 94.48C460.188 96.1505 459.739 97.781 458.98 99.2729C458.22 100.765 457.165 102.087 455.88 103.16C451.36 106.94 445.03 106.86 441.13 106.41L428.49 104.89L434.57 54.41L442.21 55.31ZM437.09 98.54L441.78 99.1C443.98 99.37 447.5 99.41 449.66 98.1C450.545 97.5029 451.287 96.7187 451.835 95.8028C452.383 94.8869 452.722 93.8617 452.83 92.8C453.103 90.8383 452.601 88.8473 451.43 87.25C449.55 84.95 446.48 84.35 443.75 84.02L438.91 83.41L437.09 98.54ZM439.67 77.04L442.02 77.33C443.91 77.55 446.51 77.64 448.54 76.11C450.57 74.58 450.99 72.34 451.2 70.6C451.368 69.7176 451.344 68.8096 451.132 67.9369C450.92 67.0642 450.524 66.247 449.97 65.54C448.43 63.66 446.26 63.17 444.06 62.9L441.41 62.59L439.67 77.04Z" fill="white"/>
<path d="M508.32 76.41L488.76 71.01L485.35 83.41L504.35 88.61L502.41 95.67L483.41 90.47L479.18 105.91L498.74 111.27L496.82 118.41L469.75 110.99L483.19 61.94L510.25 69.36L508.32 76.41Z" fill="white"/>
<path d="M536.68 79.41C542.32 81.92 545.68 84.23 547.74 87.58C551.31 93.25 549.28 98.94 548.38 100.96C547.142 104.048 544.845 106.595 541.9 108.143C538.956 109.692 535.556 110.141 532.31 109.41L537.99 135.71L529.42 131.9L524.56 106.97L523.3 106.41L514.85 125.41L507.75 122.26L528.39 75.78L536.68 79.41ZM526.03 100.24L528.25 101.24C530.25 102.11 538.25 105.42 541.52 98.04C544.43 91.49 538.52 88.11 535.02 86.56L532.59 85.48L526.03 100.24Z" fill="white"/>
<path d="M598.72 127.77C596.77 120.42 592.65 117.11 590.22 115.53C580.95 109.53 570.22 112.29 564.14 121.69C558.29 130.69 560.28 141.91 569.37 147.8C573.765 150.496 579.024 151.408 584.07 150.35L579.07 158.09C574.169 157.864 569.415 156.346 565.29 153.69C559.625 150.143 555.581 144.512 554.03 138.01C553.1 134.522 552.938 130.873 553.556 127.317C554.174 123.76 555.557 120.38 557.61 117.41C562.72 109.55 569.51 106.23 575.29 105.16C582.4 103.87 588.43 105.78 594.29 109.6C598.39 112.076 601.659 115.718 603.68 120.06L598.72 127.77Z" fill="white"/>
<path d="M612.4 149.96L628.29 164.9L642.08 150.24L647.74 155.56L612.9 192.62L607.24 187.29L623.24 170.23L607.36 155.3L591.36 172.3L585.7 166.97L620.53 129.92L626.2 135.25L612.4 149.96Z" fill="white"/>
<path d="M620.73 200.22L671.68 177.73L649.4 214.82L692 206.88L652.64 246.01L648.11 239.51L670.29 217.73L634.75 224.47L653.53 193.54L625.27 206.73L620.73 200.22Z" fill="white"/>
<path d="M680.1 278.71L671.6 258.71L658.12 258.41L654.84 250.7L714.28 252.93L674.17 296.16L670.89 288.41L680.1 278.71ZM685.61 272.97L698.51 259.28L679.58 258.8L685.61 272.97Z" fill="white"/>
<path d="M676.03 302.85L729.13 291.6L699.03 335.71L733.49 328.41L735.1 336.02L682.3 347.2L712.46 303.09L677.66 310.41L676.03 302.85Z" fill="white"/>
<path d="M726.37 380.35C727.596 379.827 728.672 379.005 729.5 377.96C730.719 376.382 731.31 374.408 731.16 372.42C731 367.69 728.16 365.35 724.83 365.42C723.31 365.42 720.65 366.09 718.83 371.11L716.94 376.28C713.43 385.77 708.18 388.53 702.39 388.72C692.71 389.03 685.86 382.38 685.55 372.86C685.36 366.99 687.46 363.41 690.28 360.73C692.927 358.146 696.37 356.532 700.05 356.15L701.97 363.79C699.639 363.871 697.395 364.69 695.56 366.13C694.59 366.949 693.827 367.985 693.334 369.155C692.84 370.324 692.63 371.594 692.72 372.86C692.726 373.983 692.964 375.094 693.418 376.121C693.872 377.149 694.533 378.072 695.36 378.833C696.186 379.593 697.161 380.176 698.222 380.544C699.284 380.911 700.41 381.057 701.53 380.97C706.71 380.8 708.72 376.77 709.98 373.37L711.88 368.43C713.5 364.18 716.81 357.9 724.43 357.65C731.29 357.43 738.01 362.56 738.32 372.08C738.49 377.57 736.53 380.76 735.21 382.4C733.814 384.053 732.117 385.427 730.21 386.45L726.37 380.35Z" fill="white"/>
<path d="M406.44 592.07C406.88 593.52 407.33 594.65 407.55 595.81C408.06 598.51 406.73 599.75 404.13 598.75C399.43 597.02 394.5 595.993 389.5 595.7C389.005 595.613 388.498 595.628 388.009 595.745C387.521 595.862 387.062 596.078 386.66 596.38C382.8 599.44 380.07 598.53 376.46 594.65C374.65 592.65 373.04 592.65 371.25 594.74C369.84 596.37 369.66 598.44 369.25 600.37C368.72 602.75 367.25 603.92 365.16 603.32C363.27 602.78 363.69 600.72 363.98 599.11C364.118 598.536 364.292 597.972 364.5 597.42C365.93 593.1 365.93 593.11 361.81 590.84C360.65 590.21 359.54 589.46 358.33 588.92C355.33 587.6 353.5 588.19 352.16 591.14C350.94 593.79 350.29 594 348.27 591.53C344.8 587.29 339.56 585.53 334.74 583.18C333.83 582.74 332.88 582.38 331.95 581.97C331.02 581.56 330.15 581.4 331.31 579.75C332.63 577.86 330.87 576.02 329.18 575C327.76 574.14 325.85 573.95 324.85 575.63C323.7 577.58 322.66 576.76 321.45 575.96C316.03 572.33 311.81 567.41 307.77 562.41C306.988 561.243 305.965 560.257 304.77 559.52C297.15 555.52 296.77 547.31 299.31 541.26C301.12 536.86 300.38 534.85 296.21 532.36C293.69 530.86 291.21 529.21 288.8 527.58C288.179 527.208 287.654 526.694 287.27 526.08C283.589 519.635 281.703 512.321 281.81 504.9C281.81 503.46 283.17 503.18 284.23 502.97C289.643 502.011 295.173 501.899 300.62 502.64C304 503.04 306.67 503.04 309.21 499.64C314.21 492.89 320.13 486.79 325.63 480.39C328.748 476.79 330.741 472.353 331.36 467.63C332.05 462.77 335.15 458.99 338.17 455.28C338.913 454.199 339.76 453.195 340.7 452.28C343.43 450 345.02 447.96 342.83 444.04C340.93 440.64 343.63 437.87 347.71 438.29C348.61 438.39 349.91 439.06 350.14 437.59C350.188 437.095 350.063 436.599 349.786 436.187C349.509 435.775 349.096 435.472 348.62 435.33C347.31 434.82 346.14 433.91 344.8 433.46C337.8 431.13 335.97 425.46 336.2 419.08C336.35 414.91 336.2 410.58 337.75 406.52C338.59 404.27 339.19 401.9 340.23 399.76C341.62 396.93 342.53 394.2 341.32 391.06C341.15 390.465 341.14 389.835 341.291 389.235C341.442 388.634 341.749 388.084 342.18 387.64C344.99 384.24 348.26 381.64 353 381.73C353.548 381.764 354.097 381.685 354.613 381.497C355.13 381.31 355.602 381.018 356 380.64C359.39 377.64 360.62 377.55 364.07 380.39C365.97 381.96 366.53 381.52 367.19 379.39C368.76 374.31 370.62 372.5 373.59 372.98C375.75 373.33 377.97 373.56 380.08 374.04C387.25 375.67 394.26 375.04 401.42 373.91C406.04 373.21 410.85 372.71 414.76 370.48C419.1 368.01 421.43 368.77 424.92 372C429.87 376.59 436.05 379.73 441.84 383.27C442.18 383.48 442.55 383.92 442.84 383.87C446.37 383.4 448.6 384.87 449.84 388.19C450.12 388.92 450.99 388.95 451.68 388.43C452.439 387.825 453.065 387.069 453.516 386.209C453.968 385.349 454.235 384.405 454.302 383.436C454.369 382.468 454.233 381.496 453.904 380.582C453.575 379.669 453.059 378.833 452.39 378.13C451.61 377.366 451.054 376.403 450.78 375.346C450.507 374.288 450.528 373.176 450.84 372.13C451.3 369.95 451.79 368.33 454.7 368.01C457.08 367.75 456.15 364.83 456.7 363.14C456.805 362.841 456.837 362.521 456.793 362.207C456.75 361.893 456.633 361.594 456.451 361.334C456.269 361.074 456.029 360.861 455.749 360.713C455.468 360.564 455.157 360.484 454.84 360.48C447.55 360.03 444.09 355.16 441.52 349.24C437.81 340.66 435.52 331.93 439.08 322.67C440.35 319.38 442.48 316.52 443.41 313.04C445.638 304.896 445.721 296.315 443.65 288.13C442.05 281.85 442.72 276.4 447.06 271.47C450.83 267.17 451.06 262.18 449.73 256.9C448.64 252.54 447.36 248.2 446.64 243.77C446.195 241.054 446.346 238.274 447.081 235.622C447.817 232.97 449.12 230.509 450.9 228.41C453.17 225.55 455.78 222.95 458.24 220.23C463.7 214.23 468.78 216.13 472.74 220.67C478.377 226.856 481.383 234.995 481.12 243.36C480.908 246.088 480.263 248.765 479.21 251.29C477.402 255.864 477.32 260.94 478.98 265.57C483.06 276.44 481.42 287.09 478.08 297.74C475.68 305.38 476.18 313.19 477.08 320.98C477.623 326.565 477.135 332.202 475.64 337.61C474.1 343.7 472.22 349.55 468.7 354.8C468.53 355.05 468.48 355.45 468.25 355.59C464.73 357.77 463.85 361.05 463.67 365C463.49 368.95 461.33 372.38 459.57 375.88C458.95 377.11 458.2 378.53 459.2 380.17C461.85 384.53 462.83 389.5 463.58 394.42C464.18 398.42 465.3 402.33 464.97 406.42C464.83 408.18 464.37 409.2 462.46 409.57C459.92 410.06 457.85 413.57 458.46 416.02C458.78 417.36 459.65 418.34 461.12 417.66C462.074 417.283 463.095 417.106 464.12 417.14C468.9 417.13 473.507 415.349 477.05 412.14C482.12 407.67 487.91 409.31 493.2 412.68C495 413.84 496.71 415.14 499.07 414.68C502.98 413.91 505.82 415.68 507.97 418.68C508.329 419.221 508.829 419.655 509.415 419.933C510.002 420.211 510.654 420.324 511.3 420.26C513.63 420.2 514.55 418.9 513.3 416.92C512.907 416.482 512.69 415.914 512.69 415.325C512.69 414.736 512.907 414.168 513.3 413.73C513.775 413.143 514.062 412.427 514.127 411.675C514.191 410.923 514.028 410.169 513.66 409.51C513.161 408.687 512.924 407.731 512.981 406.77C513.038 405.809 513.387 404.888 513.98 404.13C515.04 404.27 514.98 405.33 515.39 405.94C516.23 407.05 516.76 407.08 517.14 405.62C519.3 397.41 524.94 391.85 531.51 387C529.28 385.22 528.87 385.17 526.75 387.29C525.858 388.106 524.801 388.72 523.65 389.09C523.55 388.81 523.29 388.45 523.38 388.27C523.871 387.233 524.725 386.411 525.78 385.96C530.69 383.96 530.67 379.12 531.9 375.1C533.919 368.076 535.423 360.913 536.4 353.67C536.86 350.67 538.13 350.6 540.3 351.79C541.19 352.27 542.05 352.79 543.13 353.44C544.552 348.454 545.477 343.339 545.89 338.17C546.308 333.851 545.591 329.497 543.81 325.54C542.12 321.59 543.97 318.27 546.06 315.33C548.215 312.43 550.794 309.872 553.71 307.74C554.751 306.869 556.004 306.287 557.342 306.053C558.679 305.82 560.055 305.943 561.33 306.41C565.19 307.55 569.12 308.49 572.92 309.81C574.86 310.48 575.51 312.81 577.02 314.1C577.69 314.69 578.02 315.73 578.74 316.19C584.74 320.08 584.25 325.57 582.81 331.49C581.04 338.76 576.96 344.68 572.38 350.33C569.077 354.461 565.29 358.181 561.1 361.41C558.94 363.06 559.35 366.56 558.19 369.11C554.97 376.17 552.58 383.68 546.76 389.27C543.53 392.36 540.33 392.9 536.25 390.91C535.37 390.48 534.68 390.14 533.85 391.08C533.637 391.263 533.463 391.487 533.339 391.74C533.215 391.992 533.144 392.267 533.13 392.548C533.116 392.828 533.16 393.109 533.258 393.372C533.355 393.636 533.506 393.877 533.7 394.08C538.51 399.66 536.25 405.58 532.52 410C529.173 413.974 525.217 417.393 520.8 420.13C517 422.49 513.91 425.52 514.26 430.59C514.38 432.821 515.271 434.942 516.78 436.59C518.35 438.32 519.38 440.22 518.23 442.64C517.94 443.25 517.45 443.91 517.98 444.64C519.27 446.46 519.09 448.57 518.9 450.56C518.583 454.892 517.826 459.181 516.64 463.36C515.523 466.699 515.426 470.295 516.36 473.69C516.651 474.835 516.496 476.047 515.926 477.082C515.356 478.116 514.413 478.895 513.29 479.26C508.4 481.31 505 485.36 500.7 488.2C497.98 490 495.02 491.2 492.22 492.83C490.71 493.68 490.46 494.07 491.53 495.46C494 498.67 494.88 502.55 495.85 506.38C495.92 506.575 495.937 506.786 495.9 506.99C493.78 512.76 496.06 518.8 494.9 524.62C494.812 525.427 494.542 526.203 494.11 526.89C491.79 529.77 493.11 532 495.33 533.99C497.05 535.57 498.51 536.9 497.65 539.7C497.01 541.77 497.92 543.97 498.65 546.07C501.43 554.5 499.59 562.47 495.4 569.85C492.104 575.967 489.385 582.378 487.28 589C486.287 591.74 485.479 594.543 484.86 597.39C483.93 602 480.67 604.09 476 602.92C474.887 602.58 473.701 602.559 472.577 602.86C471.452 603.16 470.435 603.77 469.64 604.62C468.01 606.15 466.24 607.51 464.56 608.99C462.27 610.99 459.92 612.46 456.88 610.34C456.23 609.88 455.37 609.25 454.7 609.34C445.79 610.65 439.81 604.34 432.7 600.99C428.06 598.85 423.59 596.33 418.63 594.93C417.46 594.6 416.37 594.29 415.24 595.19C413.44 596.63 411.89 595.82 410.5 594.41C409.4 593.49 408.49 592.35 406.44 592.07ZM458.21 428.86C455 426.81 454.75 425.42 457.06 422.52C457.91 421.44 458.69 420.62 456.6 419.92C454.51 419.22 454.8 417.38 455.23 415.76C455.45 414.93 455.82 414.18 455.04 413.54C454.26 412.9 453.53 413.27 452.78 413.69C449.743 415.344 447.065 417.584 444.9 420.28C442.1 423.77 441.36 427.65 441.6 432C441.81 435.8 440.5 436.57 436.95 435.19C436.58 435.05 436.23 434.76 435.89 435.19C434.09 437.31 432 436.13 430.13 435.52C428.073 434.935 426.184 433.869 424.62 432.41C424.465 432.21 424.269 432.045 424.045 431.928C423.82 431.811 423.573 431.744 423.32 431.731C423.067 431.719 422.815 431.762 422.58 431.856C422.345 431.951 422.134 432.096 421.96 432.28C421.09 433.28 422.34 433.68 422.82 434.14C424.82 436.04 426.51 438.23 429.23 439.2C430.32 439.59 431.38 440.28 430.92 441.67C430.46 443.06 429.22 443.2 427.92 443.15C421.52 442.9 415.09 442.38 409.11 445.51C408.781 445.668 408.415 445.732 408.052 445.697C407.689 445.662 407.342 445.528 407.05 445.31C405.26 443.96 403.91 444.92 402.92 446.31C401.44 448.31 399.32 449.43 397.33 450.68C391.83 454.16 390.16 453.88 385.98 448.97C385.722 448.548 385.333 448.223 384.873 448.042C384.413 447.862 383.906 447.836 383.43 447.97C380.43 448.32 379.73 449.76 379.7 452.39C379.652 453.709 379.31 455 378.7 456.17C377.57 458.39 378.48 460 379.89 461.58C381.59 463.48 383.21 465.46 385.03 467.24C385.557 467.645 385.94 468.209 386.12 468.849C386.3 469.489 386.269 470.17 386.03 470.79C384.75 473.96 386.03 475.98 388.64 477.67C392.14 479.96 392.26 482.29 388.78 484.41C387.791 484.932 387.012 485.779 386.575 486.808C386.138 487.837 386.069 488.986 386.38 490.06C386.879 492.25 387.863 494.301 389.26 496.06C391.26 498.91 390.99 499.7 387.55 500.41C385.65 500.8 386.13 501.54 386.62 502.68C387.02 503.61 387.88 503.94 388.51 504.57C390.91 506.94 393.6 509.33 392.96 513.09C392.65 514.97 392.96 516.09 394.32 517.28C395.68 518.47 396.65 519.7 394.7 521.28C393.7 522.06 394.28 522.84 394.89 523.66C396.35 525.61 397.8 527.66 397.98 530.16C398.175 532.64 399.109 535.005 400.66 536.95C402.93 539.95 404.45 543.37 406.18 546.67C406.55 547.36 407.02 547.87 407.86 547.67C408.7 547.47 408.39 546.67 408.43 546.13C408.475 545.517 408.475 544.902 408.43 544.29C407.84 537.93 411.16 533.57 416.21 530.69C420.21 528.45 424.67 527.18 428.92 525.43C429.864 525.011 430.888 524.806 431.92 524.83C432.262 524.882 432.612 524.829 432.923 524.677C433.234 524.525 433.491 524.282 433.66 523.98C435.321 521.791 436.822 519.485 438.15 517.08C438.99 515.34 438.96 513.21 440.42 511.76C440.845 511.382 441.152 510.889 441.303 510.341C441.454 509.793 441.442 509.212 441.27 508.67C440.11 502.47 441.96 499.94 448.27 498.19C448.864 498.049 449.408 497.747 449.844 497.319C450.279 496.891 450.589 496.352 450.74 495.76C451.74 491.51 455.33 488.65 456.74 484.58C457.042 483.926 457.484 483.347 458.035 482.883C458.587 482.42 459.234 482.084 459.93 481.9C463.39 480.57 465.1 474.52 462.66 471.66C461.04 469.76 459.76 467.4 458.16 465.8C453.85 461.5 450.62 455.95 444.84 453.19C444.15 452.86 443.19 452.46 444.32 451.5C445.95 450.1 451.18 450.5 452.7 451.98C453.818 453.018 454.989 453.996 456.21 454.91C456.8 455.38 457.43 455.73 458.1 455.06C458.255 454.923 458.38 454.754 458.465 454.566C458.55 454.377 458.594 454.172 458.594 453.965C458.594 453.758 458.55 453.553 458.465 453.364C458.38 453.176 458.255 453.007 458.1 452.87C456.81 451.43 455.49 450 454.1 448.66C453.35 447.95 452.5 446.95 451.28 447.55C449.22 448.55 448.04 447.18 447.28 445.85C446.826 445.15 446.654 444.303 446.798 443.481C446.943 442.659 447.394 441.923 448.06 441.42C449.058 440.417 449.832 439.214 450.33 437.89C450.482 437.683 450.59 437.447 450.648 437.197C450.705 436.947 450.712 436.687 450.666 436.435C450.62 436.182 450.523 435.941 450.381 435.727C450.239 435.513 450.055 435.33 449.84 435.19C448.48 434.27 448.38 434 449.72 433.29C452.42 431.64 455.31 430.3 458.21 428.86V428.86Z" fill="white"/>
<path d="M386.29 331.59C386.43 324.25 388.42 318.33 389.83 312.28C392.1 302.58 390.97 293.1 388 283.63C385.48 275.58 383.5 267.36 383.45 258.8C383.45 254.18 383.18 249.58 383.93 244.99C384.069 244.267 384.052 243.523 383.879 242.807C383.707 242.091 383.383 241.42 382.93 240.84C379.93 236.76 380.36 235.09 384.49 232.26C385.13 231.81 386.18 231.49 385.99 230.58C385.8 229.67 384.65 229.97 383.89 229.85C381.95 229.52 380.89 228.66 380.89 226.39C381.1 220.74 382.94 215.49 384.84 210.32C386.408 205.618 388.674 201.179 391.56 197.15C394.68 193.04 398.39 190.15 403.96 190.44C407.63 190.66 410.46 192.83 413.11 194.79C419.39 199.45 421.7 206.34 422.44 213.87C422.584 214.983 422.344 216.112 421.76 217.07C419.13 220.86 419.76 225.28 419.67 229.38C419.56 233.78 420.07 238.2 419.98 242.67C419.901 245.154 420.315 247.628 421.2 249.95C422.43 252.89 421.07 256.32 420.56 259.51C420.27 261.35 420.02 262.99 421.63 264.56C422.375 265.207 422.848 266.112 422.954 267.093C423.059 268.074 422.79 269.059 422.2 269.85C418.64 274.91 418.4 281.04 416.59 286.65C414.59 292.79 415.01 299.28 414.59 305.65C414.38 308.53 415.81 311.52 416.44 314.47C418.17 322.64 419.7 330.91 419.08 339.23C418.38 348.65 415.57 357.3 406.08 361.97C403.45 363.28 401.37 363.59 399.24 360.97C397.36 358.63 395.43 356.29 394.97 353.38C394.615 351.606 393.687 349.997 392.33 348.8C389.185 345.591 387.303 341.355 387.03 336.87C386.88 334.77 386.08 332.72 386.29 331.59Z" fill="white"/>
<path d="M343.67 258.73C344.13 262.36 343.32 266.73 342.49 270.96C342.219 272.132 342.364 273.363 342.9 274.44C346.49 281.51 348 289.21 349.78 296.83C350.206 298.603 350.321 300.437 350.12 302.25C349.37 307.71 354.82 310.74 354.92 315.6C355.12 324.8 359.86 333.08 360.05 342.24C360.12 342.647 360.12 343.063 360.05 343.47C358.3 348.1 360.48 352.1 361.81 356.35C363.01 360.18 364.01 364.35 359.81 367.3C359.611 367.472 359.489 367.715 359.468 367.977C359.447 368.239 359.531 368.499 359.7 368.7C361.29 371.29 359.58 372.35 357.61 373.37C354.85 374.79 352.26 376.37 348.97 376.7C346.993 376.951 344.985 376.748 343.098 376.107C341.211 375.466 339.495 374.403 338.08 373C337.65 372.631 337.309 372.171 337.082 371.652C336.855 371.133 336.747 370.57 336.767 370.004C336.787 369.439 336.935 368.885 337.198 368.384C337.462 367.882 337.835 367.447 338.29 367.11C339.6 365.97 339.29 365.17 338.71 364.11C333.54 354.9 331.51 344.76 329.71 334.51C329.29 332.09 327.91 329.81 326.79 327.56C323.408 320.472 320.728 313.07 318.79 305.46C317.89 302.13 316.35 299.07 315.21 295.85C313.698 291.059 312.771 286.103 312.45 281.09C312.242 278.788 311.278 276.619 309.71 274.92C306.13 270.683 303.152 265.972 300.86 260.92C298.91 256.6 300.41 253.4 305.25 251.16C306.078 250.812 306.883 250.412 307.66 249.96C308.72 249.31 309.11 249.05 308.26 247.74C308.014 247.439 307.842 247.085 307.759 246.705C307.676 246.326 307.683 245.932 307.78 245.556C307.878 245.18 308.063 244.832 308.32 244.541C308.577 244.25 308.899 244.023 309.26 243.88C310.83 243.07 310.26 242.37 309.04 241.5C303.59 237.61 303.24 236.39 306.66 230.6C310.61 223.94 318.12 221.39 325.54 224.28C330.81 226.33 334.43 229.89 337.44 234.97C341.751 242.129 343.913 250.377 343.67 258.73V258.73Z" fill="white"/>
<path d="M237.39 458.62C229.28 458.68 223.88 454.44 220.18 447.62C215.56 439.13 211.18 430.52 205.51 422.62C204.722 421.452 204.214 420.118 204.025 418.722C203.836 417.326 203.971 415.905 204.42 414.57C206.01 408.81 208.26 403.47 214.21 400.82C219.12 398.63 224.12 399.35 228.85 401.09C238.44 404.62 245.56 411.15 250.69 419.99C251.99 422.23 251.81 424.48 251.8 426.79C251.759 428.387 252.287 429.947 253.29 431.19C255.29 433.82 257.48 436.41 257.82 439.99C258.27 444.73 255.7 448.2 252.92 451.35C251.019 453.622 248.644 455.45 245.961 456.706C243.278 457.962 240.352 458.615 237.39 458.62Z" fill="white"/>
<path d="M253.86 457.88C254.74 457.88 255.59 457.72 256.3 458.68C258.266 461.273 260.723 463.454 263.53 465.1C263.932 465.315 264.268 465.637 264.499 466.031C264.73 466.424 264.848 466.874 264.84 467.33C264.72 468.08 263.62 468.18 262.84 468.33C260.289 469.034 257.565 468.723 255.239 467.463C252.912 466.203 251.164 464.091 250.36 461.57C249.79 459.87 251.68 457.87 253.86 457.88Z" fill="white"/>
<path d="M113.47 499.64L119.65 520.07L138.51 514.41L140.71 521.7L93.03 536.06L90.82 528.78L112.75 522.15L106.62 501.72L84.69 508.35L82.48 501.06L130.13 486.65L132.33 493.94L113.47 499.64Z" fill="white"/>
<path d="M149.15 557.41L140.8 539.41L129.36 544.71L137.46 562.18L130.96 565.18L122.86 547.72L108.64 554.29L116.99 572.29L110.49 575.29L98.94 550.41L144.1 529.47L155.65 554.41L149.15 557.41Z" fill="white"/>
<path d="M163.42 567.41L120.42 592.47L116.58 585.89L159.58 560.84L163.42 567.41Z" fill="white"/>
<path d="M173.39 582.82C176.93 587.72 178.59 591.3 178.72 595.17C178.95 601.73 174.43 605.54 172.72 606.81C170.153 608.807 166.957 609.821 163.709 609.671C160.46 609.52 157.372 608.215 155 605.99L146.85 630.99L141.47 623.55L149.64 600.06L148.85 598.98L132.3 610.95L127.84 604.78L168.18 575.62L173.39 582.82ZM154.13 595.17L155.53 597.1C156.76 598.8 161.92 605.56 168.33 600.93C174.02 596.82 170.67 591.04 168.49 588.02L166.96 585.9L154.13 595.17Z" fill="white"/>
<path d="M195.28 610.41C199.68 615.08 201.85 618.57 201.88 623.06C201.874 624.892 201.474 626.702 200.706 628.365C199.938 630.029 198.821 631.507 197.43 632.7C195.984 634.188 194.141 635.229 192.12 635.7C190.457 636.108 188.708 635.982 187.12 635.34C188.355 637.51 188.977 639.974 188.92 642.47C188.627 645.882 186.999 649.041 184.39 651.26C183.257 652.445 181.896 653.388 180.389 654.035C178.882 654.681 177.26 655.016 175.62 655.02C169.87 655.02 165.13 650.97 162.52 648.2L153.96 639.14L190.16 604.97L195.28 610.41ZM164.35 639.71L167.52 643.08C169.01 644.65 171.63 646.89 174.11 647.23C175.148 647.331 176.196 647.205 177.181 646.86C178.165 646.514 179.063 645.958 179.81 645.23C181.242 643.925 182.11 642.114 182.23 640.18C182.23 637.27 180.32 634.9 178.48 632.94L175.2 629.47L164.35 639.71ZM179.76 625.17L181.34 626.85C182.63 628.21 184.53 629.85 187.01 630.02C188.04 630.002 189.055 629.772 189.993 629.346C190.93 628.919 191.77 628.305 192.46 627.54C193.142 626.983 193.695 626.285 194.083 625.495C194.472 624.705 194.685 623.84 194.71 622.96C194.71 620.59 193.4 618.86 191.91 617.28L190.12 615.41L179.76 625.17Z" fill="white"/>
<path d="M222.12 636.41C226.81 640.24 229.34 643.27 230.46 646.97C232.37 653.25 228.99 658.1 227.62 659.78C225.654 662.369 222.828 664.172 219.651 664.863C216.474 665.554 213.154 665.088 210.29 663.55L208.87 689.84L201.76 684.04L203.59 659.24L202.59 658.39L189.67 674.16L183.77 669.35L215.24 630.78L222.12 636.41ZM206.7 653.31L208.55 654.81C210.17 656.14 216.91 661.34 221.91 655.21C226.34 649.78 221.62 645.06 218.73 642.7L216.73 641.05L206.7 653.31Z" fill="white"/>
<path d="M250.09 657.41L234.64 683.12C233.26 685.43 231.64 688.28 231.56 691.29C231.589 693.142 232.09 694.957 233.015 696.562C233.94 698.167 235.259 699.51 236.847 700.464C238.436 701.418 240.241 701.951 242.092 702.013C243.944 702.076 245.781 701.665 247.43 700.82C250.06 699.35 251.81 696.57 253.19 694.27L268.64 668.55L275.17 672.47L258.68 699.91C256.389 704.082 252.572 707.207 248.03 708.63C245.544 709.28 242.953 709.426 240.409 709.06C237.866 708.694 235.421 707.823 233.22 706.498C231.018 705.173 229.103 703.421 227.589 701.345C226.074 699.269 224.99 696.911 224.4 694.41C223.528 689.749 224.488 684.931 227.08 680.96L243.56 653.52L250.09 657.41Z" fill="white"/>
<path d="M297.4 707.76L316.55 715.16L316.41 715.51C313.34 723.44 308.47 729 302.25 731.64C295.64 734.44 289.45 733.49 284.16 731.44C277.41 728.83 273.36 725.02 270.81 718.99C268.373 713.175 268.092 706.681 270.016 700.676C271.94 694.672 275.944 689.551 281.307 686.235C286.669 682.919 293.039 681.626 299.271 682.587C305.502 683.548 311.186 686.702 315.3 691.48C317.697 694.319 319.356 697.706 320.13 701.34L312.96 703.13C312.271 700.402 311.021 697.848 309.29 695.63C307.338 693.249 304.767 691.453 301.86 690.44C299.627 689.501 297.227 689.022 294.804 689.032C292.381 689.042 289.985 689.542 287.76 690.5C283.51 692.38 279.76 696.59 277.76 701.61C275.937 706.25 275.912 711.403 277.69 716.06C279.57 720.71 283.05 723.5 287.51 725.22C289.409 726.032 291.455 726.443 293.519 726.427C295.584 726.412 297.624 725.97 299.51 725.13C302.519 723.923 304.986 721.662 306.45 718.77L294.89 714.3L297.4 707.76Z" fill="white"/>
<path d="M527.4 673.9C533.54 670.66 539.23 668.49 546.03 669.54C553.5 670.74 560.03 675.54 563.86 682.83C567.69 690.12 568.04 698.09 564.39 705.25C561.16 711.59 556.66 714.73 550.52 717.98L541.42 722.79L518.17 678.79L527.4 673.9ZM544.8 712.9L547.7 711.36C551 709.62 555.42 706.95 557.7 702.09C558.829 699.612 559.365 696.904 559.266 694.183C559.167 691.461 558.436 688.8 557.13 686.41C555.903 683.953 554.123 681.813 551.93 680.16C549.737 678.506 547.19 677.384 544.49 676.88C539.2 676.13 534.38 678.34 531.15 680.05L528.24 681.59L544.8 712.9Z" fill="white"/>
<path d="M565.6 647.82L572.41 646.05L575.67 666.41L570.49 667.65L565.6 647.82Z" fill="white"/>
<path d="M599.82 649.27L615.41 634.69L601.95 620.3L607.51 615.1L641.51 651.45L635.95 656.65L620.3 639.92L604.71 654.5L620.36 671.23L614.81 676.43L580.81 640.08L586.37 634.88L599.82 649.27Z" fill="white"/>
<path d="M662.95 606L650.13 623L656.43 634.59L651.48 641.14L624.38 589.62L680.63 602.55L675.63 609.11L662.95 606ZM655.38 604.13L637.48 599.86L646.3 616.15L655.38 604.13Z" fill="white"/>
<path d="M688.19 589.98L640.7 566.16L690.7 550.84L659.89 535.41L663.3 528.61L710.53 552.29L660.53 567.62L691.62 583.21L688.19 589.98Z" fill="white"/>
<path d="M670.03 507.97C671.95 501.3 674.35 495.7 679.83 491.54C685.83 487 693.83 485.64 701.76 487.94C709.69 490.24 715.65 495.53 718.27 503.12C720.6 509.85 719.73 515.27 717.8 521.94L714.94 531.83L667.03 518.01L670.03 507.97ZM710.17 522.53L711.03 519.41C712.03 515.82 713.22 510.79 711.33 505.74C710.322 503.205 708.738 500.939 706.701 499.124C704.665 497.308 702.234 495.992 699.6 495.28C696.981 494.456 694.207 494.249 691.495 494.678C688.783 495.107 686.207 496.158 683.97 497.75C679.76 501.04 677.97 506.05 676.97 509.56L676.06 512.72L710.17 522.53Z" fill="white"/>
</g>
<defs>
<clipPath id="clip0_1_2">
<rect width="807.34" height="929.73" fill="white"/>
</clipPath>
</defs>
</svg>
