<svg width="868" height="999" viewBox="0 0 868 999" fill="none" xmlns="http://www.w3.org/2000/svg">
<path d="M449.616 0.72998C451.613 1.66412 452.837 2.49088 450.904 5.02486C447.984 8.68625 446.91 13.2281 445.665 17.6518C444.043 23.4929 440.618 26.3919 434.369 26.9717C425.056 27.8122 415.696 28.0095 406.356 27.5623C401.653 27.3582 401.642 26.9932 403.854 22.8164C405.497 19.7026 405.765 16.2023 406.302 12.8093C407.676 4.21957 408.632 3.22101 417.265 1.66412C417.954 1.47768 418.629 1.24083 419.283 0.955461L449.616 0.72998Z" fill="white"/>
<path d="M0.242401 416.56C1.11211 416.228 1.8315 415.487 2.94817 416.335C7.11421 419.631 12.1929 420.941 17.1105 422.53C22.8227 424.356 26.2157 427.437 26.6667 434.137C27.3109 443.801 26.6667 453.464 26.6022 463.128C26.6022 464.921 25.9687 465.425 24.283 464.899C17.2823 462.698 10.3246 460.465 3.25955 458.382C1.30538 457.802 1.54161 456.428 1.44497 455.021C1.11212 449.728 1.75635 444.359 0.371251 439.141L0.242401 416.56Z" fill="white"/>
<path d="M867.068 435.393C865.564 439.549 866.595 443.983 865.726 448.214C865.242 450.576 864.652 450.823 862.408 449.846C858.209 447.999 853.818 446.571 849.523 445.025C845.454 443.564 842.458 441.052 841.653 436.65C839.505 425 840.461 413.232 839.806 400.712C845.322 403.752 851.318 405.825 857.533 406.843C862.547 407.799 865.758 411.224 866.96 416.324L867.068 435.393Z" fill="white"/>
<path d="M595.545 999C594.783 995.349 592.088 992.783 590.177 989.777C588.931 987.79 588.555 986.555 590.52 984.687C595.352 980.145 599.636 975.024 604.758 970.729C607.979 968.077 610.491 968.581 613.423 971.309C616.354 974.036 616.021 976.677 613.551 979.469C607.825 985.911 602.098 992.404 596.372 998.946L595.545 999Z" fill="white"/>
<path d="M461.341 819.345C462.522 829.009 467.977 835.515 473.721 841.893C474.741 842.967 476.824 844.041 474.494 846.016C463.338 855.444 452.075 864.678 437.633 868.811C429.814 870.945 421.633 871.402 413.625 870.154C411.069 869.81 409.727 868.672 410.006 865.859C410.328 861.399 411.227 856.999 412.68 852.77C413.754 849.796 415.719 847.208 418.865 846.564C434.498 843.343 445.708 833.067 457.035 823.017C458.216 822.008 459.419 820.977 461.341 819.345Z" fill="white"/>
<path d="M514.168 799.481C525.12 799.707 534.472 801.629 542.74 807.287C547.034 810.208 547.034 811.893 542.439 814.202C532.775 819.066 522.811 822.985 511.935 824.585C503.796 825.777 495.915 828.354 489.913 834.581C488.42 836.138 486.981 836.095 485.285 835.129C478.381 831.156 473.753 825.24 470.532 818.089C469.544 815.866 470.285 814.202 472.4 813.053C485.843 805.795 499.726 800.018 514.168 799.481Z" fill="white"/>
<path d="M399.86 910.193C408.138 904.319 415.418 899.155 422.708 894.022C423.211 893.724 423.775 893.544 424.358 893.498C424.94 893.451 425.526 893.539 426.069 893.754C439.931 897.662 453.986 901.066 466.312 909.054C475.525 915.024 475.739 917.397 467.708 924.945C467.075 925.536 466.452 926.137 465.775 926.674C452.783 936.875 454.931 935.371 443.743 927.995C435.486 922.551 426.187 919.405 416.9 916.184L399.86 910.193Z" fill="white"/>
<path d="M363.783 806.16C360.101 813.636 358.176 821.856 358.156 830.19C358.103 832.001 357.646 833.777 356.82 835.389C355.993 837.001 354.817 838.409 353.378 839.51C345.391 846.159 338.271 853.785 332.183 862.208C330.605 864.409 329.574 864.355 327.469 862.766C320.641 857.731 317.28 850.44 313.951 843.064C313.737 842.608 313.647 842.104 313.69 841.602C313.734 841.101 313.909 840.62 314.198 840.207C325.408 821.815 342.008 811.292 363.783 806.16Z" fill="white"/>
<path d="M568.24 817.616C564.826 824.456 565.567 832.069 565.019 839.477C564.751 843.117 563.537 845.673 560.306 847.562C547.257 855.268 533.383 861.48 518.946 866.084C518.044 866.363 517.024 867.265 516.144 866.406C515.263 865.547 516.079 864.549 516.38 863.615C518.269 857.795 518.463 851.696 519.139 845.694C519.687 840.905 521.641 837.104 525.979 834.839C538.833 828.318 552.03 822.497 565.513 817.402C565.93 817.139 566.421 817.018 566.912 817.056C567.404 817.095 567.87 817.291 568.24 817.616Z" fill="white"/>
<path d="M306.639 857.935C309.452 861.993 311.89 866.245 315.487 869.584C317.924 871.839 320.233 874.534 323.389 875.501C327.684 876.811 329.316 879.892 330.122 883.618C332.054 893.284 336.664 902.213 343.425 909.387C346.936 913.113 346.056 915.26 340.955 916.485C335.471 917.712 329.886 918.43 324.27 918.632C318.665 918.943 314.939 916.635 312.351 911.846C304.47 897.286 301.464 881.921 304.631 865.526C305.072 863.271 305.533 861.005 306.006 858.761C306.049 858.504 306.306 858.343 306.639 857.935Z" fill="white"/>
<path d="M396.51 805.859C411.413 804.785 423.836 810.669 435.164 819.592C439.018 822.62 439.008 823.253 435.088 826.26C430.829 829.491 426.161 832.145 421.205 834.152C418.403 835.362 415.242 835.446 412.379 834.388C405.486 832.004 398.206 831.95 391.023 831.392C387.136 831.092 383.228 830.963 379.373 830.426C374.735 829.792 373.478 827.752 375.379 823.608C377.848 818.239 380.747 813.085 383.432 807.803C383.746 807.153 384.258 806.619 384.895 806.279C385.532 805.94 386.26 805.811 386.975 805.913C390.164 805.934 393.331 805.881 396.51 805.859Z" fill="white"/>
<path d="M456.842 891.735C484.351 879.409 510.367 880.429 537.092 895.44C524.207 897.974 515.403 907.251 503.527 909.677C496.409 911.116 489.848 910.654 483.631 905.608C476.684 899.96 467.976 897.115 459.924 893.271C459.15 892.906 458.388 892.508 456.842 891.735Z" fill="white"/>
<path d="M581.125 934.555C577.227 935.006 573.953 935.285 570.71 935.769C565.921 936.488 561.24 938.077 557.739 941.287C552.639 945.947 551.63 945.894 545.757 939.967C538.166 932.3 531.337 923.861 521.866 918.202C518.946 916.463 520.524 914.53 522.403 913.081C530.209 907.047 538.885 905.157 548.462 907.895C553.86 909.515 558.902 912.142 563.323 915.636C570.162 920.844 575.595 927.351 581.125 934.555Z" fill="white"/>
<path d="M466.978 943.124C473.258 935.855 479.94 928.944 486.992 922.422C488.069 921.455 489.373 920.776 490.783 920.447C492.192 920.119 493.662 920.152 495.056 920.543C499.995 921.617 504.988 922.369 510.088 921.134C510.769 920.887 511.519 920.919 512.177 921.223C512.834 921.526 513.345 922.077 513.599 922.755C516.67 928.682 520.943 933.793 525.109 938.947C526.741 940.965 526.43 941.985 524.304 943.167C512.149 949.931 499.436 952.766 485.65 949.136C479.433 947.504 473.087 946.27 466.978 943.124Z" fill="white"/>
<path d="M621.025 806.632C620.659 810.217 620.48 813.819 620.488 817.423C620.821 823.414 617.921 826.571 612.585 828.654C603.34 832.283 594.224 836.256 585.119 840.25C581.447 841.861 580.588 840.465 580.588 837.029C580.454 829.519 581.579 822.039 583.917 814.9C584.319 813.689 584.998 812.589 585.901 811.687C586.803 810.785 587.903 810.106 589.114 809.703C598.67 805.698 608.054 801.264 617.449 796.818C619.876 795.67 621.089 795.476 620.842 798.794C620.638 801.371 620.842 803.991 620.842 806.579L621.025 806.632Z" fill="white"/>
<path d="M372.276 842.817C381.939 843.225 391.399 845.157 400.944 846.521C404.047 846.961 405.121 848.099 403.843 851.342C401.642 856.947 399.548 862.616 399.452 868.822C399.452 871.99 396.821 871.453 394.953 871.238C386.965 870.194 379.056 868.619 371.277 866.524C364.861 864.937 358.561 862.91 352.423 860.458C348.847 859.008 348.933 857.387 351.199 854.799C354.334 851.221 357.804 847.949 361.56 845.028C364.77 842.516 368.528 842.613 372.276 842.817Z" fill="white"/>
<path d="M576.476 876.392C576.948 885.443 573.652 892.616 570.034 899.724C569.014 901.753 567.596 901.871 565.792 900.916C558.985 897.469 552.167 894.087 545.392 890.597C542.45 889.072 541.226 887 542.911 883.564C544.372 880.579 544.554 877.186 544.468 873.901C544.348 872.448 544.675 870.993 545.404 869.73C546.133 868.468 547.23 867.458 548.548 866.836C555.646 863.346 562.818 860.007 569.969 856.625C572.417 855.454 572.997 857.28 573.491 858.976C575.217 864.632 576.22 870.484 576.476 876.392Z" fill="white"/>
<path d="M41.4196 251.862C44.426 257.145 49.2685 260.807 53.864 264.747C55.5783 266.099 56.8497 267.933 57.5154 270.012C58.1811 272.091 58.2108 274.322 57.6005 276.418C55.1417 286.544 51.0723 296.089 47.325 305.752C46.4446 308.018 45.3601 308.233 43.5026 306.826C37.0603 301.898 31.5413 295.971 25.6574 290.441C25.2879 290.109 25.0454 289.658 24.9709 289.167C24.8965 288.675 24.9949 288.173 25.2493 287.746C29.7482 276.526 33.7317 265.091 39.0359 254.192C39.242 253.655 39.5617 253.169 39.9731 252.767C40.3845 252.365 40.8779 252.056 41.4196 251.862Z" fill="white"/>
<path d="M489.505 31.2988C478.649 30.1606 468.385 28.9795 458.045 27.938C455.446 27.6696 455.113 26.8643 456.262 24.5129C458.581 19.7348 460.557 14.785 462.705 9.89953C464.669 5.41138 467.644 2.94182 473.012 3.18878C483.797 3.71335 494.548 4.78847 505.224 6.40994C508.445 6.88238 509.401 7.81651 506.716 10.5223C503.399 13.8723 501.906 18.3068 500.124 22.5587C498.008 27.4871 494.82 31.1055 489.505 31.2988Z" fill="white"/>
<path d="M160.474 132.819C160.13 126.022 157.489 121.008 154.944 116.026C151.218 108.65 151.637 105.643 157.757 100.049C165.746 92.7263 174.668 86.6061 183.645 79.6484C186.254 86.7887 189.217 93.435 190.291 100.693C190.616 102.265 190.526 103.894 190.031 105.421C189.536 106.948 188.652 108.319 187.467 109.401C178.748 117.132 169.89 124.648 160.474 132.819Z" fill="white"/>
<path d="M617.965 41.4777C610.685 45.9444 605.778 51.8821 599.958 56.7782C596.909 59.3444 593.956 60.2249 590.101 58.625C580.932 54.8455 571.687 51.2593 562.421 47.716C560.435 46.9537 560.381 46.2343 561.583 44.6881C564.805 40.4791 567.94 36.0984 571.247 31.9323C574.554 27.7663 578.978 26.4778 583.971 27.9166C595.449 31.2344 606.304 36.1735 617.965 41.4777Z" fill="white"/>
<path d="M123.72 168.853C121.358 163.195 117.911 158.76 114.916 154.036C111.92 149.311 111.877 144.834 115.335 140.41C122.37 131.631 130.159 123.483 138.613 116.058C139.89 114.899 141.523 113.825 141.834 116.703C142.628 123.456 146 129.222 148.588 135.299C149.348 136.76 149.629 138.422 149.39 140.051C149.151 141.68 148.404 143.192 147.256 144.372C140.052 153.126 132.183 161.31 123.72 168.853Z" fill="white"/>
<path d="M824.43 616.541C823.356 611.172 819.341 607.865 815.765 604.333C808.41 597.074 807.745 594.669 811.707 585.22C815.497 576.201 819.62 567.321 823.883 557.744C830.121 564.014 836.585 569.233 841.373 576.126C841.935 576.775 842.307 577.567 842.447 578.414C842.587 579.261 842.49 580.13 842.168 580.925C837.475 592.871 831.931 604.465 825.579 615.617C825.386 615.961 824.924 616.154 824.43 616.541Z" fill="white"/>
<path d="M766.331 711.125C763.743 704.575 759.459 699.958 756.303 694.632C754.155 691.068 753.973 687.889 756.066 684.121C761.972 673.523 769.907 664.321 776.242 653.487C778.303 659.833 782.244 664.225 785.905 668.842C791.585 675.95 791.735 678.645 786.539 686.15C780.569 694.793 774.395 703.276 766.331 711.125Z" fill="white"/>
<path d="M1.99257 471.75C8.44574 474.713 15.3343 476.616 22.3933 477.387C25.8184 477.838 27.4612 480.951 28.5135 484.076C32.0031 494.512 32.7439 505.55 35.3209 516.18C35.804 518.188 34.6552 518.8 32.8728 518.553C26.4305 517.683 19.9881 517.286 13.6961 515.461C8.83218 514.033 7.25381 509.953 6.30894 505.636C4.44066 497.326 3.58168 488.843 2.61533 480.404C2.26101 477.719 1.20876 475.067 1.99257 471.75Z" fill="white"/>
<path d="M655.684 91.6419C662.964 88.2704 668.215 83.2024 674.27 79.2941C677.148 77.4365 679.575 77.3399 682.559 79.2189C692.814 85.6612 702.101 93.3706 712.173 100.822C705.269 105.321 698.923 109.852 691.718 112.837C690.097 113.514 688.368 114.126 686.693 113.32C675.29 107.877 665.53 100.146 655.684 91.6419Z" fill="white"/>
<path d="M48.1732 633.463C55.947 634.815 62.1316 633.624 68.2303 631.777C73.2231 630.284 76.8201 632.904 79.9124 636.469C84.7227 642.074 88.5022 648.398 92.2495 654.722C94.1822 657.943 98.6918 661.401 97.2423 664.493C96.0719 667.027 90.4241 666.168 86.795 666.984C84.2717 667.553 81.5337 667.371 79.1393 668.208C71.3227 670.946 67.264 667.585 63.8496 660.692C59.4044 651.694 53.9284 643.255 48.1732 633.463Z" fill="white"/>
<path d="M799.176 666.598C797.727 661.229 793.872 657.514 790.264 653.713C785.508 648.656 784.133 643.577 787.537 636.952C791.671 628.889 795.246 620.524 799.681 612.6C801.002 610.26 802.151 609.851 804.223 611.773C809.367 616.412 814.072 621.516 818.278 627.02C819.266 628.341 819.888 629.619 819.105 631.38C813.857 643.558 807.495 655.225 800.1 666.233C799.971 666.394 799.606 666.415 799.176 666.598Z" fill="white"/>
<path d="M237.535 817.874C234.876 817.84 232.261 817.197 229.89 815.995C221.122 811.922 212.698 807.146 204.7 801.715C202.392 800.201 202.048 799.009 204.453 797.291C210.445 792.996 216.554 788.916 222.105 784.052C223.297 782.978 224.424 783.257 225.67 783.923C235.333 789.098 245.061 794.145 254.66 799.449C258.558 801.596 258.429 802.069 254.714 804.882C251.559 807.42 248.744 810.354 246.339 813.611C244.074 816.478 241.239 818.271 237.535 817.874Z" fill="white"/>
<path d="M665.82 768.343C665.573 775.859 668.139 781.572 669.503 787.595C670.867 793.619 669.052 798.332 663.973 801.382C655.48 806.536 646.794 811.324 638.204 816.285C636.218 817.434 635.219 817.219 634.886 814.61C633.931 807.33 632.739 800.082 631.665 792.824C631.502 792.272 631.525 791.682 631.73 791.144C631.936 790.607 632.313 790.152 632.803 789.85C643.455 782.892 654.138 775.913 665.82 768.343Z" fill="white"/>
<path d="M49.0967 571.23C43.7281 568.707 38.0052 569.748 32.454 569.673C24.283 569.576 22.5329 568.535 19.6445 560.868C16.1562 551.726 13.3251 542.347 11.1729 532.801C10.4642 529.645 11.5702 528.914 14.3941 529.183C21.6827 529.966 28.9257 531.128 36.0939 532.662C36.9691 532.78 37.7881 533.16 38.4434 533.752C39.0987 534.345 39.5597 535.121 39.7661 535.98C41.9135 547.05 46.552 557.357 49.1826 568.277C49.3973 568.742 49.5013 569.251 49.4864 569.763C49.4715 570.276 49.3381 570.778 49.0967 571.23Z" fill="white"/>
<path d="M831.871 348.1C837.862 351.01 843.542 351.643 849.362 351.6C854.924 351.6 858.607 354.285 860.346 359.632C863.009 367.781 863.771 376.274 864.802 384.714C865.285 388.633 866.413 392.552 865.607 397.019C860.453 393.153 854.569 392.327 848.814 391.231C842.619 390.061 838.925 387.055 837.905 380.398C836.295 369.886 834.029 359.471 831.871 348.1Z" fill="white"/>
<path d="M506.781 32.5873C511.43 30.5472 512.708 27.1113 514.297 23.9975C515.37 21.8501 516.358 19.5416 517.518 17.3834C519.902 12.9275 523.724 10.9411 528.652 11.682C540.463 13.5288 551.974 16.9325 563.441 20.3254C563.964 20.5854 564.454 20.9061 564.901 21.281C559.35 23.9009 556.752 28.4749 554.518 33.3819C552.081 38.7505 547.593 41.0267 541.891 40.6295C530.166 39.8242 518.989 36.603 506.781 32.5873Z" fill="white"/>
<path d="M842.146 286.436C832.633 285.448 823.893 284.579 815.239 283.645C814.521 283.573 813.836 283.309 813.255 282.88C812.675 282.451 812.222 281.873 811.943 281.207C807.347 271.92 802.677 262.675 798.757 253.076C797.576 250.187 797.77 248.706 801.581 248.555C806.886 248.351 812.158 247.374 817.44 246.816C822.336 246.301 826.03 248.459 827.941 252.797C832.751 263.695 837.229 274.733 842.146 286.436Z" fill="white"/>
<path d="M273.429 809.091L275.888 809.725C286.174 812.505 295.977 816.693 306.027 820.183C307.96 820.859 308.712 821.557 306.854 823.296C302.43 827.452 298.801 832.305 294.946 836.965C291.919 840.615 288.644 842.022 283.629 840.186C273.901 836.643 264.27 832.86 254.736 828.837C252.921 828.074 251.031 827.441 253.168 824.982C258.046 819.288 263.615 814.223 269.746 809.907C270.818 809.16 272.142 808.866 273.429 809.091Z" fill="white"/>
<path d="M764.849 190.854C762.391 191.176 760.651 189.962 759.191 188.266C752.341 180.288 745.533 172.278 738.661 164.333C737.298 162.744 737.223 161.82 739.359 160.918C744.255 158.846 749.023 156.559 753.93 154.476C759.395 152.092 764.044 153.402 767.888 157.783C774.899 165.632 780.88 174.286 787.29 182.607C788.138 183.681 788.6 184.68 786.861 185.131C779.549 187.02 772.398 189.715 764.849 190.854Z" fill="white"/>
<path d="M77.7113 681.909C84.4113 683.315 89.2108 681.168 93.946 679.128C101.108 676.036 107.024 677.378 112.199 683.154C118.094 689.693 123.505 696.608 128.82 703.619C131.064 706.583 130.538 707.764 126.802 708.677C120.843 710.115 115.023 712.284 109.128 714.12C107.249 714.711 105.424 714.883 103.878 713.337C94.2578 703.642 85.5024 693.126 77.7113 681.909Z" fill="white"/>
<path d="M856.942 524.008C855.668 532.928 853.919 541.773 851.703 550.507C850.854 553.997 849.781 557.443 848.89 560.933C848.385 562.93 847.44 563.145 845.808 562.007C839.25 557.281 832.985 552.161 827.05 546.674C825.633 545.428 825.976 544.14 826.331 542.765C828.843 532.1 831.374 521.445 833.922 510.801C834.266 509.373 834.545 507.505 836.585 509.19C841.642 513.378 847.913 515.514 853.26 519.176C855.053 520.421 856.921 521.678 856.942 524.008Z" fill="white"/>
<path d="M26.409 413.758C21.8779 409.377 17.175 408.314 12.6868 406.822C4.56948 404.127 2.56163 401.507 2.69048 392.863C2.86227 381.332 4.94529 369.982 6.20155 357.495C11.7849 363.379 18.4527 366.085 24.8843 369.22C26.071 369.784 27.0909 370.646 27.8438 371.723C28.5967 372.8 29.0569 374.054 29.1792 375.362C30.4891 388.042 27.8048 400.337 26.409 413.758Z" fill="white"/>
<path d="M40.3995 324.994C40.4747 329.192 39.3258 333.24 38.3809 337.298C36.6316 343.99 35.3118 350.786 34.4296 357.645C34.3115 358.816 34.2686 360.147 33.0338 360.577C31.4984 361.114 31.3588 359.503 30.6501 358.665C27.8048 355.444 23.8105 353.952 20.0955 352.084C11.1406 347.563 9.89513 345.158 11.7849 335.301C13.5458 326.089 16.3804 317.166 18.8392 308.136C19.5157 305.656 20.5572 304.539 22.8764 306.783C26.4304 310.241 30.736 312.603 35.0202 314.997C38.8963 317.166 40.872 320.419 40.3995 324.994Z" fill="white"/>
<path d="M100.163 156.28C104.672 162.958 109.246 168.885 112.317 175.779C113.112 177.572 113.552 179.386 112.639 181.147C106.852 192.636 99.1213 202.815 90.9181 213.885C90.5315 208.151 87.6969 204.876 84.4758 201.73C82.9396 200.209 81.575 198.524 80.4064 196.705C76.4765 190.532 76.5517 188.116 80.8573 182.296C87.1386 173.76 93.5165 165.245 100.163 156.28Z" fill="white"/>
<path d="M753.081 139.551C746.918 142.826 741.271 146.273 734.828 148.141C732.599 148.807 730.244 148.936 727.956 148.516C725.668 148.096 723.512 147.139 721.664 145.725C714.245 140.357 707.932 133.85 701.704 127.225C699.503 124.874 699.964 123.639 702.906 122.178C708.178 119.559 713.182 116.38 718.304 113.438C720.838 111.978 723.06 112.268 725.455 114.072C735.44 121.545 743.826 130.693 753.081 139.551Z" fill="white"/>
<path d="M768.468 202.246C776.703 202.439 783.597 200.217 790.501 198.273C794.044 197.275 796.653 197.844 798.865 200.764C805.758 209.901 811.266 219.855 816.377 230.044C817.601 232.493 817.161 233.609 814.112 233.813C808.947 234.157 803.782 234.79 798.661 235.617C793.163 236.498 789.234 234.661 786.206 230.002C780.397 221.068 775.393 211.619 768.468 202.246Z" fill="white"/>
<path d="M609.589 66.8926C615.366 61.1482 620.455 55.64 626.243 50.7868C628.766 48.6931 631.064 48.3065 634.102 49.8419C643.69 54.5131 653.01 59.7144 662.019 65.4216C665.852 67.9234 665.691 68.4066 662.191 71.0694C658.068 74.2261 654.041 77.5117 650.09 80.8832C648.898 82.0337 647.383 82.7915 645.747 83.0545C644.111 83.3175 642.435 83.0731 640.942 82.3542C630.226 78.113 620.241 72.3471 609.589 66.8926Z" fill="white"/>
<path d="M858.145 341.056C852.572 337.91 847.569 337.61 842.501 337.502C832.107 337.288 830.4 336.268 826.986 326.669C824.097 318.551 821.821 310.208 819.115 302.027C818.396 299.879 819.115 299.149 821.08 298.805C828.358 297.696 835.784 298.036 842.93 299.804C843.654 299.882 844.346 300.143 844.941 300.561C845.537 300.98 846.016 301.544 846.334 302.198C851.13 314.874 855.075 327.856 858.145 341.056Z" fill="white"/>
<path d="M677.18 768.172C677.126 763.243 678.651 760.086 681.282 757.724C688.905 750.895 696.7 744.249 704.453 737.56C705.73 736.486 706.804 735.928 707.309 738.419C708.275 743.122 710.594 747.331 712.752 751.561C715.662 757.263 715.125 762.374 710.53 766.958C703.143 774.324 694.725 780.401 686.35 786.543C684.073 788.207 682.506 788.261 682.42 784.642C682.323 780.852 680.863 777.352 679.285 773.905C678.265 771.715 677.169 769.492 677.18 768.172Z" fill="white"/>
<path d="M754.832 720.863C755.003 724.911 752.996 728.079 750.59 730.999C744.481 738.387 736.815 744.185 729.696 750.423C728.289 751.658 727.548 751.325 726.85 749.746C724.467 744.378 721.686 739.117 719.893 733.469C719.305 731.677 719.178 729.766 719.523 727.912C719.868 726.058 720.675 724.321 721.868 722.861C728.171 714.378 735.623 706.927 743.107 699.518C744.266 698.358 745.501 697.37 745.866 700.141C746.424 704.307 748.872 707.56 751.116 710.878C753.124 713.938 754.95 717.041 754.832 720.863Z" fill="white"/>
<path d="M202.263 99.2331C202.757 92.3827 200.115 87.0356 198.58 81.4093C196.637 74.0865 197.206 72.3256 203.176 67.7408C211.561 61.3737 220.849 56.4131 229.825 50.9586C231.779 49.7668 232.714 50.1533 232.928 52.3652C233.658 59.806 235.172 67.1718 235.076 74.6878C235.166 75.5374 235.045 76.3961 234.725 77.1881C234.405 77.9802 233.895 78.6813 233.24 79.2296C223.641 86.6383 212.839 92.0713 202.263 99.2331Z" fill="white"/>
<path d="M71.677 619.902C65.8467 618.269 61.1975 619.311 56.5483 620.234C46.0151 622.382 43.0623 621.061 38.4024 611.376C35.1812 604.644 32.25 597.729 29.4798 590.793C26.9136 584.351 27.8799 582.966 34.6336 582.976C40.3995 582.976 46.1547 583.341 51.9098 583.524C53.2627 583.524 54.433 583.749 55.131 585.145C60.8324 596.29 66.201 607.564 71.677 619.902Z" fill="white"/>
<path d="M66.2118 258.477C60.1238 252.453 54.1002 246.902 49.0859 240.341C47.6149 238.409 47.9048 236.734 48.8497 234.758C54.2827 223.42 60.9828 212.811 67.5539 201.269C71.1616 207.775 75.9504 212.672 80.4386 217.868C83.2732 221.176 82.2317 225.299 80.8788 229.035C77.1423 239.257 71.3119 248.427 66.2118 258.477Z" fill="white"/>
<path d="M297.513 47.3402C298.146 39.7167 298.672 33.3818 299.177 27.079C299.445 23.729 300.916 21.8071 304.395 20.7656C314.735 17.6518 325.032 14.4521 335.533 11.9933C338.615 11.2739 340.515 11.349 338.679 15.3755C336.338 20.5186 337.09 26.1127 336.532 31.5672C336.102 35.8621 334.449 38.6323 330.003 39.9959C320.662 42.8842 311.428 46.1483 302.205 49.391C298.812 50.5613 296.847 50.3573 297.513 47.3402Z" fill="white"/>
<path d="M347.623 36.2809C350.748 31.0841 350.93 25.9195 351.005 20.7227C351.123 12.3047 353.453 9.29829 361.549 7.40855C371.943 4.9712 382.594 4.18739 393.106 2.52312C395.339 2.16879 395.812 3.05998 394.888 4.86383C392.715 9.42483 391.481 14.3761 391.259 19.4235C390.83 25.0283 386.825 27.8951 381.918 29.6023C374.531 32.1685 366.735 32.8235 359.112 34.2301C355.472 34.8851 351.821 35.5293 347.623 36.2809Z" fill="white"/>
<path d="M841.202 453.582C846.259 458.296 851.67 460.347 857.673 461.785C863.675 463.224 865.307 468.979 865.253 474.52C865.154 484.6 863.791 494.628 861.194 504.369C860.593 506.667 859.917 508.106 857.275 505.883C853.732 502.888 849.319 501.309 845.099 499.441C840.214 497.293 837.798 493.782 837.98 488.306C838.356 476.968 840.074 465.737 841.202 453.582Z" fill="white"/>
<path d="M284.886 38.7504C284.95 54.1905 284.982 54.2549 271.271 60.869C264.925 63.9291 258.44 66.7208 251.944 69.5232C249.796 70.4466 248.25 70.4896 248.508 67.0966C248.819 63.0702 247.617 59.1189 246.747 55.1783C245.147 47.8985 246.071 45.6759 252.33 41.9715C260.847 36.8249 269.796 32.431 279.077 28.8399C283.705 27.079 284.027 27.3045 284.649 32.3081C284.735 33.0167 284.821 33.7361 284.843 34.4555C284.886 35.8406 284.875 37.2901 284.886 38.7504Z" fill="white"/>
<path d="M177.632 754.986C180.102 754.884 182.546 755.52 184.654 756.812C193.175 761.665 201.233 767.289 208.727 773.615C210.874 775.376 212.055 776.836 208.061 778.082C204.679 779.102 202.445 782.012 199.954 784.406C194.06 790.086 189.99 790.795 182.914 786.725C174.121 781.679 166.326 775.258 158.777 768.472C156.941 766.829 156.125 765.434 159.421 764.295C163.405 762.921 166.68 760.215 170.159 757.853C172.36 756.285 174.722 754.922 177.632 754.986Z" fill="white"/>
<path d="M146.773 754.31C144.55 754.374 141.909 752.86 139.525 750.992C131.555 744.582 124.223 737.415 117.632 729.593C115.861 727.553 115.42 726.372 118.792 725.298C124.107 723.569 129.207 721.196 134.361 719.017C135.595 718.427 136.971 718.201 138.328 718.365C139.686 718.528 140.969 719.074 142.027 719.94C150.763 726.296 158.89 733.449 166.304 741.307C168.151 743.293 168.677 744.442 165.466 745.784C161.912 747.266 158.724 749.596 155.374 751.55C152.829 753.272 149.844 754.229 146.773 754.31Z" fill="white"/>
<path d="M405.83 888.224C399.033 894.269 392.795 899.81 386.567 905.404C385.968 906.026 385.194 906.449 384.347 906.618C383.501 906.787 382.623 906.693 381.832 906.349C375.663 904.204 369.052 903.65 362.612 904.738C361.33 905.007 359.997 904.904 358.772 904.439C357.546 903.975 356.48 903.17 355.698 902.118C352.047 897.276 348.568 892.315 344.96 887.473C343.64 885.733 344.219 884.96 346.034 884.456C347.507 883.867 349.041 883.445 350.608 883.199C367.938 882.566 385.246 882.458 402.211 887.011C403.124 887.247 404.058 887.623 405.83 888.224Z" fill="white"/>
<path d="M327.727 931.86C334.169 931.463 339.291 931.237 344.273 929.895C348.076 929.025 351.722 927.577 355.086 925.6C363.214 920.393 371.653 922.283 380.103 924.398C382.133 924.913 382.637 926.427 382.122 928.467C380.823 934.272 377.973 939.616 373.876 943.929C372.418 945.453 370.615 946.604 368.62 947.286C366.624 947.968 364.494 948.161 362.408 947.848C349.62 946.269 339.044 939.827 327.727 931.86Z" fill="white"/>
<path d="M269.456 931.925C275.133 922.872 282.61 915.084 291.425 909.044C294.528 906.896 296.364 907.648 297.942 910.644C298.941 912.544 299.971 914.444 300.959 916.366C302.832 919.762 304.987 922.995 307.402 926.03C309.173 928.381 313.371 929.938 312.663 932.676C312.04 935.081 308.454 936.735 306.156 938.689C299.778 944.058 299.574 944.337 293.1 938.968C286.163 933.288 278.733 930.121 269.456 931.925Z" fill="white"/>
<path d="M385.236 951.853C387.383 949.029 389.133 946.946 390.679 944.723C394.974 938.571 397.208 931.892 395.275 924.323C394.749 922.24 395.103 921.102 397.422 921.574C408.966 923.981 420.323 927.21 431.406 931.238C433.338 931.935 432.962 933.009 431.653 933.986C418.091 944.144 404.069 953.013 385.236 951.853Z" fill="white"/>
<path d="M485.328 870.98C477.608 871.635 472.003 870.98 466.387 870.615C463.445 870.422 462.586 868.994 464.873 866.9C476.083 856.689 488.302 848.239 503.527 845.211C506.308 844.653 506.942 845.673 506.587 848.089C505.747 854.23 504.26 860.265 502.153 866.095C501.846 867.042 501.282 867.885 500.523 868.529C499.765 869.174 498.842 869.595 497.858 869.746C493.08 870.776 488.098 870.572 485.328 870.98Z" fill="white"/>
<path d="M579.472 947.118C583.798 947.438 587.99 948.766 591.712 950.994C593.655 952.068 593.387 953.249 591.927 954.666C586.873 959.577 581.619 964.265 576.164 968.732C574.5 970.095 573.19 970.117 571.741 968.582C568.584 965.242 565.298 961.967 562.238 958.585C561.336 957.597 560.091 956.373 561.938 955.031C567.202 951.261 573.162 948.572 579.472 947.118Z" fill="white"/>
<path d="M269.166 944.176C276.876 944.004 282.384 947.397 287.259 952.186C288.472 953.399 288.418 954.258 287.259 955.407C284.037 958.532 280.924 961.688 277.821 964.888C276.328 966.434 274.997 966.488 273.429 965.006C268.189 960.067 262.925 955.164 257.635 950.296C256.056 948.847 256.507 947.966 258.204 947.161C261.865 945.411 265.537 943.768 269.166 944.176Z" fill="white"/>
<path d="M259.009 984.698C257.867 987.718 256.054 990.439 253.705 992.654C252.717 993.642 251.88 992.891 251.117 992.214C244.342 986.137 239.038 978.75 233.175 971.878C232.263 970.804 232.671 970.16 233.605 969.44C235.656 967.884 237.706 966.305 239.704 964.662C239.88 964.443 240.106 964.268 240.362 964.153C240.619 964.037 240.899 963.983 241.18 963.995C241.462 964.008 241.736 964.086 241.981 964.225C242.226 964.363 242.436 964.557 242.592 964.791C247.52 969.816 252.545 974.745 257.484 979.759C258.151 980.375 258.643 981.156 258.911 982.024C259.178 982.891 259.212 983.813 259.009 984.698Z" fill="white"/>
<path d="M599.067 963.224C594.645 969.626 588.919 975.02 582.263 979.05C586.708 972.533 591.948 966.896 599.067 963.224Z" fill="white"/>
<path d="M266.353 974.358C260.003 970.037 254.51 964.576 250.151 958.252C256.554 962.508 262.059 967.981 266.353 974.358Z" fill="white"/>
<path d="M442.227 722.108C442.896 724.317 443.581 726.038 443.916 727.805C444.693 731.917 442.668 733.806 438.71 732.283C431.555 729.648 424.051 728.083 416.44 727.637C415.686 727.504 414.914 727.528 414.171 727.706C413.427 727.884 412.728 728.213 412.116 728.673C406.24 733.333 402.085 731.947 396.589 726.038C393.834 722.992 391.383 722.992 388.658 726.175C386.512 728.657 386.238 731.81 385.614 734.75C384.807 738.375 382.569 740.157 379.388 739.243C376.511 738.421 377.15 735.283 377.592 732.831C377.802 731.957 378.067 731.098 378.383 730.257C380.56 723.677 380.56 723.692 374.288 720.235C372.522 719.275 370.833 718.133 368.991 717.31C364.424 715.3 361.638 716.198 359.599 720.692C357.741 724.728 356.752 725.048 353.677 721.286C348.395 714.828 340.418 712.147 333.081 708.568C331.696 707.897 330.249 707.349 328.834 706.725C327.418 706.1 326.094 705.856 327.86 703.343C329.869 700.465 327.19 697.662 324.617 696.109C322.455 694.799 319.548 694.509 318.026 697.068C316.275 700.038 314.692 698.789 312.85 697.571C304.599 692.042 298.176 684.548 292.026 676.932C290.836 675.155 289.279 673.654 287.459 672.531C275.859 666.438 275.281 653.933 279.147 644.719C281.903 638.017 280.776 634.955 274.428 631.163C270.592 628.878 266.817 626.365 263.148 623.882C262.202 623.316 261.404 622.533 260.819 621.598C255.216 611.782 252.345 600.641 252.508 589.338C252.508 587.145 254.578 586.718 256.192 586.398C264.432 584.937 272.849 584.768 281.141 585.896C286.287 586.505 290.351 586.505 294.218 581.327C301.829 571.045 310.841 561.754 319.213 552.007C323.96 546.523 326.993 539.765 327.936 532.572C328.986 525.169 333.705 519.412 338.302 513.761C339.433 512.115 340.723 510.585 342.153 509.192C346.309 505.719 348.73 502.612 345.396 496.641C342.504 491.463 346.614 487.244 352.825 487.883C354.195 488.036 356.173 489.056 356.524 486.817C356.597 486.064 356.407 485.308 355.985 484.68C355.562 484.052 354.935 483.591 354.21 483.375C352.216 482.598 350.435 481.212 348.395 480.527C337.739 476.978 334.953 468.342 335.303 458.624C335.532 452.273 335.303 445.678 337.663 439.494C338.942 436.067 339.855 432.457 341.438 429.198C343.554 424.887 344.939 420.729 343.097 415.947C342.838 415.04 342.823 414.081 343.053 413.166C343.283 412.252 343.75 411.414 344.406 410.738C348.684 405.559 353.662 401.599 360.877 401.736C361.712 401.788 362.548 401.667 363.333 401.381C364.119 401.096 364.837 400.651 365.444 400.076C370.604 395.506 372.477 395.369 377.729 399.695C380.621 402.086 381.473 401.416 382.478 398.172C384.868 390.434 387.699 387.678 392.22 388.409C395.509 388.942 398.888 389.292 402.1 390.023C413.014 392.506 423.686 391.546 434.585 389.825C441.618 388.759 448.94 387.997 454.892 384.601C461.498 380.839 465.045 381.996 470.358 386.916C477.893 393.907 487.301 398.69 496.114 404.082C496.632 404.401 497.195 405.072 497.637 404.995C503.01 404.28 506.405 406.519 508.292 411.575C508.719 412.687 510.043 412.733 511.093 411.941C512.25 411.019 513.201 409.867 513.888 408.558C514.576 407.248 514.983 405.81 515.085 404.335C515.186 402.859 514.98 401.379 514.479 399.988C513.978 398.596 513.193 397.324 512.174 396.253C510.987 395.089 510.14 393.622 509.724 392.012C509.308 390.401 509.34 388.708 509.815 387.114C510.515 383.794 511.261 381.326 515.691 380.839C519.314 380.443 517.898 375.995 518.735 373.421C518.894 372.965 518.943 372.478 518.877 372C518.811 371.522 518.633 371.066 518.356 370.67C518.08 370.274 517.713 369.95 517.287 369.724C516.86 369.498 516.386 369.376 515.904 369.37C504.807 368.684 499.539 361.267 495.627 352.25C489.98 339.182 486.494 325.885 491.913 311.781C493.846 306.77 497.089 302.414 498.504 297.113C501.896 284.71 502.022 271.639 498.87 259.172C496.434 249.607 497.454 241.306 504.061 233.797C509.799 227.248 510.15 219.647 508.125 211.605C506.466 204.965 504.517 198.354 503.421 191.607C502.744 187.47 502.973 183.235 504.093 179.196C505.213 175.157 507.196 171.409 509.906 168.212C513.362 163.856 517.335 159.896 521.079 155.753C529.391 146.614 537.124 149.508 543.152 156.423C551.733 165.845 556.308 178.241 555.909 190.982C555.586 195.137 554.604 199.214 553.001 203.061C550.248 210.028 550.124 217.759 552.651 224.811C558.862 241.367 556.365 257.588 551.281 273.809C547.628 285.446 548.389 297.342 549.759 309.207C550.586 317.713 549.843 326.299 547.567 334.536C545.222 343.812 542.361 352.722 537.002 360.718C536.743 361.099 536.667 361.708 536.317 361.922C530.959 365.242 529.619 370.238 529.345 376.254C529.071 382.271 525.783 387.495 523.104 392.826C522.16 394.699 521.019 396.862 522.541 399.36C526.575 406.001 528.067 413.571 529.208 421.064C530.122 427.157 531.827 433.112 531.324 439.342C531.111 442.022 530.411 443.576 527.503 444.139C523.637 444.886 520.486 450.232 521.414 453.964C521.901 456.005 523.226 457.497 525.464 456.461C526.915 455.887 528.47 455.618 530.03 455.669C537.307 455.655 544.32 452.941 549.713 448.054C557.431 441.246 566.245 443.743 574.297 448.876C577.038 450.643 579.641 452.623 583.233 451.923C589.185 450.75 593.508 453.446 596.781 458.015C597.327 458.84 598.088 459.499 598.981 459.923C599.875 460.348 600.866 460.52 601.85 460.422C605.397 460.33 606.798 458.35 604.895 455.334C604.297 454.667 603.966 453.802 603.966 452.905C603.966 452.008 604.297 451.143 604.895 450.476C605.617 449.581 606.055 448.491 606.153 447.346C606.251 446.2 606.003 445.052 605.443 444.048C604.683 442.794 604.322 441.339 604.409 439.875C604.496 438.411 605.027 437.008 605.93 435.854C607.544 436.067 607.452 437.681 608.076 438.611C609.355 440.301 610.162 440.347 610.74 438.123C614.028 425.618 622.614 417.15 632.615 409.763C629.22 407.052 628.596 406.975 625.369 410.204C624.012 411.447 622.402 412.383 620.65 412.946C620.498 412.52 620.102 411.971 620.239 411.697C620.987 410.117 622.286 408.866 623.893 408.179C631.367 405.132 631.336 397.761 633.209 391.638C636.282 380.939 638.572 370.03 640.059 358.997C640.759 354.428 642.692 354.321 645.996 356.134C647.351 356.865 648.66 357.657 650.304 358.647C652.469 351.052 653.876 343.262 654.505 335.389C655.142 328.81 654.05 322.179 651.339 316.152C648.766 310.136 651.582 305.079 654.764 300.601C658.044 296.185 661.97 292.288 666.409 289.041C667.994 287.713 669.901 286.827 671.938 286.472C673.974 286.116 676.068 286.303 678.009 287.015C683.885 288.751 689.867 290.183 695.652 292.193C698.605 293.214 699.594 296.763 701.893 298.728C702.913 299.626 703.415 301.21 704.511 301.911C713.645 307.836 712.899 316.198 710.707 325.215C708.012 336.288 701.802 345.305 694.83 353.91C689.801 360.203 684.036 365.868 677.659 370.786C674.371 373.299 674.995 378.63 673.229 382.514C668.327 393.267 664.689 404.706 655.83 413.22C650.913 417.927 646.041 418.749 639.831 415.718C638.491 415.063 637.441 414.545 636.177 415.977C635.852 416.256 635.588 416.598 635.4 416.982C635.211 417.366 635.103 417.785 635.082 418.213C635.06 418.64 635.126 419.068 635.275 419.469C635.424 419.87 635.654 420.237 635.949 420.546C643.271 429.045 639.831 438.062 634.153 444.794C629.057 450.848 623.035 456.055 616.312 460.224C610.527 463.818 605.823 468.433 606.356 476.155C606.539 479.554 607.895 482.784 610.192 485.294C612.582 487.929 614.15 490.823 612.4 494.509C611.958 495.438 611.212 496.443 612.019 497.555C613.983 500.327 613.709 503.541 613.419 506.572C612.938 513.171 611.785 519.703 609.979 526.068C608.279 531.154 608.13 536.631 609.553 541.802C609.997 543.545 609.76 545.392 608.893 546.968C608.025 548.544 606.59 549.73 604.88 550.285C597.436 553.408 592.26 559.576 585.714 563.902C581.574 566.644 577.068 568.471 572.806 570.954C570.507 572.249 570.126 572.843 571.755 574.96C575.515 579.849 576.855 585.759 578.331 591.592C578.438 591.89 578.464 592.21 578.408 592.521C575.18 601.31 578.651 610.509 576.885 619.374C576.752 620.603 576.34 621.785 575.683 622.831C572.151 627.218 574.16 630.614 577.54 633.645C580.158 636.052 582.381 638.078 581.072 642.342C580.097 645.495 581.483 648.846 582.594 652.045C586.826 664.885 584.025 677.024 577.646 688.264C572.629 697.581 568.491 707.346 565.286 717.432C563.775 721.605 562.544 725.874 561.602 730.211C560.186 737.233 555.224 740.416 548.115 738.634C546.42 738.116 544.615 738.084 542.903 738.542C541.192 739 539.643 739.929 538.433 741.223C535.952 743.554 533.257 745.625 530.7 747.879C527.214 750.925 523.637 753.164 519.009 749.935C518.02 749.235 516.711 748.275 515.691 748.412C502.127 750.408 493.024 740.797 482.201 735.694C475.138 732.435 468.333 728.597 460.783 726.464C459.002 725.962 457.343 725.489 455.622 726.86C452.882 729.054 450.523 727.82 448.407 725.672C446.732 724.271 445.347 722.534 442.227 722.108ZM521.034 473.52C516.147 470.398 515.767 468.281 519.283 463.864C520.577 462.219 521.764 460.97 518.583 459.904C515.401 458.838 515.843 456.035 516.497 453.568C516.832 452.303 517.396 451.161 516.208 450.186C515.021 449.211 513.91 449.775 512.768 450.415C508.146 452.934 504.068 456.346 500.773 460.452C496.51 465.768 495.384 471.677 495.749 478.303C496.069 484.091 494.075 485.264 488.671 483.162C488.107 482.948 487.575 482.507 487.057 483.162C484.317 486.391 481.135 484.593 478.289 483.664C475.157 482.774 472.282 481.15 469.901 478.927C469.666 478.622 469.367 478.372 469.025 478.193C468.684 478.015 468.307 477.912 467.922 477.894C467.537 477.875 467.153 477.94 466.795 478.084C466.438 478.228 466.116 478.449 465.852 478.729C464.528 480.253 466.43 480.862 467.161 481.562C470.206 484.456 472.778 487.792 476.919 489.269C478.578 489.863 480.192 490.914 479.491 493.032C478.791 495.149 476.904 495.362 474.925 495.286C465.182 494.905 455.394 494.113 446.291 498.88C445.79 499.12 445.233 499.219 444.681 499.165C444.128 499.112 443.6 498.908 443.155 498.576C440.43 496.519 438.375 497.982 436.868 500.099C434.615 503.145 431.388 504.851 428.359 506.755C419.986 512.055 417.444 511.629 411.081 504.15C410.688 503.508 410.096 503.012 409.396 502.737C408.695 502.462 407.924 502.423 407.199 502.627C402.633 503.16 401.567 505.354 401.521 509.359C401.448 511.368 400.928 513.335 399.999 515.117C398.279 518.498 399.664 520.95 401.811 523.357C404.398 526.251 406.865 529.266 409.635 531.978C410.438 532.594 411.02 533.453 411.294 534.428C411.569 535.402 411.521 536.44 411.157 537.385C409.209 542.213 411.157 545.29 415.13 547.864C420.458 551.352 420.641 554.9 415.344 558.129C413.838 558.924 412.653 560.214 411.987 561.782C411.322 563.35 411.217 565.099 411.69 566.735C412.449 570.071 413.947 573.194 416.074 575.874C419.119 580.215 418.708 581.418 413.471 582.499C410.579 583.093 411.31 584.22 412.055 585.957C412.664 587.373 413.974 587.876 414.933 588.835C418.586 592.445 422.681 596.085 421.707 601.812C421.235 604.676 421.707 606.382 423.777 608.194C425.847 610.007 427.324 611.88 424.355 614.287C422.833 615.475 423.716 616.663 424.645 617.912C426.867 620.882 429.074 624.004 429.348 627.812C429.646 631.59 431.067 635.191 433.428 638.154C436.883 642.723 439.197 647.932 441.831 652.959C442.394 654.01 443.109 654.786 444.388 654.482C445.667 654.177 445.195 652.959 445.256 652.136C445.324 651.203 445.324 650.267 445.256 649.334C444.358 639.647 449.412 633.006 457.099 628.619C463.188 625.207 469.977 623.273 476.447 620.608C477.883 619.97 479.443 619.658 481.014 619.694C481.534 619.773 482.067 619.692 482.54 619.461C483.014 619.229 483.405 618.859 483.662 618.399C486.191 615.065 488.475 611.553 490.497 607.89C491.776 605.239 491.73 601.995 493.953 599.787C494.6 599.212 495.067 598.461 495.297 597.625C495.527 596.79 495.509 595.906 495.247 595.08C493.481 585.637 496.297 581.783 505.903 579.118C506.807 578.903 507.635 578.444 508.298 577.792C508.961 577.139 509.432 576.318 509.662 575.417C511.185 568.944 516.65 564.587 518.796 558.388C519.255 557.392 519.928 556.51 520.768 555.804C521.607 555.098 522.592 554.587 523.652 554.306C528.919 552.281 531.522 543.066 527.808 538.71C525.342 535.816 523.393 532.221 520.958 529.784C514.397 523.235 509.48 514.782 500.681 510.578C499.631 510.075 498.169 509.466 499.89 508.004C502.371 505.871 510.332 506.481 512.646 508.735C514.347 510.316 516.131 511.805 517.989 513.198C518.887 513.913 519.846 514.446 520.866 513.426C521.103 513.217 521.292 512.961 521.422 512.673C521.552 512.386 521.619 512.074 521.619 511.758C521.619 511.443 521.552 511.131 521.422 510.843C521.292 510.556 521.103 510.299 520.866 510.09C518.903 507.897 516.893 505.719 514.777 503.678C513.636 502.597 512.342 501.074 510.485 501.987C507.349 503.511 505.552 501.424 504.395 499.398C503.704 498.332 503.442 497.043 503.662 495.791C503.883 494.539 504.569 493.417 505.583 492.651C507.102 491.123 508.28 489.291 509.038 487.274C509.27 486.959 509.434 486.6 509.522 486.218C509.61 485.837 509.619 485.442 509.549 485.057C509.48 484.673 509.332 484.306 509.116 483.98C508.9 483.654 508.62 483.376 508.292 483.162C506.222 481.76 506.07 481.349 508.11 480.268C512.22 477.755 516.619 475.714 521.034 473.52Z" fill="white"/>
<path d="M411.413 325.812C411.626 314.647 414.655 305.641 416.8 296.438C420.255 281.682 418.535 267.262 414.015 252.856C410.181 240.61 407.167 228.106 407.091 215.085C407.091 208.057 406.681 201.059 407.822 194.077C408.033 192.977 408.007 191.845 407.745 190.756C407.482 189.667 406.99 188.647 406.3 187.764C401.735 181.558 402.389 179.017 408.674 174.712C409.648 174.028 411.246 173.541 410.957 172.157C410.668 170.772 408.917 171.229 407.761 171.046C404.809 170.544 403.196 169.236 403.196 165.783C403.515 157.188 406.315 149.202 409.207 141.337C411.593 134.185 415.04 127.432 419.433 121.303C424.181 115.051 429.827 110.655 438.303 111.096C443.888 111.431 448.194 114.732 452.227 117.713C461.784 124.802 465.299 135.283 466.425 146.738C466.644 148.431 466.279 150.148 465.39 151.605C461.388 157.371 462.347 164.094 462.21 170.331C462.042 177.024 462.818 183.748 462.681 190.548C462.561 194.326 463.192 198.09 464.538 201.622C466.41 206.094 464.34 211.312 463.564 216.165C463.123 218.964 462.742 221.458 465.192 223.847C466.326 224.831 467.046 226.208 467.206 227.7C467.367 229.193 466.958 230.691 466.06 231.894C460.642 239.591 460.277 248.916 457.523 257.45C454.479 266.79 455.118 276.662 454.479 286.352C454.16 290.734 456.336 295.282 457.294 299.769C459.927 312.198 462.255 324.778 461.312 337.434C460.247 351.764 455.97 364.922 441.529 372.026C437.527 374.019 434.361 374.49 431.12 370.505C428.259 366.945 425.322 363.386 424.622 358.959C424.082 356.26 422.67 353.812 420.605 351.992C415.818 347.111 412.954 340.667 412.539 333.844C412.311 330.65 411.094 327.531 411.413 325.812Z" fill="white"/>
<path d="M346.426 214.475C347.124 220.021 345.894 226.697 344.633 233.16C344.221 234.951 344.442 236.831 345.256 238.477C350.71 249.279 353.004 261.043 355.708 272.685C356.355 275.395 356.53 278.197 356.224 280.966C355.085 289.308 363.365 293.937 363.517 301.363C363.821 315.419 371.022 328.069 371.31 342.064C371.417 342.686 371.417 343.322 371.31 343.944C368.652 351.018 371.963 357.129 373.984 363.622C375.807 369.474 377.326 375.845 370.946 380.352C370.644 380.615 370.457 380.987 370.426 381.387C370.395 381.787 370.521 382.184 370.778 382.491C373.194 386.448 370.596 388.068 367.603 389.626C363.41 391.796 359.476 394.21 354.477 394.714C351.474 395.097 348.423 394.787 345.557 393.808C342.69 392.828 340.083 391.205 337.933 389.061C337.28 388.497 336.762 387.794 336.417 387.001C336.072 386.209 335.908 385.349 335.939 384.484C335.97 383.62 336.193 382.773 336.594 382.007C336.994 381.242 337.561 380.577 338.252 380.062C340.242 378.32 339.771 377.098 338.89 375.478C331.036 361.407 327.952 345.915 325.217 330.254C324.579 326.557 322.483 323.073 320.781 319.636C315.643 308.807 311.572 297.498 308.628 285.87C307.26 280.783 304.921 276.108 303.189 271.188C300.892 263.869 299.484 256.297 298.996 248.637C298.679 245.119 297.216 241.805 294.833 239.21C289.394 232.736 284.87 225.539 281.388 217.821C278.426 211.22 280.705 206.331 288.058 202.909C289.316 202.378 290.539 201.765 291.719 201.075C293.329 200.082 293.922 199.685 292.63 197.684C292.257 197.224 291.996 196.683 291.869 196.103C291.743 195.523 291.754 194.922 291.902 194.347C292.05 193.773 292.331 193.241 292.721 192.796C293.112 192.351 293.601 192.005 294.15 191.786C296.535 190.549 295.669 189.479 293.815 188.15C285.536 182.207 285.004 180.343 290.2 171.496C296.201 161.321 307.61 157.425 318.882 161.841C326.889 164.973 332.388 170.412 336.961 178.173C343.51 189.111 346.795 201.712 346.426 214.475Z" fill="white"/>
<path d="M185.083 519.195C172.808 519.287 164.635 512.807 159.035 502.384C152.042 489.409 145.413 476.25 136.831 464.177C135.638 462.392 134.869 460.354 134.583 458.22C134.297 456.087 134.501 453.915 135.181 451.874C137.587 443.071 140.993 434.91 149.999 430.86C157.43 427.513 164.998 428.614 172.157 431.273C186.673 436.668 197.449 446.648 205.214 460.158C207.181 463.581 206.909 467.02 206.894 470.55C206.831 472.991 207.631 475.374 209.149 477.274C212.176 481.294 215.491 485.252 216.006 490.723C216.687 497.967 212.797 503.27 208.589 508.084C205.712 511.557 202.117 514.351 198.056 516.27C193.995 518.19 189.567 519.188 185.083 519.195Z" fill="white"/>
<path d="M210.056 517.955C211.344 517.955 212.588 517.714 213.627 519.161C216.506 523.07 220.102 526.359 224.212 528.84C224.801 529.164 225.291 529.65 225.63 530.243C225.968 530.836 226.141 531.514 226.129 532.202C225.954 533.332 224.343 533.483 223.201 533.709C219.468 534.77 215.48 534.302 212.074 532.402C208.668 530.502 206.109 527.318 204.932 523.518C204.097 520.955 206.864 517.94 210.056 517.955Z" fill="white"/>
</svg>
