<svg width="1200" height="1200" viewBox="0 0 1200 1200" fill="none" xmlns="http://www.w3.org/2000/svg">
<rect width="1200" height="1200" fill="#16562B"/>
<path d="M615.616 161.73C617.613 162.664 618.837 163.491 616.904 166.025C613.984 169.686 612.91 174.228 611.665 178.652C610.043 184.493 606.618 187.392 600.369 187.972C591.056 188.812 581.696 189.009 572.356 188.562C567.653 188.358 567.642 187.993 569.854 183.816C571.497 180.703 571.765 177.202 572.302 173.809C573.676 165.22 574.632 164.221 583.265 162.664C583.954 162.478 584.629 162.241 585.283 161.955L615.616 161.73Z" fill="white"/>
<path d="M166.242 577.56C167.112 577.228 167.832 576.487 168.948 577.335C173.114 580.631 178.193 581.941 183.111 583.53C188.823 585.356 192.216 588.437 192.667 595.137C193.311 604.801 192.667 614.464 192.602 624.128C192.602 625.921 191.969 626.425 190.283 625.899C183.282 623.698 176.325 621.465 169.26 619.382C167.305 618.802 167.542 617.428 167.445 616.021C167.112 610.728 167.756 605.359 166.371 600.141L166.242 577.56Z" fill="white"/>
<path d="M1033.07 596.393C1031.56 600.549 1032.6 604.983 1031.73 609.214C1031.24 611.576 1030.65 611.823 1028.41 610.846C1024.21 608.999 1019.82 607.571 1015.52 606.025C1011.45 604.564 1008.46 602.052 1007.65 597.65C1005.51 586 1006.46 574.232 1005.81 561.712C1011.32 564.752 1017.32 566.825 1023.53 567.843C1028.55 568.799 1031.76 572.224 1032.96 577.324L1033.07 596.393Z" fill="white"/>
<path d="M761.545 1160C760.783 1156.35 758.088 1153.78 756.177 1150.78C754.931 1148.79 754.555 1147.56 756.52 1145.69C761.352 1141.15 765.636 1136.02 770.758 1131.73C773.979 1129.08 776.491 1129.58 779.423 1132.31C782.354 1135.04 782.021 1137.68 779.551 1140.47C773.825 1146.91 768.098 1153.4 762.372 1159.95L761.545 1160Z" fill="white"/>
<path d="M627.341 980.345C628.522 990.009 633.977 996.515 639.721 1002.89C640.741 1003.97 642.824 1005.04 640.494 1007.02C629.338 1016.44 618.075 1025.68 603.633 1029.81C595.814 1031.94 587.633 1032.4 579.625 1031.15C577.069 1030.81 575.727 1029.67 576.006 1026.86C576.328 1022.4 577.227 1018 578.68 1013.77C579.754 1010.8 581.719 1008.21 584.865 1007.56C600.498 1004.34 611.708 994.067 623.035 984.017C624.216 983.008 625.419 981.977 627.341 980.345Z" fill="white"/>
<path d="M680.168 960.481C691.12 960.707 700.472 962.629 708.74 968.287C713.034 971.208 713.034 972.893 708.439 975.202C698.775 980.066 688.811 983.985 677.935 985.585C669.796 986.777 661.915 989.354 655.913 995.581C654.42 997.138 652.981 997.095 651.285 996.129C644.381 992.156 639.753 986.24 636.532 979.089C635.544 976.866 636.285 975.202 638.4 974.053C651.843 966.795 665.726 961.018 680.168 960.481Z" fill="white"/>
<path d="M565.86 1071.19C574.138 1065.32 581.418 1060.15 588.708 1055.02C589.211 1054.72 589.775 1054.54 590.358 1054.5C590.94 1054.45 591.526 1054.54 592.069 1054.75C605.931 1058.66 619.986 1062.07 632.312 1070.05C641.525 1076.02 641.739 1078.4 633.708 1085.95C633.075 1086.54 632.452 1087.14 631.775 1087.67C618.783 1097.87 620.931 1096.37 609.743 1088.99C601.486 1083.55 592.187 1080.41 582.9 1077.18L565.86 1071.19Z" fill="white"/>
<path d="M529.783 967.16C526.101 974.636 524.176 982.856 524.156 991.19C524.103 993.001 523.646 994.777 522.82 996.389C521.993 998.001 520.817 999.409 519.378 1000.51C511.391 1007.16 504.271 1014.78 498.183 1023.21C496.605 1025.41 495.574 1025.36 493.469 1023.77C486.641 1018.73 483.28 1011.44 479.951 1004.06C479.737 1003.61 479.647 1003.1 479.69 1002.6C479.734 1002.1 479.909 1001.62 480.198 1001.21C491.408 982.815 508.008 972.292 529.783 967.16Z" fill="white"/>
<path d="M734.24 978.616C730.826 985.456 731.567 993.069 731.019 1000.48C730.751 1004.12 729.537 1006.67 726.306 1008.56C713.257 1016.27 699.383 1022.48 684.946 1027.08C684.044 1027.36 683.024 1028.27 682.144 1027.41C681.263 1026.55 682.079 1025.55 682.38 1024.61C684.269 1018.79 684.463 1012.7 685.139 1006.69C685.687 1001.91 687.641 998.104 691.979 995.839C704.833 989.318 718.03 983.497 731.513 978.402C731.93 978.139 732.421 978.018 732.912 978.056C733.404 978.095 733.87 978.291 734.24 978.616Z" fill="white"/>
<path d="M472.639 1018.93C475.452 1022.99 477.89 1027.25 481.487 1030.58C483.924 1032.84 486.233 1035.53 489.389 1036.5C493.684 1037.81 495.316 1040.89 496.122 1044.62C498.054 1054.28 502.664 1063.21 509.425 1070.39C512.936 1074.11 512.056 1076.26 506.955 1077.48C501.471 1078.71 495.886 1079.43 490.27 1079.63C484.665 1079.94 480.939 1077.63 478.351 1072.85C470.47 1058.29 467.464 1042.92 470.631 1026.53C471.072 1024.27 471.533 1022.01 472.006 1019.76C472.049 1019.5 472.306 1019.34 472.639 1018.93Z" fill="white"/>
<path d="M562.51 966.859C577.413 965.785 589.836 971.669 601.164 980.592C605.018 983.62 605.008 984.253 601.088 987.26C596.829 990.491 592.161 993.145 587.205 995.152C584.403 996.362 581.242 996.446 578.379 995.388C571.486 993.004 564.206 992.95 557.023 992.392C553.136 992.092 549.228 991.963 545.373 991.426C540.735 990.792 539.478 988.752 541.379 984.608C543.848 979.239 546.747 974.085 549.432 968.803C549.746 968.153 550.258 967.619 550.895 967.279C551.532 966.94 552.26 966.811 552.975 966.913C556.164 966.934 559.331 966.881 562.51 966.859Z" fill="white"/>
<path d="M622.842 1052.74C650.351 1040.41 676.367 1041.43 703.092 1056.44C690.207 1058.97 681.403 1068.25 669.527 1070.68C662.409 1072.12 655.848 1071.65 649.631 1066.61C642.684 1060.96 633.976 1058.11 625.924 1054.27C625.15 1053.91 624.388 1053.51 622.842 1052.74Z" fill="white"/>
<path d="M747.125 1095.56C743.227 1096.01 739.953 1096.29 736.71 1096.77C731.921 1097.49 727.24 1099.08 723.739 1102.29C718.639 1106.95 717.63 1106.89 711.757 1100.97C704.166 1093.3 697.337 1084.86 687.866 1079.2C684.946 1077.46 686.524 1075.53 688.403 1074.08C696.209 1068.05 704.885 1066.16 714.462 1068.89C719.86 1070.52 724.902 1073.14 729.323 1076.64C736.162 1081.84 741.595 1088.35 747.125 1095.56Z" fill="white"/>
<path d="M632.978 1104.12C639.258 1096.86 645.94 1089.94 652.992 1083.42C654.069 1082.45 655.373 1081.78 656.783 1081.45C658.192 1081.12 659.662 1081.15 661.056 1081.54C665.995 1082.62 670.988 1083.37 676.088 1082.13C676.769 1081.89 677.519 1081.92 678.177 1082.22C678.834 1082.53 679.345 1083.08 679.599 1083.76C682.67 1089.68 686.943 1094.79 691.109 1099.95C692.741 1101.97 692.43 1102.99 690.304 1104.17C678.149 1110.93 665.436 1113.77 651.65 1110.14C645.433 1108.5 639.087 1107.27 632.978 1104.12Z" fill="white"/>
<path d="M787.025 967.632C786.659 971.217 786.48 974.819 786.488 978.423C786.821 984.414 783.921 987.571 778.585 989.654C769.34 993.283 760.224 997.256 751.119 1001.25C747.447 1002.86 746.588 1001.47 746.588 998.029C746.454 990.519 747.579 983.039 749.917 975.9C750.319 974.689 750.998 973.589 751.901 972.687C752.803 971.785 753.903 971.106 755.114 970.703C764.67 966.698 774.054 962.264 783.449 957.818C785.876 956.67 787.089 956.476 786.842 959.794C786.638 962.371 786.842 964.991 786.842 967.579L787.025 967.632Z" fill="white"/>
<path d="M538.276 1003.82C547.939 1004.22 557.399 1006.16 566.944 1007.52C570.047 1007.96 571.121 1009.1 569.843 1012.34C567.642 1017.95 565.548 1023.62 565.452 1029.82C565.452 1032.99 562.821 1032.45 560.953 1032.24C552.965 1031.19 545.056 1029.62 537.277 1027.52C530.861 1025.94 524.561 1023.91 518.423 1021.46C514.847 1020.01 514.933 1018.39 517.199 1015.8C520.334 1012.22 523.804 1008.95 527.56 1006.03C530.77 1003.52 534.528 1003.61 538.276 1003.82Z" fill="white"/>
<path d="M742.476 1037.39C742.948 1046.44 739.652 1053.62 736.034 1060.72C735.014 1062.75 733.596 1062.87 731.792 1061.92C724.985 1058.47 718.167 1055.09 711.392 1051.6C708.45 1050.07 707.226 1048 708.911 1044.56C710.372 1041.58 710.554 1038.19 710.468 1034.9C710.348 1033.45 710.675 1031.99 711.404 1030.73C712.133 1029.47 713.23 1028.46 714.548 1027.84C721.646 1024.35 728.818 1021.01 735.969 1017.62C738.417 1016.45 738.997 1018.28 739.491 1019.98C741.217 1025.63 742.22 1031.48 742.476 1037.39Z" fill="white"/>
<path d="M207.42 412.862C210.426 418.145 215.268 421.807 219.864 425.747C221.578 427.099 222.85 428.933 223.515 431.012C224.181 433.091 224.211 435.322 223.601 437.418C221.142 447.544 217.072 457.089 213.325 466.752C212.445 469.018 211.36 469.233 209.503 467.826C203.06 462.898 197.541 456.971 191.657 451.441C191.288 451.109 191.045 450.658 190.971 450.167C190.897 449.675 190.995 449.173 191.249 448.746C195.748 437.526 199.732 426.091 205.036 415.192C205.242 414.655 205.562 414.169 205.973 413.767C206.384 413.365 206.878 413.056 207.42 412.862Z" fill="white"/>
<path d="M655.505 192.299C644.649 191.161 634.385 189.98 624.045 188.938C621.446 188.67 621.113 187.864 622.262 185.513C624.581 180.735 626.557 175.785 628.705 170.9C630.669 166.411 633.644 163.942 639.012 164.189C649.797 164.713 660.548 165.788 671.224 167.41C674.445 167.882 675.401 168.817 672.716 171.522C669.399 174.872 667.906 179.307 666.124 183.559C664.008 188.487 660.82 192.106 655.505 192.299Z" fill="white"/>
<path d="M326.474 293.819C326.13 287.022 323.489 282.008 320.944 277.026C317.218 269.65 317.637 266.643 323.757 261.049C331.746 253.726 340.668 247.606 349.645 240.648C352.254 247.789 355.217 254.435 356.291 261.693C356.616 263.265 356.526 264.894 356.031 266.421C355.536 267.948 354.652 269.319 353.467 270.401C344.748 278.132 335.89 285.648 326.474 293.819Z" fill="white"/>
<path d="M783.965 202.478C776.685 206.944 771.778 212.882 765.958 217.778C762.909 220.344 759.956 221.225 756.101 219.625C746.932 215.846 737.687 212.259 728.421 208.716C726.435 207.954 726.381 207.234 727.583 205.688C730.805 201.479 733.94 197.098 737.247 192.932C740.554 188.766 744.978 187.478 749.971 188.917C761.449 192.234 772.304 197.174 783.965 202.478Z" fill="white"/>
<path d="M289.72 329.853C287.358 324.195 283.911 319.76 280.916 315.036C277.92 310.311 277.877 305.834 281.335 301.41C288.37 292.631 296.159 284.483 304.613 277.058C305.89 275.899 307.523 274.825 307.834 277.703C308.628 284.456 312 290.222 314.588 296.299C315.348 297.76 315.629 299.422 315.39 301.051C315.151 302.68 314.404 304.192 313.256 305.372C306.052 314.126 298.183 322.31 289.72 329.853Z" fill="white"/>
<path d="M990.43 777.541C989.356 772.172 985.341 768.865 981.765 765.333C974.41 758.074 973.745 755.669 977.707 746.22C981.497 737.201 985.62 728.321 989.883 718.744C996.121 725.014 1002.58 730.233 1007.37 737.126C1007.94 737.775 1008.31 738.567 1008.45 739.414C1008.59 740.261 1008.49 741.13 1008.17 741.925C1003.48 753.871 997.931 765.465 991.579 776.617C991.386 776.961 990.924 777.154 990.43 777.541Z" fill="white"/>
<path d="M932.331 872.125C929.743 865.575 925.459 860.958 922.303 855.632C920.155 852.068 919.973 848.889 922.066 845.121C927.972 834.523 935.907 825.321 942.242 814.487C944.303 820.833 948.244 825.225 951.905 829.842C957.585 836.95 957.735 839.645 952.539 847.15C946.569 855.793 940.395 864.276 932.331 872.125Z" fill="white"/>
<path d="M167.993 632.75C174.446 635.713 181.334 637.616 188.393 638.387C191.818 638.838 193.461 641.951 194.513 645.076C198.003 655.512 198.744 666.55 201.321 677.18C201.804 679.188 200.655 679.8 198.873 679.553C192.43 678.683 185.988 678.286 179.696 676.461C174.832 675.033 173.254 670.953 172.309 666.636C170.441 658.326 169.582 649.843 168.615 641.404C168.261 638.719 167.209 636.067 167.993 632.75Z" fill="white"/>
<path d="M821.684 252.642C828.964 249.27 834.215 244.202 840.27 240.294C843.148 238.437 845.575 238.34 848.559 240.219C858.814 246.661 868.101 254.371 878.173 261.822C871.269 266.321 864.923 270.852 857.718 273.837C856.097 274.514 854.368 275.126 852.693 274.32C841.29 268.877 831.53 261.146 821.684 252.642Z" fill="white"/>
<path d="M214.173 794.463C221.947 795.815 228.132 794.624 234.23 792.777C239.223 791.284 242.82 793.904 245.912 797.469C250.723 803.074 254.502 809.398 258.249 815.722C260.182 818.943 264.692 822.401 263.242 825.493C262.072 828.027 256.424 827.168 252.795 827.984C250.272 828.553 247.534 828.371 245.139 829.208C237.323 831.946 233.264 828.585 229.85 821.692C225.404 812.694 219.928 804.255 214.173 794.463Z" fill="white"/>
<path d="M965.176 827.598C963.727 822.229 959.872 818.514 956.264 814.713C951.508 809.656 950.133 804.577 953.537 797.952C957.671 789.889 961.246 781.524 965.681 773.6C967.002 771.26 968.151 770.851 970.223 772.773C975.367 777.412 980.072 782.516 984.278 788.02C985.266 789.341 985.888 790.619 985.105 792.38C979.857 804.558 973.495 816.225 966.1 827.233C965.971 827.394 965.606 827.415 965.176 827.598Z" fill="white"/>
<path d="M403.535 978.874C400.876 978.84 398.261 978.197 395.89 976.995C387.122 972.922 378.698 968.146 370.7 962.715C368.392 961.201 368.048 960.009 370.453 958.291C376.445 953.996 382.554 949.916 388.105 945.052C389.297 943.978 390.424 944.257 391.67 944.923C401.333 950.098 411.061 955.145 420.66 960.449C424.558 962.596 424.429 963.069 420.714 965.882C417.559 968.42 414.744 971.354 412.339 974.611C410.074 977.478 407.239 979.271 403.535 978.874Z" fill="white"/>
<path d="M831.82 929.343C831.573 936.859 834.139 942.572 835.503 948.595C836.867 954.619 835.052 959.332 829.973 962.382C821.48 967.536 812.794 972.324 804.204 977.285C802.218 978.434 801.219 978.219 800.886 975.61C799.931 968.33 798.739 961.082 797.665 953.824C797.502 953.272 797.525 952.682 797.73 952.144C797.936 951.607 798.313 951.152 798.803 950.85C809.455 943.892 820.138 936.913 831.82 929.343Z" fill="white"/>
<path d="M215.097 732.23C209.728 729.707 204.005 730.748 198.454 730.673C190.283 730.576 188.533 729.535 185.645 721.868C182.156 712.726 179.325 703.347 177.173 693.801C176.464 690.645 177.57 689.914 180.394 690.183C187.683 690.966 194.926 692.128 202.094 693.662C202.969 693.78 203.788 694.16 204.443 694.752C205.099 695.345 205.56 696.121 205.766 696.98C207.914 708.05 212.552 718.357 215.183 729.277C215.397 729.742 215.501 730.251 215.486 730.763C215.471 731.276 215.338 731.778 215.097 732.23Z" fill="white"/>
<path d="M997.871 509.1C1003.86 512.01 1009.54 512.643 1015.36 512.6C1020.92 512.6 1024.61 515.285 1026.35 520.632C1029.01 528.781 1029.77 537.274 1030.8 545.714C1031.29 549.633 1032.41 553.552 1031.61 558.019C1026.45 554.153 1020.57 553.327 1014.81 552.231C1008.62 551.061 1004.93 548.055 1003.91 541.398C1002.29 530.886 1000.03 520.471 997.871 509.1Z" fill="white"/>
<path d="M672.781 193.587C677.43 191.547 678.708 188.111 680.297 184.998C681.37 182.85 682.358 180.542 683.518 178.383C685.902 173.927 689.724 171.941 694.652 172.682C706.463 174.529 717.974 177.932 729.441 181.325C729.964 181.585 730.454 181.906 730.901 182.281C725.35 184.901 722.752 189.475 720.518 194.382C718.081 199.75 713.593 202.027 707.891 201.629C696.166 200.824 684.989 197.603 672.781 193.587Z" fill="white"/>
<path d="M1008.15 447.436C998.633 446.448 989.893 445.579 981.239 444.645C980.521 444.573 979.836 444.309 979.255 443.88C978.675 443.451 978.222 442.873 977.943 442.207C973.347 432.92 968.677 423.675 964.757 414.076C963.576 411.187 963.77 409.706 967.581 409.555C972.886 409.351 978.158 408.374 983.44 407.816C988.336 407.301 992.03 409.459 993.941 413.797C998.751 424.695 1003.23 435.733 1008.15 447.436Z" fill="white"/>
<path d="M439.429 970.091L441.888 970.725C452.174 973.505 461.977 977.693 472.027 981.183C473.96 981.859 474.712 982.557 472.854 984.296C468.43 988.452 464.801 993.305 460.946 997.965C457.919 1001.62 454.644 1003.02 449.629 1001.19C439.901 997.643 430.27 993.86 420.736 989.837C418.921 989.074 417.031 988.441 419.168 985.982C424.046 980.288 429.615 975.223 435.746 970.907C436.818 970.16 438.142 969.866 439.429 970.091Z" fill="white"/>
<path d="M930.849 351.854C928.391 352.176 926.651 350.962 925.191 349.266C918.341 341.288 911.533 333.278 904.661 325.333C903.298 323.744 903.223 322.82 905.359 321.918C910.255 319.846 915.023 317.559 919.93 315.476C925.395 313.092 930.044 314.402 933.888 318.783C940.899 326.632 946.88 335.286 953.29 343.607C954.138 344.681 954.6 345.68 952.861 346.131C945.549 348.02 938.398 350.715 930.849 351.854Z" fill="white"/>
<path d="M243.711 842.909C250.411 844.315 255.211 842.168 259.946 840.128C267.108 837.036 273.024 838.378 278.199 844.154C284.094 850.693 289.505 857.608 294.82 864.619C297.064 867.583 296.538 868.764 292.802 869.677C286.843 871.115 281.023 873.284 275.128 875.12C273.249 875.711 271.424 875.883 269.878 874.337C260.258 864.642 251.502 854.126 243.711 842.909Z" fill="white"/>
<path d="M1022.94 685.008C1021.67 693.928 1019.92 702.773 1017.7 711.507C1016.85 714.997 1015.78 718.443 1014.89 721.933C1014.38 723.93 1013.44 724.145 1011.81 723.007C1005.25 718.281 998.985 713.161 993.05 707.674C991.633 706.428 991.976 705.14 992.331 703.765C994.843 693.1 997.374 682.445 999.922 671.801C1000.27 670.373 1000.54 668.505 1002.58 670.19C1007.64 674.378 1013.91 676.514 1019.26 680.176C1021.05 681.421 1022.92 682.678 1022.94 685.008Z" fill="white"/>
<path d="M192.409 574.758C187.878 570.377 183.175 569.314 178.687 567.822C170.569 565.127 168.562 562.507 168.69 553.863C168.862 542.332 170.945 530.982 172.202 518.495C177.785 524.379 184.453 527.085 190.884 530.22C192.071 530.784 193.091 531.646 193.844 532.723C194.597 533.8 195.057 535.054 195.179 536.362C196.489 549.042 193.805 561.337 192.409 574.758Z" fill="white"/>
<path d="M206.4 485.994C206.475 490.192 205.326 494.24 204.381 498.298C202.632 504.99 201.312 511.786 200.43 518.645C200.312 519.816 200.269 521.147 199.034 521.577C197.498 522.114 197.359 520.503 196.65 519.665C193.805 516.444 189.811 514.952 186.095 513.084C177.141 508.563 175.895 506.158 177.785 496.301C179.546 487.089 182.38 478.166 184.839 469.136C185.516 466.656 186.557 465.539 188.876 467.783C192.43 471.241 196.736 473.603 201.02 475.997C204.896 478.166 206.872 481.419 206.4 485.994Z" fill="white"/>
<path d="M266.163 317.28C270.672 323.958 275.246 329.885 278.317 336.779C279.112 338.572 279.552 340.386 278.639 342.147C272.852 353.636 265.121 363.815 256.918 374.885C256.532 369.151 253.697 365.876 250.476 362.73C248.94 361.209 247.575 359.524 246.406 357.705C242.477 351.532 242.552 349.116 246.857 343.296C253.139 334.76 259.516 326.245 266.163 317.28Z" fill="white"/>
<path d="M919.081 300.551C912.918 303.826 907.271 307.273 900.828 309.141C898.599 309.807 896.244 309.936 893.956 309.516C891.668 309.096 889.512 308.139 887.664 306.725C880.245 301.357 873.932 294.85 867.704 288.225C865.503 285.874 865.964 284.639 868.906 283.178C874.178 280.559 879.182 277.38 884.304 274.438C886.838 272.978 889.06 273.268 891.455 275.072C901.44 282.545 909.826 291.693 919.081 300.551Z" fill="white"/>
<path d="M934.468 363.246C942.703 363.439 949.597 361.217 956.501 359.273C960.044 358.275 962.653 358.844 964.865 361.764C971.758 370.901 977.266 380.855 982.377 391.044C983.601 393.493 983.161 394.609 980.112 394.813C974.947 395.157 969.782 395.79 964.661 396.617C959.163 397.498 955.234 395.661 952.206 391.002C946.397 382.068 941.393 372.619 934.468 363.246Z" fill="white"/>
<path d="M775.589 227.893C781.366 222.148 786.455 216.64 792.243 211.787C794.766 209.693 797.064 209.307 800.102 210.842C809.69 215.513 819.01 220.714 828.019 226.422C831.852 228.923 831.691 229.407 828.191 232.069C824.068 235.226 820.041 238.512 816.09 241.883C814.898 243.034 813.383 243.791 811.747 244.054C810.111 244.317 808.435 244.073 806.942 243.354C796.226 239.113 786.241 233.347 775.589 227.893Z" fill="white"/>
<path d="M1024.14 502.056C1018.57 498.91 1013.57 498.61 1008.5 498.502C998.107 498.288 996.4 497.268 992.986 487.669C990.097 479.551 987.821 471.208 985.115 463.027C984.396 460.879 985.115 460.149 987.08 459.805C994.358 458.696 1001.78 459.036 1008.93 460.804C1009.65 460.882 1010.35 461.143 1010.94 461.561C1011.54 461.98 1012.02 462.544 1012.33 463.198C1017.13 475.874 1021.08 488.856 1024.14 502.056Z" fill="white"/>
<path d="M843.18 929.172C843.126 924.243 844.651 921.086 847.282 918.724C854.905 911.895 862.7 905.249 870.453 898.56C871.73 897.486 872.804 896.928 873.309 899.419C874.275 904.122 876.594 908.331 878.752 912.561C881.662 918.263 881.125 923.374 876.53 927.958C869.143 935.324 860.725 941.401 852.35 947.543C850.073 949.207 848.506 949.261 848.42 945.642C848.323 941.852 846.863 938.352 845.285 934.905C844.265 932.715 843.169 930.492 843.18 929.172Z" fill="white"/>
<path d="M920.832 881.863C921.003 885.911 918.996 889.079 916.59 891.999C910.481 899.387 902.815 905.185 895.696 911.423C894.289 912.658 893.548 912.325 892.85 910.746C890.467 905.378 887.686 900.117 885.893 894.469C885.305 892.677 885.178 890.766 885.523 888.912C885.868 887.058 886.675 885.321 887.868 883.861C894.171 875.378 901.623 867.927 909.107 860.518C910.266 859.358 911.501 858.37 911.866 861.141C912.424 865.307 914.872 868.56 917.116 871.878C919.124 874.938 920.95 878.041 920.832 881.863Z" fill="white"/>
<path d="M368.263 260.233C368.757 253.383 366.115 248.036 364.58 242.409C362.637 235.087 363.206 233.326 369.176 228.741C377.561 222.374 386.849 217.413 395.825 211.959C397.779 210.767 398.714 211.153 398.928 213.365C399.658 220.806 401.172 228.172 401.076 235.688C401.166 236.537 401.045 237.396 400.725 238.188C400.405 238.98 399.895 239.681 399.24 240.23C389.641 247.638 378.839 253.071 368.263 260.233Z" fill="white"/>
<path d="M237.677 780.902C231.847 779.269 227.197 780.311 222.548 781.234C212.015 783.382 209.062 782.061 204.402 772.376C201.181 765.644 198.25 758.729 195.48 751.793C192.914 745.351 193.88 743.966 200.634 743.976C206.4 743.976 212.155 744.341 217.91 744.524C219.263 744.524 220.433 744.749 221.131 746.145C226.832 757.29 232.201 768.564 237.677 780.902Z" fill="white"/>
<path d="M232.212 419.477C226.124 413.453 220.1 407.902 215.086 401.341C213.615 399.409 213.905 397.734 214.85 395.758C220.283 384.42 226.983 373.811 233.554 362.269C237.162 368.775 241.95 373.672 246.439 378.868C249.273 382.176 248.232 386.299 246.879 390.035C243.142 400.257 237.312 409.427 232.212 419.477Z" fill="white"/>
<path d="M463.513 208.34C464.146 200.717 464.672 194.382 465.177 188.079C465.445 184.729 466.916 182.807 470.395 181.766C480.735 178.652 491.032 175.452 501.533 172.993C504.615 172.274 506.515 172.349 504.679 176.375C502.338 181.519 503.09 187.113 502.532 192.567C502.102 196.862 500.449 199.632 496.003 200.996C486.662 203.884 477.428 207.148 468.205 210.391C464.812 211.561 462.847 211.357 463.513 208.34Z" fill="white"/>
<path d="M513.623 197.281C516.748 192.084 516.93 186.919 517.005 181.723C517.123 173.305 519.453 170.298 527.549 168.409C537.943 165.971 548.594 165.187 559.106 163.523C561.339 163.169 561.812 164.06 560.888 165.864C558.715 170.425 557.481 175.376 557.259 180.423C556.83 186.028 552.825 188.895 547.918 190.602C540.531 193.169 532.735 193.824 525.112 195.23C521.472 195.885 517.821 196.529 513.623 197.281Z" fill="white"/>
<path d="M1007.2 614.582C1012.26 619.296 1017.67 621.347 1023.67 622.785C1029.67 624.224 1031.31 629.979 1031.25 635.52C1031.15 645.6 1029.79 655.628 1027.19 665.369C1026.59 667.667 1025.92 669.106 1023.28 666.883C1019.73 663.888 1015.32 662.309 1011.1 660.441C1006.21 658.293 1003.8 654.782 1003.98 649.306C1004.36 637.968 1006.07 626.737 1007.2 614.582Z" fill="white"/>
<path d="M450.886 199.75C450.95 215.19 450.982 215.255 437.271 221.869C430.925 224.929 424.44 227.721 417.944 230.523C415.796 231.447 414.25 231.49 414.508 228.097C414.819 224.07 413.617 220.119 412.747 216.178C411.147 208.898 412.071 206.676 418.33 202.972C426.847 197.825 435.796 193.431 445.077 189.84C449.705 188.079 450.027 188.305 450.649 193.308C450.735 194.017 450.821 194.736 450.843 195.456C450.886 196.841 450.875 198.29 450.886 199.75Z" fill="white"/>
<path d="M343.632 915.986C346.102 915.884 348.546 916.52 350.654 917.812C359.175 922.665 367.233 928.289 374.727 934.615C376.874 936.376 378.055 937.836 374.061 939.082C370.679 940.102 368.445 943.012 365.954 945.406C360.06 951.086 355.99 951.795 348.914 947.725C340.121 942.679 332.326 936.258 324.777 929.472C322.941 927.829 322.125 926.434 325.421 925.295C329.405 923.921 332.68 921.215 336.159 918.853C338.36 917.285 340.722 915.922 343.632 915.986Z" fill="white"/>
<path d="M312.773 915.31C310.55 915.374 307.909 913.86 305.525 911.992C297.555 905.582 290.223 898.415 283.632 890.593C281.861 888.553 281.42 887.372 284.792 886.298C290.107 884.569 295.207 882.196 300.361 880.017C301.595 879.427 302.971 879.201 304.328 879.365C305.686 879.528 306.969 880.074 308.027 880.94C316.763 887.296 324.89 894.449 332.304 902.307C334.151 904.293 334.677 905.442 331.466 906.784C327.912 908.266 324.724 910.596 321.374 912.55C318.829 914.272 315.844 915.229 312.773 915.31Z" fill="white"/>
<path d="M571.83 1049.22C565.033 1055.27 558.795 1060.81 552.567 1066.4C551.968 1067.03 551.194 1067.45 550.347 1067.62C549.501 1067.79 548.623 1067.69 547.832 1067.35C541.663 1065.2 535.052 1064.65 528.612 1065.74C527.33 1066.01 525.997 1065.9 524.772 1065.44C523.546 1064.98 522.48 1064.17 521.698 1063.12C518.047 1058.28 514.568 1053.32 510.96 1048.47C509.64 1046.73 510.219 1045.96 512.034 1045.46C513.507 1044.87 515.041 1044.45 516.608 1044.2C533.938 1043.57 551.246 1043.46 568.211 1048.01C569.124 1048.25 570.058 1048.62 571.83 1049.22Z" fill="white"/>
<path d="M493.727 1092.86C500.169 1092.46 505.291 1092.24 510.273 1090.9C514.076 1090.03 517.722 1088.58 521.086 1086.6C529.214 1081.39 537.653 1083.28 546.103 1085.4C548.133 1085.91 548.637 1087.43 548.122 1089.47C546.823 1095.27 543.973 1100.62 539.876 1104.93C538.418 1106.45 536.615 1107.6 534.62 1108.29C532.624 1108.97 530.494 1109.16 528.408 1108.85C515.62 1107.27 505.044 1100.83 493.727 1092.86Z" fill="white"/>
<path d="M435.456 1092.92C441.133 1083.87 448.61 1076.08 457.425 1070.04C460.528 1067.9 462.364 1068.65 463.942 1071.64C464.941 1073.54 465.971 1075.44 466.959 1077.37C468.832 1080.76 470.987 1083.99 473.402 1087.03C475.173 1089.38 479.371 1090.94 478.663 1093.68C478.04 1096.08 474.454 1097.73 472.156 1099.69C465.778 1105.06 465.574 1105.34 459.1 1099.97C452.163 1094.29 444.733 1091.12 435.456 1092.92Z" fill="white"/>
<path d="M551.236 1112.85C553.383 1110.03 555.133 1107.95 556.679 1105.72C560.974 1099.57 563.208 1092.89 561.275 1085.32C560.749 1083.24 561.103 1082.1 563.422 1082.57C574.966 1084.98 586.323 1088.21 597.406 1092.24C599.338 1092.94 598.962 1094.01 597.653 1094.99C584.091 1105.14 570.069 1114.01 551.236 1112.85Z" fill="white"/>
<path d="M651.328 1031.98C643.608 1032.64 638.003 1031.98 632.387 1031.62C629.445 1031.42 628.586 1029.99 630.873 1027.9C642.083 1017.69 654.302 1009.24 669.527 1006.21C672.308 1005.65 672.942 1006.67 672.587 1009.09C671.747 1015.23 670.26 1021.27 668.153 1027.09C667.846 1028.04 667.282 1028.88 666.523 1029.53C665.765 1030.17 664.842 1030.6 663.858 1030.75C659.08 1031.78 654.098 1031.57 651.328 1031.98Z" fill="white"/>
<path d="M745.472 1108.12C749.798 1108.44 753.99 1109.77 757.712 1111.99C759.655 1113.07 759.387 1114.25 757.927 1115.67C752.873 1120.58 747.619 1125.27 742.164 1129.73C740.5 1131.1 739.19 1131.12 737.741 1129.58C734.584 1126.24 731.298 1122.97 728.238 1119.59C727.336 1118.6 726.091 1117.37 727.938 1116.03C733.202 1112.26 739.162 1109.57 745.472 1108.12Z" fill="white"/>
<path d="M435.166 1105.18C442.876 1105 448.384 1108.4 453.259 1113.19C454.472 1114.4 454.418 1115.26 453.259 1116.41C450.037 1119.53 446.924 1122.69 443.821 1125.89C442.328 1127.43 440.997 1127.49 439.429 1126.01C434.189 1121.07 428.925 1116.16 423.635 1111.3C422.056 1109.85 422.507 1108.97 424.204 1108.16C427.865 1106.41 431.537 1104.77 435.166 1105.18Z" fill="white"/>
<path d="M425.009 1145.7C423.867 1148.72 422.054 1151.44 419.705 1153.65C418.717 1154.64 417.88 1153.89 417.117 1153.21C410.342 1147.14 405.038 1139.75 399.175 1132.88C398.263 1131.8 398.671 1131.16 399.605 1130.44C401.656 1128.88 403.706 1127.31 405.704 1125.66C405.88 1125.44 406.106 1125.27 406.362 1125.15C406.619 1125.04 406.899 1124.98 407.18 1125C407.462 1125.01 407.736 1125.09 407.981 1125.22C408.226 1125.36 408.436 1125.56 408.592 1125.79C413.52 1130.82 418.545 1135.74 423.484 1140.76C424.151 1141.38 424.643 1142.16 424.911 1143.02C425.178 1143.89 425.212 1144.81 425.009 1145.7Z" fill="white"/>
<path d="M765.067 1124.22C760.645 1130.63 754.919 1136.02 748.263 1140.05C752.708 1133.53 757.948 1127.9 765.067 1124.22Z" fill="white"/>
<path d="M432.353 1135.36C426.003 1131.04 420.51 1125.58 416.151 1119.25C422.554 1123.51 428.059 1128.98 432.353 1135.36Z" fill="white"/>
<path d="M608.227 883.108C608.896 885.317 609.581 887.038 609.916 888.805C610.693 892.917 608.668 894.806 604.71 893.283C597.555 890.648 590.051 889.083 582.44 888.637C581.686 888.504 580.914 888.528 580.171 888.706C579.427 888.884 578.728 889.213 578.116 889.673C572.24 894.333 568.085 892.947 562.589 887.038C559.834 883.991 557.383 883.992 554.658 887.175C552.512 889.657 552.238 892.81 551.614 895.75C550.807 899.375 548.569 901.157 545.388 900.243C542.511 899.421 543.15 896.283 543.592 893.831C543.802 892.957 544.067 892.098 544.383 891.257C546.56 884.677 546.56 884.692 540.288 881.235C538.522 880.275 536.833 879.133 534.991 878.31C530.424 876.3 527.638 877.198 525.599 881.692C523.741 885.728 522.752 886.048 519.677 882.286C514.395 875.828 506.418 873.147 499.081 869.568C497.696 868.897 496.249 868.349 494.834 867.725C493.418 867.1 492.094 866.856 493.86 864.343C495.869 861.465 493.19 858.662 490.617 857.109C488.456 855.799 485.548 855.509 484.026 858.068C482.275 861.038 480.692 859.789 478.85 858.571C470.599 853.042 464.176 845.548 458.026 837.932C456.836 836.155 455.279 834.654 453.459 833.531C441.859 827.438 441.281 814.933 445.147 805.719C447.903 799.017 446.776 795.955 440.428 792.163C436.592 789.878 432.817 787.365 429.148 784.882C428.202 784.316 427.404 783.533 426.819 782.598C421.216 772.782 418.345 761.641 418.508 750.338C418.508 748.145 420.578 747.718 422.192 747.398C430.432 745.937 438.849 745.768 447.141 746.896C452.287 747.505 456.351 747.505 460.218 742.327C467.829 732.045 476.841 722.754 485.213 713.007C489.96 707.523 492.993 700.765 493.936 693.572C494.986 686.169 499.705 680.412 504.302 674.761C505.433 673.115 506.723 671.585 508.153 670.192C512.309 666.719 514.73 663.612 511.396 657.641C508.504 652.463 512.614 648.244 518.825 648.883C520.195 649.036 522.173 650.056 522.524 647.817C522.597 647.064 522.407 646.308 521.985 645.68C521.562 645.052 520.935 644.591 520.21 644.375C518.216 643.598 516.435 642.212 514.395 641.527C503.739 637.978 500.953 629.342 501.303 619.624C501.532 613.273 501.303 606.678 503.663 600.494C504.942 597.067 505.855 593.457 507.438 590.198C509.554 585.887 510.939 581.729 509.097 576.947C508.838 576.04 508.823 575.081 509.053 574.166C509.283 573.252 509.75 572.414 510.406 571.738C514.684 566.559 519.662 562.599 526.877 562.736C527.712 562.788 528.548 562.667 529.333 562.381C530.119 562.096 530.837 561.651 531.444 561.076C536.604 556.506 538.477 556.369 543.729 560.695C546.621 563.086 547.473 562.416 548.478 559.172C550.868 551.434 553.699 548.678 558.22 549.409C561.509 549.942 564.888 550.292 568.1 551.023C579.014 553.506 589.686 552.546 600.585 550.825C607.618 549.759 614.94 548.997 620.892 545.601C627.498 541.839 631.045 542.996 636.358 547.916C643.893 554.907 653.301 559.69 662.114 565.082C662.632 565.401 663.195 566.072 663.637 565.995C669.01 565.28 672.405 567.519 674.292 572.575C674.719 573.687 676.043 573.733 677.093 572.941C678.25 572.019 679.201 570.867 679.888 569.558C680.576 568.248 680.983 566.81 681.085 565.335C681.186 563.859 680.98 562.379 680.479 560.988C679.978 559.596 679.193 558.324 678.174 557.253C676.987 556.089 676.14 554.622 675.724 553.012C675.308 551.401 675.34 549.708 675.815 548.114C676.515 544.794 677.261 542.326 681.691 541.839C685.314 541.443 683.898 536.995 684.735 534.421C684.894 533.965 684.943 533.478 684.877 533C684.811 532.522 684.633 532.066 684.356 531.67C684.08 531.274 683.713 530.95 683.287 530.724C682.86 530.498 682.386 530.376 681.904 530.37C670.807 529.684 665.539 522.267 661.627 513.25C655.98 500.182 652.494 486.885 657.913 472.781C659.846 467.77 663.089 463.414 664.504 458.113C667.896 445.71 668.022 432.639 664.87 420.172C662.434 410.607 663.454 402.306 670.061 394.797C675.799 388.248 676.15 380.647 674.125 372.605C672.466 365.965 670.517 359.354 669.421 352.607C668.744 348.47 668.973 344.235 670.093 340.196C671.213 336.157 673.196 332.409 675.906 329.212C679.362 324.856 683.335 320.896 687.079 316.753C695.391 307.614 703.124 310.508 709.152 317.423C717.733 326.845 722.308 339.241 721.909 351.982C721.586 356.137 720.604 360.214 719.001 364.061C716.248 371.028 716.124 378.759 718.651 385.811C724.862 402.367 722.365 418.588 717.281 434.809C713.628 446.446 714.389 458.342 715.759 470.207C716.586 478.713 715.843 487.299 713.567 495.536C711.222 504.812 708.361 513.722 703.002 521.718C702.743 522.099 702.667 522.708 702.317 522.922C696.959 526.242 695.619 531.238 695.345 537.254C695.071 543.271 691.783 548.495 689.104 553.826C688.16 555.699 687.019 557.862 688.541 560.36C692.575 567.001 694.067 574.571 695.208 582.064C696.122 588.157 697.827 594.112 697.324 600.342C697.111 603.022 696.411 604.576 693.503 605.139C689.637 605.886 686.486 611.232 687.414 614.964C687.901 617.005 689.226 618.497 691.464 617.461C692.915 616.887 694.47 616.618 696.03 616.669C703.307 616.655 710.32 613.941 715.713 609.054C723.431 602.246 732.245 604.743 740.297 609.876C743.038 611.643 745.641 613.623 749.233 612.923C755.185 611.75 759.508 614.446 762.781 619.015C763.327 619.84 764.088 620.499 764.981 620.923C765.875 621.348 766.866 621.52 767.85 621.422C771.397 621.33 772.798 619.35 770.895 616.334C770.297 615.667 769.966 614.802 769.966 613.905C769.966 613.008 770.297 612.143 770.895 611.476C771.617 610.582 772.055 609.491 772.153 608.346C772.251 607.2 772.003 606.052 771.443 605.048C770.683 603.794 770.322 602.339 770.409 600.875C770.496 599.411 771.027 598.008 771.93 596.854C773.544 597.067 773.452 598.681 774.076 599.611C775.355 601.301 776.162 601.347 776.74 599.123C780.028 586.618 788.614 578.15 798.615 570.763C795.22 568.052 794.596 567.975 791.369 571.204C790.012 572.447 788.402 573.383 786.65 573.946C786.498 573.52 786.102 572.971 786.239 572.697C786.987 571.117 788.286 569.866 789.893 569.179C797.367 566.132 797.336 558.761 799.209 552.638C802.282 541.939 804.572 531.03 806.059 519.997C806.759 515.428 808.692 515.321 811.996 517.134C813.351 517.865 814.66 518.657 816.304 519.647C818.469 512.052 819.876 504.262 820.505 496.389C821.142 489.81 820.05 483.179 817.339 477.152C814.766 471.136 817.582 466.079 820.764 461.601C824.044 457.185 827.97 453.288 832.409 450.041C833.994 448.713 835.901 447.827 837.938 447.472C839.974 447.116 842.068 447.303 844.009 448.015C849.885 449.751 855.867 451.183 861.652 453.193C864.605 454.214 865.594 457.763 867.893 459.728C868.913 460.626 869.415 462.21 870.511 462.911C879.645 468.836 878.899 477.198 876.707 486.215C874.012 497.288 867.802 506.305 860.83 514.91C855.801 521.203 850.036 526.868 843.659 531.786C840.371 534.299 840.995 539.63 839.229 543.514C834.327 554.267 830.689 565.706 821.83 574.22C816.913 578.927 812.041 579.749 805.831 576.718C804.491 576.063 803.441 575.545 802.177 576.977C801.852 577.256 801.588 577.598 801.4 577.982C801.211 578.366 801.103 578.785 801.082 579.213C801.06 579.64 801.126 580.068 801.275 580.469C801.424 580.87 801.654 581.237 801.949 581.546C809.271 590.045 805.831 599.062 800.153 605.794C795.057 611.848 789.035 617.055 782.312 621.224C776.527 624.818 771.823 629.433 772.356 637.155C772.539 640.554 773.895 643.784 776.192 646.294C778.582 648.929 780.15 651.823 778.4 655.509C777.958 656.438 777.212 657.443 778.019 658.555C779.983 661.327 779.709 664.541 779.419 667.572C778.938 674.171 777.785 680.703 775.979 687.068C774.279 692.154 774.13 697.631 775.553 702.802C775.997 704.545 775.76 706.392 774.893 707.968C774.025 709.544 772.59 710.73 770.88 711.285C763.436 714.408 758.26 720.576 751.714 724.902C747.574 727.644 743.068 729.471 738.806 731.954C736.507 733.249 736.126 733.843 737.755 735.96C741.515 740.849 742.855 746.759 744.331 752.592C744.438 752.89 744.464 753.21 744.408 753.521C741.18 762.31 744.651 771.509 742.885 780.374C742.752 781.603 742.34 782.785 741.683 783.831C738.151 788.218 740.16 791.615 743.54 794.645C746.158 797.052 748.381 799.078 747.072 803.342C746.097 806.495 747.483 809.846 748.594 813.045C752.826 825.885 750.025 838.024 743.646 849.264C738.629 858.581 734.491 868.346 731.286 878.432C729.775 882.605 728.544 886.874 727.602 891.211C726.186 898.233 721.224 901.416 714.115 899.634C712.42 899.116 710.615 899.084 708.903 899.542C707.192 900 705.643 900.929 704.433 902.223C701.952 904.554 699.257 906.625 696.7 908.879C693.214 911.925 689.637 914.164 685.009 910.935C684.02 910.235 682.711 909.275 681.691 909.412C668.127 911.408 659.024 901.797 648.201 896.694C641.138 893.435 634.333 889.597 626.783 887.464C625.002 886.962 623.343 886.489 621.622 887.86C618.882 890.054 616.523 888.82 614.407 886.672C612.732 885.271 611.347 883.534 608.227 883.108ZM687.034 634.52C682.147 631.398 681.767 629.281 685.283 624.864C686.577 623.219 687.764 621.97 684.583 620.904C681.401 619.838 681.843 617.035 682.497 614.568C682.832 613.303 683.396 612.161 682.208 611.186C681.021 610.211 679.91 610.775 678.768 611.415C674.146 613.934 670.068 617.346 666.773 621.452C662.51 626.768 661.384 632.677 661.749 639.303C662.069 645.091 660.075 646.264 654.671 644.162C654.107 643.948 653.575 643.507 653.057 644.162C650.317 647.391 647.135 645.593 644.289 644.664C641.157 643.774 638.282 642.15 635.901 639.927C635.666 639.622 635.367 639.372 635.025 639.193C634.684 639.015 634.307 638.912 633.922 638.894C633.537 638.875 633.153 638.94 632.795 639.084C632.438 639.228 632.116 639.449 631.852 639.729C630.528 641.253 632.43 641.862 633.161 642.562C636.206 645.456 638.778 648.792 642.919 650.269C644.578 650.863 646.192 651.914 645.491 654.032C644.791 656.149 642.904 656.362 640.925 656.286C631.182 655.905 621.394 655.113 612.291 659.88C611.79 660.12 611.233 660.219 610.681 660.165C610.128 660.112 609.6 659.908 609.155 659.576C606.43 657.519 604.375 658.982 602.868 661.099C600.615 664.145 597.388 665.851 594.359 667.755C585.986 673.055 583.444 672.629 577.081 665.15C576.688 664.508 576.096 664.012 575.396 663.737C574.695 663.462 573.924 663.423 573.199 663.627C568.633 664.16 567.567 666.354 567.521 670.359C567.448 672.368 566.928 674.335 565.999 676.117C564.279 679.498 565.664 681.95 567.811 684.357C570.399 687.251 572.865 690.266 575.635 692.978C576.438 693.594 577.02 694.453 577.294 695.428C577.569 696.402 577.521 697.44 577.157 698.385C575.209 703.213 577.157 706.29 581.13 708.864C586.458 712.352 586.641 715.9 581.344 719.129C579.838 719.924 578.653 721.214 577.987 722.782C577.322 724.35 577.217 726.099 577.69 727.735C578.449 731.071 579.947 734.194 582.074 736.874C585.119 741.215 584.708 742.418 579.471 743.499C576.579 744.093 577.31 745.22 578.055 746.957C578.664 748.373 579.974 748.876 580.933 749.835C584.586 753.445 588.681 757.085 587.707 762.812C587.235 765.676 587.707 767.382 589.777 769.194C591.847 771.007 593.324 772.88 590.355 775.287C588.833 776.475 589.716 777.663 590.645 778.912C592.867 781.882 595.074 785.004 595.348 788.812C595.646 792.59 597.067 796.191 599.428 799.154C602.883 803.723 605.197 808.932 607.831 813.959C608.394 815.01 609.109 815.786 610.388 815.482C611.667 815.177 611.195 813.959 611.256 813.136C611.324 812.203 611.324 811.267 611.256 810.334C610.358 800.647 615.412 794.006 623.099 789.619C629.188 786.207 635.977 784.273 642.447 781.608C643.883 780.97 645.443 780.658 647.014 780.694C647.534 780.773 648.067 780.692 648.54 780.461C649.014 780.229 649.405 779.859 649.662 779.399C652.191 776.065 654.475 772.553 656.497 768.89C657.776 766.239 657.73 762.995 659.953 760.787C660.6 760.212 661.067 759.461 661.297 758.625C661.527 757.79 661.509 756.906 661.247 756.08C659.481 746.637 662.297 742.783 671.903 740.118C672.807 739.903 673.635 739.444 674.298 738.792C674.961 738.139 675.432 737.318 675.662 736.417C677.185 729.944 682.65 725.587 684.796 719.388C685.255 718.392 685.928 717.51 686.768 716.804C687.607 716.098 688.592 715.587 689.652 715.306C694.919 713.281 697.522 704.066 693.808 699.71C691.342 696.816 689.393 693.221 686.958 690.784C680.397 684.235 675.48 675.782 666.681 671.578C665.631 671.075 664.169 670.466 665.89 669.004C668.371 666.871 676.332 667.481 678.646 669.735C680.347 671.316 682.131 672.805 683.989 674.198C684.887 674.913 685.846 675.447 686.866 674.426C687.103 674.217 687.292 673.961 687.422 673.673C687.552 673.386 687.619 673.074 687.619 672.758C687.619 672.443 687.552 672.131 687.422 671.843C687.292 671.556 687.103 671.299 686.866 671.09C684.903 668.897 682.893 666.719 680.777 664.678C679.636 663.597 678.342 662.074 676.485 662.987C673.349 664.511 671.552 662.424 670.395 660.398C669.704 659.332 669.442 658.043 669.662 656.791C669.883 655.539 670.569 654.417 671.583 653.651C673.102 652.123 674.28 650.291 675.038 648.274C675.27 647.959 675.434 647.6 675.522 647.218C675.61 646.837 675.619 646.442 675.549 646.057C675.48 645.673 675.332 645.306 675.116 644.98C674.9 644.654 674.62 644.376 674.292 644.162C672.222 642.76 672.07 642.349 674.11 641.268C678.22 638.755 682.619 636.714 687.034 634.52Z" fill="white"/>
<path d="M577.413 486.812C577.626 475.647 580.655 466.641 582.8 457.438C586.255 442.682 584.535 428.262 580.015 413.856C576.181 401.61 573.167 389.106 573.091 376.085C573.091 369.057 572.681 362.059 573.822 355.077C574.033 353.977 574.007 352.845 573.745 351.756C573.482 350.667 572.99 349.647 572.3 348.764C567.735 342.558 568.389 340.017 574.674 335.712C575.648 335.028 577.246 334.541 576.957 333.157C576.668 331.772 574.917 332.229 573.761 332.046C570.809 331.544 569.196 330.236 569.196 326.783C569.515 318.188 572.315 310.202 575.207 302.337C577.593 295.185 581.04 288.432 585.433 282.303C590.181 276.051 595.827 271.655 604.303 272.096C609.888 272.431 614.194 275.732 618.227 278.713C627.784 285.802 631.299 296.283 632.425 307.738C632.644 309.431 632.279 311.148 631.39 312.605C627.388 318.371 628.347 325.094 628.21 331.331C628.042 338.024 628.818 344.748 628.681 351.548C628.561 355.326 629.192 359.09 630.538 362.622C632.41 367.094 630.34 372.312 629.564 377.165C629.123 379.964 628.742 382.458 631.192 384.847C632.326 385.831 633.046 387.208 633.206 388.7C633.367 390.193 632.958 391.691 632.06 392.894C626.642 400.591 626.277 409.916 623.523 418.45C620.479 427.79 621.118 437.662 620.479 447.352C620.16 451.734 622.336 456.282 623.294 460.769C625.927 473.198 628.255 485.778 627.312 498.434C626.247 512.764 621.97 525.922 607.529 533.026C603.527 535.019 600.361 535.49 597.12 531.505C594.259 527.945 591.322 524.386 590.622 519.959C590.082 517.26 588.67 514.812 586.605 512.992C581.818 508.111 578.954 501.667 578.539 494.844C578.311 491.65 577.094 488.531 577.413 486.812Z" fill="white"/>
<path d="M512.426 375.475C513.124 381.021 511.894 387.697 510.633 394.16C510.221 395.951 510.442 397.831 511.256 399.477C516.71 410.279 519.004 422.043 521.708 433.685C522.355 436.395 522.53 439.197 522.224 441.966C521.085 450.308 529.365 454.937 529.517 462.363C529.821 476.419 537.022 489.069 537.31 503.064C537.417 503.686 537.417 504.322 537.31 504.944C534.652 512.018 537.963 518.129 539.984 524.622C541.807 530.474 543.326 536.845 536.946 541.352C536.644 541.615 536.457 541.987 536.426 542.387C536.395 542.787 536.521 543.184 536.778 543.491C539.194 547.448 536.596 549.068 533.603 550.626C529.41 552.796 525.476 555.21 520.477 555.714C517.474 556.097 514.423 555.787 511.557 554.808C508.69 553.828 506.083 552.205 503.933 550.061C503.28 549.497 502.762 548.794 502.417 548.001C502.072 547.209 501.908 546.349 501.939 545.484C501.97 544.62 502.193 543.773 502.594 543.007C502.994 542.242 503.561 541.577 504.252 541.062C506.242 539.32 505.771 538.098 504.89 536.478C497.036 522.407 493.952 506.915 491.217 491.254C490.579 487.557 488.483 484.073 486.781 480.636C481.643 469.807 477.572 458.498 474.628 446.87C473.26 441.783 470.921 437.108 469.189 432.188C466.892 424.869 465.484 417.297 464.996 409.637C464.679 406.119 463.216 402.805 460.833 400.21C455.394 393.736 450.87 386.539 447.388 378.821C444.426 372.22 446.705 367.331 454.058 363.909C455.316 363.378 456.539 362.765 457.719 362.075C459.329 361.082 459.922 360.685 458.63 358.684C458.257 358.224 457.996 357.683 457.869 357.103C457.743 356.523 457.754 355.922 457.902 355.347C458.05 354.773 458.331 354.241 458.721 353.796C459.112 353.351 459.601 353.005 460.15 352.786C462.535 351.549 461.669 350.479 459.815 349.15C451.536 343.207 451.004 341.343 456.2 332.496C462.201 322.321 473.61 318.425 484.882 322.841C492.889 325.973 498.388 331.412 502.961 339.173C509.51 350.111 512.795 362.712 512.426 375.475Z" fill="white"/>
<path d="M351.083 680.195C338.808 680.287 330.635 673.807 325.035 663.384C318.042 650.409 311.413 637.25 302.831 625.177C301.638 623.392 300.869 621.354 300.583 619.22C300.297 617.087 300.501 614.915 301.181 612.874C303.587 604.071 306.993 595.91 315.999 591.86C323.43 588.513 330.998 589.614 338.157 592.273C352.673 597.668 363.449 607.648 371.214 621.158C373.181 624.581 372.909 628.02 372.894 631.55C372.831 633.991 373.631 636.374 375.149 638.274C378.176 642.294 381.491 646.252 382.006 651.723C382.687 658.967 378.797 664.27 374.589 669.084C371.712 672.557 368.117 675.351 364.056 677.27C359.995 679.19 355.567 680.188 351.083 680.195Z" fill="white"/>
<path d="M376.056 678.955C377.344 678.955 378.588 678.714 379.627 680.161C382.506 684.07 386.102 687.359 390.212 689.84C390.801 690.164 391.291 690.65 391.63 691.243C391.968 691.836 392.141 692.514 392.129 693.202C391.954 694.332 390.343 694.483 389.201 694.709C385.468 695.77 381.48 695.302 378.074 693.402C374.668 691.502 372.109 688.318 370.932 684.518C370.097 681.955 372.864 678.94 376.056 678.955Z" fill="white"/>
</svg>
